<?xml version="1.0" encoding="UTF-8" standalone="no"?>
<!-- Created with Inkscape (http://www.inkscape.org/) -->

<svg
   xmlns:dc="http://purl.org/dc/elements/1.1/"
   xmlns:cc="http://creativecommons.org/ns#"
   xmlns:rdf="http://www.w3.org/1999/02/22-rdf-syntax-ns#"
   xmlns:svg="http://www.w3.org/2000/svg"
   xmlns="http://www.w3.org/2000/svg"
   xmlns:xlink="http://www.w3.org/1999/xlink"
   xmlns:sodipodi="http://sodipodi.sourceforge.net/DTD/sodipodi-0.dtd"
   xmlns:inkscape="http://www.inkscape.org/namespaces/inkscape"
   width="150"
   height="150"
   viewBox="0 0 150 150"
   id="svg2"
   version="1.1"
   inkscape:version="0.91 r13725"
   sodipodi:docname="bronze.svg"
   inkscape:export-filename="/home/hannes/Desktop/Studium/Internetprog/hftArcade/bronze.png"
   inkscape:export-xdpi="89"
   inkscape:export-ydpi="89">
  <defs
     id="defs4">
    <linearGradient
       inkscape:collect="always"
       id="linearGradient5148">
      <stop
         style="stop-color:#ff893b;stop-opacity:1"
         offset="0"
         id="stop5150" />
      <stop
         style="stop-color:#983d00;stop-opacity:1"
         offset="1"
         id="stop5152" />
    </linearGradient>
    <inkscape:perspective
       sodipodi:type="inkscape:persp3d"
       inkscape:vp_x="0 : 75 : 1"
       inkscape:vp_y="0 : 1000 : 0"
       inkscape:vp_z="150 : 75 : 1"
       inkscape:persp3d-origin="75 : 50 : 1"
       id="perspective4351" />
    <inkscape:path-effect
       effect="skeletal"
       id="path-effect4251"
       is_visible="true"
       pattern="m 16.459144,911.54506 0.423191,3.779 -2.675901,-2.70176 -3.463271,1.57026 1.742626,-3.37983 -2.5636096,-2.80853 3.7529026,0.61292 1.878873,-3.30603 0.576796,3.75863 3.724817,0.7653 z"
       copytype="repeated"
       prop_scale="1"
       scale_y_rel="false"
       spacing="0"
       normal_offset="0"
       tang_offset="0"
       prop_units="false"
       vertical_pattern="false"
       fuse_tolerance="0" />
    <inkscape:path-effect
       effect="skeletal"
       id="path-effect4223"
       is_visible="true"
       pattern="m 16.459144,911.54506 0.423191,3.779 -2.675901,-2.70176 -3.463271,1.57026 1.742626,-3.37983 -2.5636096,-2.80853 3.7529026,0.61292 1.878873,-3.30603 0.576796,3.75863 3.724817,0.7653 z"
       copytype="repeated"
       prop_scale="0.96"
       scale_y_rel="false"
       spacing="0"
       normal_offset="0"
       tang_offset="0"
       prop_units="false"
       vertical_pattern="false"
       fuse_tolerance="0" />
    <inkscape:path-effect
       effect="skeletal"
       id="path-effect4189"
       is_visible="true"
       pattern="m -1.5564195,1.55636 1,0"
       copytype="single_stretched"
       prop_scale="1"
       scale_y_rel="false"
       spacing="0"
       normal_offset="0"
       tang_offset="0"
       prop_units="false"
       vertical_pattern="false"
       fuse_tolerance="0" />
    <radialGradient
       inkscape:collect="always"
       xlink:href="#linearGradient5148"
       id="radialGradient5154"
       cx="71.692612"
       cy="992.34271"
       fx="71.692612"
       fy="992.34271"
       r="31.628405"
       gradientUnits="userSpaceOnUse"
       gradientTransform="matrix(1.4505752,0,0,1.4505752,-30.394767,-432.90666)" />
  </defs>
  <sodipodi:namedview
     id="base"
     pagecolor="#ffffff"
     bordercolor="#666666"
     borderopacity="1.0"
     inkscape:pageopacity="0.0"
     inkscape:pageshadow="2"
     inkscape:zoom="5.14"
     inkscape:cx="60.603113"
     inkscape:cy="68.45145"
     inkscape:document-units="px"
     inkscape:current-layer="layer1"
     showgrid="false"
     units="px"
     inkscape:window-width="1680"
     inkscape:window-height="997"
     inkscape:window-x="0"
     inkscape:window-y="0"
     inkscape:window-maximized="1" />
  <metadata
     id="metadata7">
    <rdf:RDF>
      <cc:Work
         rdf:about="">
        <dc:format>image/svg+xml</dc:format>
        <dc:type
           rdf:resource="http://purl.org/dc/dcmitype/StillImage" />
        <dc:title></dc:title>
      </cc:Work>
    </rdf:RDF>
  </metadata>
  <g
     inkscape:label="Layer 1"
     inkscape:groupmode="layer"
     id="layer1"
     transform="translate(0,-902.36216)">
    <path
       style="color:#000000;clip-rule:nonzero;display:inline;overflow:visible;visibility:visible;opacity:1;isolation:auto;mix-blend-mode:normal;color-interpolation:sRGB;color-interpolation-filters:linearRGB;solid-color:#000000;solid-opacity:1;fill:#800000;fill-opacity:1;fill-rule:nonzero;stroke:none;stroke-width:1;stroke-linecap:butt;stroke-linejoin:miter;stroke-miterlimit:1;stroke-dasharray:none;stroke-dashoffset:0;stroke-opacity:1;color-rendering:auto;image-rendering:auto;shape-rendering:auto;text-rendering:auto;enable-background:accumulate"
       d="m 13.184817,902.2838 45.423968,124.8032 c 0.759358,2.0864 2.79291,3.2492 4.558544,2.6066 l 1.0511,-0.3825 c 1.765635,-0.6426 2.575416,-2.8405 1.816054,-4.9268 l -44.440862,-122.1005 -8.408803,0 z"
       id="rect4276-1"
       inkscape:connector-curvature="0" />
    <path
       style="color:#000000;clip-rule:nonzero;display:inline;overflow:visible;visibility:visible;opacity:1;isolation:auto;mix-blend-mode:normal;color-interpolation:sRGB;color-interpolation-filters:linearRGB;solid-color:#000000;solid-opacity:1;fill:#800000;fill-opacity:1;fill-rule:nonzero;stroke:none;stroke-width:1;stroke-linecap:butt;stroke-linejoin:miter;stroke-miterlimit:1;stroke-dasharray:none;stroke-dashoffset:0;stroke-opacity:1;color-rendering:auto;image-rendering:auto;shape-rendering:auto;text-rendering:auto;enable-background:accumulate"
       d="m 113.53514,902.2838 -42.420811,116.5531 c -0.759362,2.0864 0.05041,4.2843 1.816051,4.9269 l 1.0511,0.3824 c 1.765635,0.6427 3.799186,-0.5201 4.558546,-2.6065 l 43.403914,-119.2559 -8.4088,0 z"
       id="rect4276"
       inkscape:connector-curvature="0" />
    <path
       style="color:#000000;clip-rule:nonzero;display:inline;overflow:visible;visibility:visible;opacity:1;isolation:auto;mix-blend-mode:normal;color-interpolation:sRGB;color-interpolation-filters:linearRGB;solid-color:#000000;solid-opacity:1;fill:#800000;fill-opacity:1;fill-rule:nonzero;stroke:none;stroke-width:1;stroke-linecap:butt;stroke-linejoin:miter;stroke-miterlimit:1;stroke-dasharray:none;stroke-dashoffset:0;stroke-opacity:1;color-rendering:auto;image-rendering:auto;shape-rendering:auto;text-rendering:auto;enable-background:accumulate"
       d="m 130.35558,902.2838 -44.389856,121.9588 c -0.75936,2.0862 0.05041,4.2842 1.816054,4.9269 l 1.051098,0.3825 c 1.765639,0.6426 3.799184,-0.5203 4.558552,-2.6066 l 45.372952,-124.6616 -8.4088,0 z"
       id="rect4276-0"
       inkscape:connector-curvature="0" />
    <path
       style="color:#000000;clip-rule:nonzero;display:inline;overflow:visible;visibility:visible;opacity:1;isolation:auto;mix-blend-mode:normal;color-interpolation:sRGB;color-interpolation-filters:linearRGB;solid-color:#000000;solid-opacity:1;fill:#800000;fill-opacity:1;fill-rule:nonzero;stroke:none;stroke-width:1;stroke-linecap:butt;stroke-linejoin:miter;stroke-miterlimit:1;stroke-dasharray:none;stroke-dashoffset:0;stroke-opacity:1;color-rendering:auto;image-rendering:auto;shape-rendering:auto;text-rendering:auto;enable-background:accumulate"
       d="m 30.002423,902.2838 43.457756,119.3977 c 0.759361,2.0862 2.792912,3.2491 4.558546,2.6064 l 1.051101,-0.3825 c 1.765634,-0.6426 2.575412,-2.8405 1.816053,-4.9268 l -42.474653,-116.6948 -8.408803,0 z"
       id="rect4276-0-9"
       inkscape:connector-curvature="0" />
    <path
       style="color:#000000;clip-rule:nonzero;display:inline;overflow:visible;visibility:visible;opacity:1;isolation:auto;mix-blend-mode:normal;color-interpolation:sRGB;color-interpolation-filters:linearRGB;solid-color:#000000;solid-opacity:1;fill:#999999;fill-opacity:1;fill-rule:nonzero;stroke:none;stroke-width:1;stroke-linecap:butt;stroke-linejoin:miter;stroke-miterlimit:1;stroke-dasharray:none;stroke-dashoffset:0;stroke-opacity:1;color-rendering:auto;image-rendering:auto;shape-rendering:auto;text-rendering:auto;enable-background:accumulate"
       d="m 121.94394,902.2838 -43.403914,119.2559 c -0.75936,2.0864 0.05041,4.2843 1.816051,4.927 l 1.051101,0.3823 c 1.765635,0.6427 3.799186,-0.5202 4.558546,-2.6064 l 44.389856,-121.9588 -8.41164,0 z"
       id="rect4276-0-8"
       inkscape:connector-curvature="0" />
    <path
       style="color:#000000;clip-rule:nonzero;display:inline;overflow:visible;visibility:visible;opacity:1;isolation:auto;mix-blend-mode:normal;color-interpolation:sRGB;color-interpolation-filters:linearRGB;solid-color:#000000;solid-opacity:1;fill:#999999;fill-opacity:1;fill-rule:nonzero;stroke:none;stroke-width:1;stroke-linecap:butt;stroke-linejoin:miter;stroke-miterlimit:1;stroke-dasharray:none;stroke-dashoffset:0;stroke-opacity:1;color-rendering:auto;image-rendering:auto;shape-rendering:auto;text-rendering:auto;enable-background:accumulate"
       d="m 21.59362,902.2838 44.440862,122.1005 c 0.759362,2.0863 2.792912,3.2491 4.558546,2.6064 l 1.051099,-0.3824 c 1.765635,-0.6427 2.575413,-2.8406 1.816052,-4.9268 l -43.457756,-119.3977 -8.408803,0 z"
       id="rect4276-0-8-9"
       inkscape:connector-curvature="0" />
    <circle
       style="color:#000000;clip-rule:nonzero;display:inline;overflow:visible;visibility:visible;opacity:1;isolation:auto;mix-blend-mode:normal;color-interpolation:sRGB;color-interpolation-filters:linearRGB;solid-color:#000000;solid-opacity:1;fill:url(#radialGradient5154);fill-opacity:1;fill-rule:nonzero;stroke:#000000;stroke-width:0.83014756;stroke-linecap:butt;stroke-linejoin:miter;stroke-miterlimit:1;stroke-dasharray:none;stroke-dashoffset:0;stroke-opacity:1;color-rendering:auto;image-rendering:auto;shape-rendering:auto;text-rendering:auto;enable-background:accumulate"
       id="path4136"
       cx="73.600754"
       cy="1006.5612"
       r="45.464306" />
    <circle
       style="color:#000000;clip-rule:nonzero;display:inline;overflow:visible;visibility:visible;opacity:1;isolation:auto;mix-blend-mode:normal;color-interpolation:sRGB;color-interpolation-filters:linearRGB;solid-color:#000000;solid-opacity:1;fill:none;fill-opacity:1;fill-rule:nonzero;stroke:#000000;stroke-width:0.92268872;stroke-linecap:butt;stroke-linejoin:miter;stroke-miterlimit:1;stroke-dasharray:none;stroke-dashoffset:0;stroke-opacity:1;color-rendering:auto;image-rendering:auto;shape-rendering:auto;text-rendering:auto;enable-background:accumulate"
       id="path4163"
       cx="73.600754"
       cy="1006.5612"
       r="40.928596" />
    <circle
       r="43.309147"
       cy="1006.5612"
       cx="73.600754"
       id="circle4274"
       style="color:#000000;clip-rule:nonzero;display:inline;overflow:visible;visibility:visible;opacity:1;isolation:auto;mix-blend-mode:normal;color-interpolation:sRGB;color-interpolation-filters:linearRGB;solid-color:#000000;solid-opacity:1;fill:none;fill-opacity:1;fill-rule:nonzero;stroke:#000000;stroke-width:0.97635531;stroke-linecap:butt;stroke-linejoin:miter;stroke-miterlimit:1;stroke-dasharray:none;stroke-dashoffset:0;stroke-opacity:1;color-rendering:auto;image-rendering:auto;shape-rendering:auto;text-rendering:auto;enable-background:accumulate" />
    <rect
       style="color:#000000;clip-rule:nonzero;display:inline;overflow:visible;visibility:visible;opacity:1;isolation:auto;mix-blend-mode:normal;color-interpolation:sRGB;color-interpolation-filters:linearRGB;solid-color:#000000;solid-opacity:1;fill:#000000;fill-opacity:0;fill-rule:nonzero;stroke:none;stroke-width:1;stroke-linecap:butt;stroke-linejoin:miter;stroke-miterlimit:1;stroke-dasharray:none;stroke-dashoffset:0;stroke-opacity:1;color-rendering:auto;image-rendering:auto;shape-rendering:auto;text-rendering:auto;enable-background:accumulate"
       id="rect4444"
       width="45.070507"
       height="26.406946"
       x="-0.76438236"
       y="947.67914"
       rx="2.386133"
       ry="2.7590175" />
    <rect
       style="color:#000000;clip-rule:nonzero;display:inline;overflow:visible;visibility:visible;opacity:0;isolation:auto;mix-blend-mode:normal;color-interpolation:sRGB;color-interpolation-filters:linearRGB;solid-color:#000000;solid-opacity:1;fill:#000000;fill-opacity:1;fill-rule:nonzero;stroke:none;stroke-width:1;stroke-linecap:butt;stroke-linejoin:miter;stroke-miterlimit:1;stroke-dasharray:none;stroke-dashoffset:0;stroke-opacity:1;color-rendering:auto;image-rendering:auto;shape-rendering:auto;text-rendering:auto;enable-background:accumulate"
       id="rect4446"
       width="21.244686"
       height="24.421461"
       x="7.9717503"
       y="937.95032"
       rx="2.386133"
       ry="2.7590175" />
    <path
       inkscape:connector-curvature="0"
       id="path5201"
       d="m 70.611269,988.09545 c -1.605453,0 -3.107015,0.19833 -4.504717,0.59497 -1.378801,0.37777 -2.597053,0.96328 -3.654768,1.75656 -1.038815,0.7744 -1.879322,1.74713 -2.521504,2.91816 -0.623299,1.15214 -0.972714,2.50262 -1.048274,4.0514 l 6.204617,0 c 0.113319,-1.75656 0.632741,-3.05981 1.558238,-3.90976 0.944382,-0.86882 2.360956,-1.30324 4.249734,-1.30324 0.96327,0 1.765989,0.16998 2.408174,0.50997 0.642184,0.32108 1.152148,0.74606 1.529908,1.27491 0.396643,0.52886 0.679956,1.12382 0.849947,1.78489 0.16998,0.66107 0.254984,1.33158 0.254984,2.01154 0,0.66107 -0.07556,1.35991 -0.226654,2.09657 -0.13222,0.71768 -0.491078,1.37878 -1.076602,1.98318 -0.585524,0.6044 -1.454347,1.1048 -2.606509,1.5015 -1.152148,0.3778 -2.748157,0.5666 -4.788029,0.5666 l 0,3.9382 3.173134,0 c 1.246595,0 2.266523,0.2645 3.059813,0.7932 0.812163,0.5099 1.444905,1.1239 1.898209,1.8415 0.472191,0.6989 0.793288,1.4072 0.963283,2.125 0.169978,0.6988 0.254982,1.2371 0.254982,1.6149 0,0.9443 -0.179436,1.8037 -0.538308,2.5781 -0.358857,0.7556 -0.840492,1.4071 -1.444904,1.9549 -0.604411,0.5288 -1.303254,0.9445 -2.096531,1.2466 -0.774403,0.2833 -1.586565,0.425 -2.436516,0.425 -0.849949,0 -1.62434,-0.1422 -2.323183,-0.425 -0.679957,-0.2833 -1.265481,-0.6798 -1.75656,-1.1899 -0.491077,-0.51 -0.87828,-1.105 -1.16159,-1.7849 -0.264426,-0.6801 -0.415533,-1.4165 -0.453306,-2.2098 l -6.204618,0 c 0,1.1332 0.179437,2.2948 0.538309,3.4847 0.358859,1.19 0.972712,2.2759 1.841549,3.2581 0.887723,0.9633 2.077645,1.7661 3.569777,2.4082 1.49212,0.6233 3.3809,0.9349 5.66631,0.9349 2.28541,0 4.249721,-0.3116 5.892961,-0.9349 1.643226,-0.6421 2.984253,-1.4638 4.02307,-2.4648 1.057716,-1.02 1.832105,-2.172 2.323197,-3.4565 0.509965,-1.2843 0.764946,-2.5782 0.764946,-3.8814 0,-1.3032 -0.226652,-2.4364 -0.679956,-3.3997 -0.453306,-0.9822 -1.03883,-1.8133 -1.75656,-2.4933 -0.698843,-0.6988 -1.473234,-1.256 -2.323184,-1.6715 -0.831062,-0.4344 -1.624339,-0.7555 -2.379856,-0.9633 0.774404,-0.2833 1.548794,-0.6044 2.323197,-0.9633 0.774389,-0.3778 1.46379,-0.8594 2.068201,-1.4448 0.623298,-0.5856 1.123819,-1.3128 1.501563,-2.1817 0.396645,-0.8876 0.594968,-1.98309 0.594968,-3.28635 0,-1.60545 -0.302198,-3.01259 -0.90661,-4.2214 -0.60441,-1.20882 -1.426016,-2.2193 -2.464846,-3.03148 -1.038815,-0.81216 -2.266523,-1.41656 -3.683097,-1.81321 -1.397688,-0.41554 -2.889821,-0.62331 -4.476388,-0.62331 z m 17.100918,28.12175 a 3.8098762,3.8098762 0 0 0 -3.810588,3.8107 3.8098762,3.8098762 0 0 0 3.810588,3.8106 3.8098762,3.8098762 0 0 0 3.807755,-3.8106 3.8098762,3.8098762 0 0 0 -3.807755,-3.8107 z"
       style="font-style:normal;font-variant:normal;font-weight:normal;font-stretch:normal;font-size:40px;line-height:125%;font-family:'Abyssinica SIL';-inkscape-font-specification:'Abyssinica SIL, Normal';text-align:start;letter-spacing:0px;word-spacing:0px;writing-mode:lr-tb;text-anchor:start;fill:#000000;fill-opacity:1;stroke:none;stroke-width:1px;stroke-linecap:butt;stroke-linejoin:miter;stroke-opacity:1" />
    <path
       style="font-style:normal;font-variant:normal;font-weight:normal;font-stretch:normal;font-size:40px;line-height:125%;font-family:'Abyssinica SIL';-inkscape-font-specification:'Abyssinica SIL, Normal';text-align:start;letter-spacing:0px;word-spacing:0px;writing-mode:lr-tb;text-anchor:start;fill:#803300;fill-opacity:1;stroke:none;stroke-width:1px;stroke-linecap:butt;stroke-linejoin:miter;stroke-opacity:1"
       d="m 69.482417,986.9666 c -1.605454,0 -3.107015,0.19832 -4.504718,0.59497 -1.3788,0.37777 -2.59705,0.96327 -3.654767,1.75656 -1.038815,0.77438 -1.879321,1.74712 -2.521506,2.91816 -0.623298,1.15214 -0.972713,2.50261 -1.048273,4.0514 l 6.204618,0 c 0.113318,-1.75656 0.632741,-3.05981 1.558236,-3.90977 0.944383,-0.86881 2.360956,-1.30323 4.249737,-1.30323 0.963269,0 1.765988,0.16998 2.408173,0.50997 0.642183,0.32108 1.152147,0.74605 1.529906,1.2749 0.396645,0.52887 0.679958,1.12382 0.849951,1.7849 0.169978,0.66106 0.254982,1.33157 0.254982,2.01154 0,0.66107 -0.07556,1.35991 -0.226654,2.09652 -0.132219,0.71776 -0.491077,1.37878 -1.076601,1.98308 -0.585525,0.6045 -1.454347,1.105 -2.60651,1.5017 -1.15215,0.3777 -2.748159,0.5666 -4.78803,0.5666 l 0,3.9381 3.173134,0 c 1.246595,0 2.266524,0.2644 3.059815,0.7932 0.812162,0.51 1.444903,1.1239 1.898207,1.8416 0.472192,0.6989 0.793291,1.4071 0.963285,2.125 0.169978,0.6987 0.254981,1.237 0.254981,1.6148 0,0.9444 -0.179436,1.8038 -0.538309,2.5781 -0.358857,0.7556 -0.840492,1.4072 -1.444903,1.955 -0.60441,0.5288 -1.303254,0.9443 -2.09653,1.2466 -0.774405,0.2832 -1.586568,0.4249 -2.436517,0.4249 -0.84995,0 -1.62434,-0.1421 -2.323184,-0.4249 -0.679956,-0.2833 -1.265482,-0.6798 -1.756559,-1.19 -0.491077,-0.5099 -0.878278,-1.1049 -1.161592,-1.7848 -0.264425,-0.6801 -0.41553,-1.4167 -0.453305,-2.2099 l -6.204616,0 c 0,1.1333 0.179434,2.2949 0.538307,3.4848 0.358859,1.1899 0.972713,2.2758 1.841549,3.258 0.887722,0.9633 2.077644,1.7661 3.569778,2.4082 1.49212,0.6235 3.3809,0.935 5.666308,0.935 2.285411,0 4.249723,-0.3115 5.892963,-0.935 1.643227,-0.6421 2.984253,-1.4638 4.023067,-2.4648 1.057717,-1.02 1.832106,-2.1719 2.323199,-3.4564 0.509964,-1.2844 0.764947,-2.5783 0.764947,-3.8814 0,-1.3033 -0.226654,-2.4365 -0.679958,-3.3998 -0.453305,-0.9822 -1.038829,-1.8133 -1.75656,-2.4933 -0.698842,-0.6987 -1.473232,-1.2559 -2.323183,-1.6715 -0.831063,-0.4344 -1.624339,-0.7555 -2.379856,-0.9633 0.774403,-0.2833 1.548793,-0.6043 2.323198,-0.9632 0.774389,-0.3778 1.463788,-0.8594 2.0682,-1.4449 0.623299,-0.5855 1.123819,-1.3127 1.501564,-2.18158 0.396644,-0.88769 0.594967,-1.98316 0.594967,-3.28642 0,-1.60546 -0.302198,-3.01259 -0.906608,-4.22139 -0.604412,-1.20882 -1.426018,-2.21932 -2.464847,-3.03148 -1.038815,-0.81218 -2.266523,-1.41658 -3.683097,-1.81323 -1.397687,-0.41553 -2.889821,-0.6233 -4.476388,-0.6233 z m 17.100918,28.1218 a 3.8098762,3.8098762 0 0 0 -3.810589,3.8107 3.8098762,3.8098762 0 0 0 3.810589,3.8105 3.8098762,3.8098762 0 0 0 3.80776,-3.8105 3.8098762,3.8098762 0 0 0 -3.80776,-3.8107 z"
       id="flowRoot5190"
       inkscape:connector-curvature="0" />
  </g>
</svg>
