<?xml version="1.0" encoding="UTF-8" standalone="no"?>
<!-- Created with Inkscape (http://www.inkscape.org/) -->

<svg
   xmlns:dc="http://purl.org/dc/elements/1.1/"
   xmlns:cc="http://creativecommons.org/ns#"
   xmlns:rdf="http://www.w3.org/1999/02/22-rdf-syntax-ns#"
   xmlns:svg="http://www.w3.org/2000/svg"
   xmlns="http://www.w3.org/2000/svg"
   xmlns:xlink="http://www.w3.org/1999/xlink"
   xmlns:sodipodi="http://sodipodi.sourceforge.net/DTD/sodipodi-0.dtd"
   xmlns:inkscape="http://www.inkscape.org/namespaces/inkscape"
   width="150"
   height="150"
   viewBox="0 0 150 150"
   id="svg2"
   version="1.1"
   inkscape:version="0.91 r13725"
   sodipodi:docname="silver.svg"
   inkscape:export-filename="/home/hannes/Desktop/Studium/Internetprog/hftArcade/silver.png"
   inkscape:export-xdpi="89"
   inkscape:export-ydpi="89">
  <defs
     id="defs4">
    <linearGradient
       inkscape:collect="always"
       id="linearGradient4410">
      <stop
         style="stop-color:#ffffff;stop-opacity:1"
         offset="0"
         id="stop4412" />
      <stop
         style="stop-color:#999999;stop-opacity:1"
         offset="1"
         id="stop4414" />
    </linearGradient>
    <inkscape:perspective
       sodipodi:type="inkscape:persp3d"
       inkscape:vp_x="0 : 75 : 1"
       inkscape:vp_y="0 : 1000 : 0"
       inkscape:vp_z="150 : 75 : 1"
       inkscape:persp3d-origin="75 : 50 : 1"
       id="perspective4351" />
    <inkscape:path-effect
       effect="skeletal"
       id="path-effect4251"
       is_visible="true"
       pattern="m 16.459144,911.54506 0.423191,3.779 -2.675901,-2.70176 -3.463271,1.57026 1.742626,-3.37983 -2.5636096,-2.80853 3.7529026,0.61292 1.878873,-3.30603 0.576796,3.75863 3.724817,0.7653 z"
       copytype="repeated"
       prop_scale="1"
       scale_y_rel="false"
       spacing="0"
       normal_offset="0"
       tang_offset="0"
       prop_units="false"
       vertical_pattern="false"
       fuse_tolerance="0" />
    <inkscape:path-effect
       effect="skeletal"
       id="path-effect4223"
       is_visible="true"
       pattern="m 16.459144,911.54506 0.423191,3.779 -2.675901,-2.70176 -3.463271,1.57026 1.742626,-3.37983 -2.5636096,-2.80853 3.7529026,0.61292 1.878873,-3.30603 0.576796,3.75863 3.724817,0.7653 z"
       copytype="repeated"
       prop_scale="0.96"
       scale_y_rel="false"
       spacing="0"
       normal_offset="0"
       tang_offset="0"
       prop_units="false"
       vertical_pattern="false"
       fuse_tolerance="0" />
    <inkscape:path-effect
       effect="skeletal"
       id="path-effect4189"
       is_visible="true"
       pattern="m -1.5564195,1.55636 1,0"
       copytype="single_stretched"
       prop_scale="1"
       scale_y_rel="false"
       spacing="0"
       normal_offset="0"
       tang_offset="0"
       prop_units="false"
       vertical_pattern="false"
       fuse_tolerance="0" />
    <radialGradient
       inkscape:collect="always"
       xlink:href="#linearGradient4410"
       id="radialGradient4416"
       cx="71.692612"
       cy="992.34271"
       fx="71.692612"
       fy="992.34271"
       r="31.628405"
       gradientUnits="userSpaceOnUse"
       gradientTransform="matrix(1.4516693,0,0,1.4516693,-31.502166,-433.97042)" />
  </defs>
  <sodipodi:namedview
     id="base"
     pagecolor="#ffffff"
     bordercolor="#666666"
     borderopacity="1.0"
     inkscape:pageopacity="0.0"
     inkscape:pageshadow="2"
     inkscape:zoom="3.6345289"
     inkscape:cx="39.675297"
     inkscape:cy="76.283435"
     inkscape:document-units="px"
     inkscape:current-layer="layer1"
     showgrid="false"
     units="px"
     inkscape:window-width="1680"
     inkscape:window-height="997"
     inkscape:window-x="0"
     inkscape:window-y="0"
     inkscape:window-maximized="1" />
  <metadata
     id="metadata7">
    <rdf:RDF>
      <cc:Work
         rdf:about="">
        <dc:format>image/svg+xml</dc:format>
        <dc:type
           rdf:resource="http://purl.org/dc/dcmitype/StillImage" />
        <dc:title />
      </cc:Work>
    </rdf:RDF>
  </metadata>
  <g
     inkscape:label="Layer 1"
     inkscape:groupmode="layer"
     id="layer1"
     transform="translate(0,-902.36216)">
    <path
       style="color:#000000;clip-rule:nonzero;display:inline;overflow:visible;visibility:visible;opacity:1;isolation:auto;mix-blend-mode:normal;color-interpolation:sRGB;color-interpolation-filters:linearRGB;solid-color:#000000;solid-opacity:1;fill:#800000;fill-opacity:1;fill-rule:nonzero;stroke:none;stroke-width:1;stroke-linecap:butt;stroke-linejoin:miter;stroke-miterlimit:1;stroke-dasharray:none;stroke-dashoffset:0;stroke-opacity:1;color-rendering:auto;image-rendering:auto;shape-rendering:auto;text-rendering:auto;enable-background:accumulate"
       d="m 12.110292,902.22725 45.458233,124.89735 c 0.759932,2.0879 2.795016,3.2518 4.561983,2.6085 l 1.051894,-0.3828 c 1.766965,-0.6431 2.577356,-2.8426 1.817421,-4.9305 l -44.474386,-122.19255 -8.415145,0 z"
       id="rect4276-1"
       inkscape:connector-curvature="0"
       inkscape:export-xdpi="89"
       inkscape:export-ydpi="89" />
    <path
       style="color:#000000;clip-rule:nonzero;display:inline;overflow:visible;visibility:visible;opacity:1;isolation:auto;mix-blend-mode:normal;color-interpolation:sRGB;color-interpolation-filters:linearRGB;solid-color:#000000;solid-opacity:1;fill:#800000;fill-opacity:1;fill-rule:nonzero;stroke:none;stroke-width:1;stroke-linecap:butt;stroke-linejoin:miter;stroke-miterlimit:1;stroke-dasharray:none;stroke-dashoffset:0;stroke-opacity:1;color-rendering:auto;image-rendering:auto;shape-rendering:auto;text-rendering:auto;enable-background:accumulate"
       d="M 112.53632,902.22725 70.083504,1018.8684 c -0.759936,2.0878 0.05045,4.2873 1.817421,4.9305 l 1.051892,0.3828 c 1.766967,0.6431 3.802052,-0.5206 4.561984,-2.6085 l 43.436659,-119.34595 -8.41514,0 z"
       id="rect4276"
       inkscape:connector-curvature="0"
       inkscape:export-xdpi="89"
       inkscape:export-ydpi="89" />
    <path
       style="color:#000000;clip-rule:nonzero;display:inline;overflow:visible;visibility:visible;opacity:1;isolation:auto;mix-blend-mode:normal;color-interpolation:sRGB;color-interpolation-filters:linearRGB;solid-color:#000000;solid-opacity:1;fill:#800000;fill-opacity:1;fill-rule:nonzero;stroke:none;stroke-width:1;stroke-linecap:butt;stroke-linejoin:miter;stroke-miterlimit:1;stroke-dasharray:none;stroke-dashoffset:0;stroke-opacity:1;color-rendering:auto;image-rendering:auto;shape-rendering:auto;text-rendering:auto;enable-background:accumulate"
       d="M 129.36945,902.22725 84.9461,1024.2781 c -0.75993,2.0879 0.0504,4.2874 1.81742,4.9305 l 1.0519,0.3828 c 1.76697,0.6431 3.80204,-0.5206 4.56198,-2.6084 l 45.40719,-124.75575 -8.41514,0 z"
       id="rect4276-0"
       inkscape:connector-curvature="0"
       inkscape:export-xdpi="89"
       inkscape:export-ydpi="89" />
    <path
       style="color:#000000;clip-rule:nonzero;display:inline;overflow:visible;visibility:visible;opacity:1;isolation:auto;mix-blend-mode:normal;color-interpolation:sRGB;color-interpolation-filters:linearRGB;solid-color:#000000;solid-opacity:1;fill:#800000;fill-opacity:1;fill-rule:nonzero;stroke:none;stroke-width:1;stroke-linecap:butt;stroke-linejoin:miter;stroke-miterlimit:1;stroke-dasharray:none;stroke-dashoffset:0;stroke-opacity:1;color-rendering:auto;image-rendering:auto;shape-rendering:auto;text-rendering:auto;enable-background:accumulate"
       d="m 28.940583,902.22725 43.490541,119.48765 c 0.759933,2.0879 2.795018,3.2515 4.561985,2.6085 l 1.051891,-0.3827 c 1.76697,-0.6432 2.57736,-2.8428 1.81742,-4.9306 l -42.50669,-116.78285 -8.415147,0 z"
       id="rect4276-0-9"
       inkscape:connector-curvature="0"
       inkscape:export-xdpi="89"
       inkscape:export-ydpi="89" />
    <path
       style="color:#000000;clip-rule:nonzero;display:inline;overflow:visible;visibility:visible;opacity:1;isolation:auto;mix-blend-mode:normal;color-interpolation:sRGB;color-interpolation-filters:linearRGB;solid-color:#000000;solid-opacity:1;fill:#999999;fill-opacity:1;fill-rule:nonzero;stroke:none;stroke-width:1;stroke-linecap:butt;stroke-linejoin:miter;stroke-miterlimit:1;stroke-dasharray:none;stroke-dashoffset:0;stroke-opacity:1;color-rendering:auto;image-rendering:auto;shape-rendering:auto;text-rendering:auto;enable-background:accumulate"
       d="M 120.95146,902.22725 77.514801,1021.5732 c -0.759932,2.0879 0.05045,4.2874 1.817419,4.9305 l 1.0519,0.3828 c 1.76696,0.6432 3.80205,-0.5205 4.56198,-2.6084 l 44.42335,-122.05085 -8.41799,0 z"
       id="rect4276-0-8"
       inkscape:connector-curvature="0"
       inkscape:export-xdpi="89"
       inkscape:export-ydpi="89" />
    <path
       style="color:#000000;clip-rule:nonzero;display:inline;overflow:visible;visibility:visible;opacity:1;isolation:auto;mix-blend-mode:normal;color-interpolation:sRGB;color-interpolation-filters:linearRGB;solid-color:#000000;solid-opacity:1;fill:#999999;fill-opacity:1;fill-rule:nonzero;stroke:none;stroke-width:1;stroke-linecap:butt;stroke-linejoin:miter;stroke-miterlimit:1;stroke-dasharray:none;stroke-dashoffset:0;stroke-opacity:1;color-rendering:auto;image-rendering:auto;shape-rendering:auto;text-rendering:auto;enable-background:accumulate"
       d="m 20.525437,902.22725 44.474386,122.19255 c 0.759935,2.0879 2.795019,3.2514 4.561986,2.6084 l 1.051893,-0.3827 c 1.766966,-0.6431 2.577355,-2.8427 1.817422,-4.9306 l -43.490541,-119.48765 -8.415146,0 z"
       id="rect4276-0-8-9"
       inkscape:connector-curvature="0"
       inkscape:export-xdpi="89"
       inkscape:export-ydpi="89" />
    <circle
       style="color:#000000;clip-rule:nonzero;display:inline;overflow:visible;visibility:visible;opacity:1;isolation:auto;mix-blend-mode:normal;color-interpolation:sRGB;color-interpolation-filters:linearRGB;solid-color:#000000;solid-opacity:1;fill:url(#radialGradient4416);fill-opacity:1;fill-rule:nonzero;stroke:#000000;stroke-width:0.83077377;stroke-linecap:butt;stroke-linejoin:miter;stroke-miterlimit:1;stroke-dasharray:none;stroke-dashoffset:0;stroke-opacity:1;color-rendering:auto;image-rendering:auto;shape-rendering:auto;text-rendering:auto;enable-background:accumulate"
       id="path4136"
       cx="72.571793"
       cy="1006.5831"
       r="45.4986"
       inkscape:export-xdpi="89"
       inkscape:export-ydpi="89" />
    <circle
       style="color:#000000;clip-rule:nonzero;display:inline;overflow:visible;visibility:visible;opacity:1;isolation:auto;mix-blend-mode:normal;color-interpolation:sRGB;color-interpolation-filters:linearRGB;solid-color:#000000;solid-opacity:1;fill:none;fill-opacity:1;fill-rule:nonzero;stroke:#000000;stroke-width:0.92338473;stroke-linecap:butt;stroke-linejoin:miter;stroke-miterlimit:1;stroke-dasharray:none;stroke-dashoffset:0;stroke-opacity:1;color-rendering:auto;image-rendering:auto;shape-rendering:auto;text-rendering:auto;enable-background:accumulate"
       id="path4163"
       cx="72.571793"
       cy="1006.5831"
       r="40.959476"
       inkscape:export-xdpi="89"
       inkscape:export-ydpi="89" />
    <circle
       r="43.341816"
       cy="1006.5831"
       cx="72.571793"
       id="circle4274"
       style="color:#000000;clip-rule:nonzero;display:inline;overflow:visible;visibility:visible;opacity:1;isolation:auto;mix-blend-mode:normal;color-interpolation:sRGB;color-interpolation-filters:linearRGB;solid-color:#000000;solid-opacity:1;fill:none;fill-opacity:1;fill-rule:nonzero;stroke:#000000;stroke-width:0.97709191;stroke-linecap:butt;stroke-linejoin:miter;stroke-miterlimit:1;stroke-dasharray:none;stroke-dashoffset:0;stroke-opacity:1;color-rendering:auto;image-rendering:auto;shape-rendering:auto;text-rendering:auto;enable-background:accumulate"
       inkscape:export-xdpi="89"
       inkscape:export-ydpi="89" />
    <path
       inkscape:connector-curvature="0"
       id="path4485"
       d="m 71.449331,982.68978 c -5.083122,0 -9.004227,1.17351 -11.763632,3.52143 -2.759406,2.34792 -4.285692,5.88111 -4.576156,10.60115 l 7.953,0 c 0.07262,-0.944 0.266556,-1.91092 0.581234,-2.90333 0.338862,-0.99241 0.822327,-1.88906 1.45167,-2.68787 0.653541,-0.82296 1.477116,-1.50036 2.469536,-2.03289 1.016618,-0.53252 2.237908,-0.79955 3.666031,-0.79955 1.40391,0 2.564766,0.24457 3.484573,0.72865 0.919807,0.4599 1.647819,1.05159 2.180335,1.77774 0.532515,0.70195 0.895114,1.47776 1.088752,2.32495 0.217846,0.82298 0.326056,1.59594 0.326056,2.32209 0,1.54914 -0.375239,3.18364 -1.125606,4.90225 -0.750369,1.6943 -2.044749,3.6309 -3.884349,5.8095 -1.8396,2.1542 -4.307495,4.6222 -7.405778,7.4057 -3.074084,2.7838 -6.947399,6.0147 -11.619032,9.6941 l 0,6.5353 31.080475,0 0,-7.0797 -23.274921,0 c 3.630798,-2.4206 6.93493,-4.7199 9.912187,-6.8985 2.977259,-2.1784 5.518231,-4.3442 7.624094,-6.4984 2.13008,-2.1785 3.76457,-4.3921 4.90223,-6.6431 1.16184,-2.2753 1.7437,-4.70805 1.7437,-7.29801 0,-1.93644 -0.32747,-3.69181 -0.98101,-5.26515 -0.65355,-1.57336 -1.61064,-2.91834 -2.86932,-4.03178 -1.25867,-1.11345 -2.80743,-1.97215 -4.647044,-2.57729 -1.839597,-0.60513 -3.94491,-0.90729 -6.317025,-0.90729 z m 20.774179,37.87962 a 4.2923986,4.2923986 0 0 0 -4.29264,4.2927 4.2923986,4.2923986 0 0 0 4.29264,4.2925 4.2923986,4.2923986 0 0 0 4.29263,-4.2925 4.2923986,4.2923986 0 0 0 -4.29263,-4.2927 z"
       style="font-style:normal;font-variant:normal;font-weight:normal;font-stretch:normal;font-size:51.22293472px;line-height:125%;font-family:'Abyssinica SIL';-inkscape-font-specification:'Abyssinica SIL, Normal';text-align:start;letter-spacing:0px;word-spacing:0px;writing-mode:lr-tb;text-anchor:start;fill:#000000;fill-opacity:1;stroke:none;stroke-width:1px;stroke-linecap:butt;stroke-linejoin:miter;stroke-opacity:1"
       inkscape:export-xdpi="89"
       inkscape:export-ydpi="89" />
    <path
       style="font-style:normal;font-variant:normal;font-weight:normal;font-stretch:normal;font-size:51.22293472px;line-height:125%;font-family:'Abyssinica SIL';-inkscape-font-specification:'Abyssinica SIL, Normal';text-align:start;letter-spacing:0px;word-spacing:0px;writing-mode:lr-tb;text-anchor:start;fill:#808080;fill-opacity:1;stroke:none;stroke-width:1px;stroke-linecap:butt;stroke-linejoin:miter;stroke-opacity:1"
       d="m 70.602052,981.27764 c -5.083122,0 -9.004225,1.17353 -11.763633,3.52144 -2.759405,2.34792 -4.285689,5.88114 -4.576156,10.60115 l 7.953002,0 c 0.07262,-0.944 0.266555,-1.91092 0.581233,-2.90334 0.338864,-0.99241 0.822328,-1.88905 1.45167,-2.68785 0.653541,-0.82296 1.477118,-1.50038 2.469536,-2.03289 1.01662,-0.53252 2.237909,-0.79956 3.666032,-0.79956 1.403909,0 2.564765,0.24456 3.484571,0.72867 0.919808,0.45991 1.64782,1.05157 2.180337,1.77773 0.532515,0.70195 0.895112,1.47776 1.08875,2.32495 0.217853,0.82297 0.32606,1.59593 0.32606,2.32208 0,1.54915 -0.375241,3.18365 -1.12561,4.90223 -0.750367,1.69435 -2.044749,3.63095 -3.884347,5.80945 -1.839598,2.1544 -4.307494,4.6223 -7.405779,7.4058 -3.074084,2.7836 -6.947399,6.0147 -11.619031,9.694 l 0,6.5354 31.080473,0 0,-7.0798 -23.27492,0 c 3.630801,-2.4206 6.934931,-4.7199 9.912188,-6.8984 2.977259,-2.1785 5.518232,-4.3442 7.624092,-6.4984 2.13008,-2.1785 3.76457,-4.3921 4.90223,-6.6431 1.16184,-2.2753 1.7437,-4.70807 1.7437,-7.29805 0,-1.93642 -0.32746,-3.6918 -0.98101,-5.26514 -0.65355,-1.57335 -1.61064,-2.91835 -2.86932,-4.03178 -1.25867,-1.11345 -2.80743,-1.97215 -4.647041,-2.57729 -1.839599,-0.60511 -3.944911,-0.9073 -6.317027,-0.9073 z m 20.774188,37.87946 a 4.2923986,4.2923986 0 0 0 -4.29265,4.2928 4.2923986,4.2923986 0 0 0 4.29265,4.2925 4.2923986,4.2923986 0 0 0 4.29263,-4.2925 4.2923986,4.2923986 0 0 0 -4.29263,-4.2928 z"
       id="text4418"
       inkscape:connector-curvature="0"
       inkscape:export-xdpi="89"
       inkscape:export-ydpi="89" />
  </g>
</svg>
