<?xml version="1.0" encoding="UTF-8" standalone="no"?>
<!-- Created with Inkscape (http://www.inkscape.org/) -->

<svg
   xmlns:dc="http://purl.org/dc/elements/1.1/"
   xmlns:cc="http://creativecommons.org/ns#"
   xmlns:rdf="http://www.w3.org/1999/02/22-rdf-syntax-ns#"
   xmlns:svg="http://www.w3.org/2000/svg"
   xmlns="http://www.w3.org/2000/svg"
   xmlns:sodipodi="http://sodipodi.sourceforge.net/DTD/sodipodi-0.dtd"
   xmlns:inkscape="http://www.inkscape.org/namespaces/inkscape"
   width="100"
   height="100"
   viewBox="0 0 100 100"
   id="svg2"
   version="1.1"
   inkscape:version="0.91 r13725"
   sodipodi:docname="sword.svg"
   inkscape:export-filename="/home/hannes/Desktop/Studium/Internetprog/InternetprogAbschlussprojekt/maa/images/swordBlue.png"
   inkscape:export-xdpi="90"
   inkscape:export-ydpi="90">
  <defs
     id="defs4" />
  <sodipodi:namedview
     id="base"
     pagecolor="#ffffff"
     bordercolor="#666666"
     borderopacity="1.0"
     inkscape:pageopacity="0.0"
     inkscape:pageshadow="2"
     inkscape:zoom="7.71"
     inkscape:cx="30.609598"
     inkscape:cy="50.229054"
     inkscape:document-units="px"
     inkscape:current-layer="layer1"
     showgrid="false"
     units="px"
     inkscape:window-width="1680"
     inkscape:window-height="997"
     inkscape:window-x="0"
     inkscape:window-y="0"
     inkscape:window-maximized="1">
    <inkscape:grid
       type="xygrid"
       id="grid4395" />
  </sodipodi:namedview>
  <metadata
     id="metadata7">
    <rdf:RDF>
      <cc:Work
         rdf:about="">
        <dc:format>image/svg+xml</dc:format>
        <dc:type
           rdf:resource="http://purl.org/dc/dcmitype/StillImage" />
        <dc:title />
      </cc:Work>
    </rdf:RDF>
  </metadata>
  <g
     inkscape:label="Layer 1"
     inkscape:groupmode="layer"
     id="layer1"
     transform="translate(0,-952.36216)">
    <path
       style="color:#000000;font-style:normal;font-variant:normal;font-weight:normal;font-stretch:normal;font-size:medium;line-height:normal;font-family:sans-serif;text-indent:0;text-align:start;text-decoration:none;text-decoration-line:none;text-decoration-style:solid;text-decoration-color:#000000;letter-spacing:normal;word-spacing:normal;text-transform:none;direction:ltr;block-progression:tb;writing-mode:lr-tb;baseline-shift:baseline;text-anchor:start;white-space:normal;clip-rule:nonzero;display:inline;overflow:visible;visibility:visible;opacity:1;isolation:auto;mix-blend-mode:normal;color-interpolation:sRGB;color-interpolation-filters:linearRGB;solid-color:#000000;solid-opacity:1;fill:#190600;fill-opacity:1;fill-rule:evenodd;stroke:none;stroke-width:0.2;stroke-linecap:butt;stroke-linejoin:miter;stroke-miterlimit:4;stroke-dasharray:none;stroke-dashoffset:0;stroke-opacity:1;color-rendering:auto;image-rendering:auto;shape-rendering:auto;text-rendering:auto;enable-background:accumulate"
       d="m 153.59619,962.99711 c -0.009,2.69653 0.63146,4.4684 0.62304,7.13281 -0.0102,3.23436 -0.40965,6.34727 -0.41992,9.59766 -0.008,2.4802 -1.05253,4.73021 -1.06054,7.26563 -0.008,2.5744 0.89079,5.5141 0.88281,8.041 -0.009,2.8546 -1.83252,5.49149 -1.8418,8.42969 -0.004,1.2436 -0.20383,3.1446 -0.40234,5.0469 -0.19852,1.9023 -0.3964,3.8043 -0.40039,5.0684 -0.002,0.5178 0.16044,0.8979 0.40234,1.1914 0.2419,0.2934 0.55876,0.5036 0.86523,0.7089 0.30647,0.2054 0.6033,0.4067 0.82032,0.67 0.21582,0.2618 0.35539,0.5843 0.35547,1.0566 l -1.83008,6.4727 -0.67188,6.1308 2.83203,6.0938 -1.32031,8.2715 0.19727,0.031 1.33008,-8.332 -2.83399,-6.0977 0.66406,-6.0586 1.83399,-6.4922 0,-0.014 c 0.002,-0.5178 -0.16045,-0.896 -0.40235,-1.1895 -0.2419,-0.2934 -0.55681,-0.5036 -0.86328,-0.709 -0.30647,-0.2054 -0.60524,-0.4066 -0.82226,-0.6699 -0.21702,-0.2633 -0.35893,-0.5859 -0.35742,-1.0625 0.004,-1.2436 0.20187,-3.1465 0.40039,-5.0488 0.19851,-1.9024 0.39835,-3.8043 0.40234,-5.0684 0.009,-2.8546 1.83442,-5.49149 1.84375,-8.42969 0.008,-2.5744 -0.89275,-5.5141 -0.88477,-8.041 0.008,-2.48021 1.05452,-4.72826 1.0625,-7.26368 0.0102,-3.23437 0.40966,-6.34728 0.41993,-9.59766 0.009,-2.69652 -0.63147,-4.47035 -0.62305,-7.13476 l -0.20117,0 z"
       id="path4426"
       inkscape:connector-curvature="0" />
    <path
       style="color:#000000;font-style:normal;font-variant:normal;font-weight:normal;font-stretch:normal;font-size:medium;line-height:normal;font-family:sans-serif;text-indent:0;text-align:start;text-decoration:none;text-decoration-line:none;text-decoration-style:solid;text-decoration-color:#000000;letter-spacing:normal;word-spacing:normal;text-transform:none;direction:ltr;block-progression:tb;writing-mode:lr-tb;baseline-shift:baseline;text-anchor:start;white-space:normal;clip-rule:nonzero;display:inline;overflow:visible;visibility:visible;opacity:1;isolation:auto;mix-blend-mode:normal;color-interpolation:sRGB;color-interpolation-filters:linearRGB;solid-color:#000000;solid-opacity:1;fill:#341106;fill-opacity:1;fill-rule:evenodd;stroke:none;stroke-width:0.2;stroke-linecap:butt;stroke-linejoin:miter;stroke-miterlimit:4;stroke-dasharray:none;stroke-dashoffset:0;stroke-opacity:1;color-rendering:auto;image-rendering:auto;shape-rendering:auto;text-rendering:auto;enable-background:accumulate"
       d="m 156.68798,962.0889 c -0.009,2.71919 1.5396,5.39926 1.53125,8.04102 -0.005,1.60512 -0.39288,2.72457 -0.78711,3.85938 -0.39422,1.1348 -0.79365,2.28657 -0.79882,3.92382 -0.008,2.51139 0.11338,6.57585 0.10547,9.08009 -0.008,2.5744 0.89079,5.5141 0.88281,8.041 -0.009,2.8546 -1.83252,5.49149 -1.8418,8.42969 -0.004,1.2436 -0.20383,3.1446 -0.40234,5.0469 -0.19852,1.9023 -0.3964,3.8043 -0.40039,5.0684 -0.002,0.5178 0.16044,0.8979 0.40234,1.1914 0.2419,0.2934 0.55876,0.5035 0.86523,0.7089 0.30648,0.2055 0.6033,0.4067 0.82032,0.67 0.21702,0.2632 0.35892,0.5858 0.35742,1.0625 -0.003,0.8971 -0.45327,2.0505 -0.91016,3.207 -0.45689,1.1566 -0.92079,2.3172 -0.92383,3.2793 -0.006,2.0104 -0.66148,4.0408 -0.66796,6.0938 -0.004,1.1455 0.72566,2.1347 1.43554,3.1074 0.70988,0.9726 1.40179,1.929 1.39844,2.9883 -0.009,2.8673 -1.31692,5.3756 -1.32617,8.3027 l 0.20117,0 c 0.009,-2.8673 1.31492,-5.3737 1.32422,-8.3008 0.004,-1.1455 -0.72567,-2.1347 -1.43555,-3.1074 -0.70988,-0.9727 -1.39985,-1.929 -1.39648,-2.9883 0.006,-2.0104 0.6615,-4.0427 0.66797,-6.0957 0.003,-0.8971 0.45131,-2.0505 0.9082,-3.207 0.45689,-1.1566 0.92077,-2.3172 0.92383,-3.2793 0.002,-0.5178 -0.16044,-0.896 -0.40235,-1.1895 -0.2419,-0.2934 -0.55681,-0.5036 -0.86328,-0.709 -0.30647,-0.2054 -0.60524,-0.4066 -0.82226,-0.6699 -0.21702,-0.2633 -0.35893,-0.5859 -0.35742,-1.0625 0.004,-1.2436 0.20187,-3.1465 0.40039,-5.0488 0.19851,-1.9024 0.39836,-3.8043 0.40234,-5.0684 0.009,-2.8546 1.83452,-5.49149 1.84375,-8.42969 0.008,-2.5744 -0.89279,-5.5141 -0.88477,-8.041 0.008,-2.5114 -0.11335,-6.57585 -0.10546,-9.08009 0.005,-1.60512 0.39288,-2.72261 0.7871,-3.85742 0.39423,-1.1348 0.79562,-2.28658 0.80079,-3.92383 0.009,-2.71918 -1.53963,-5.39925 -1.53125,-8.04101 l -0.20118,-0.002 z"
       id="path4426-5"
       inkscape:connector-curvature="0" />
    <path
       style="color:#000000;font-style:normal;font-variant:normal;font-weight:normal;font-stretch:normal;font-size:medium;line-height:normal;font-family:sans-serif;text-indent:0;text-align:start;text-decoration:none;text-decoration-line:none;text-decoration-style:solid;text-decoration-color:#000000;letter-spacing:normal;word-spacing:normal;text-transform:none;direction:ltr;block-progression:tb;writing-mode:lr-tb;baseline-shift:baseline;text-anchor:start;white-space:normal;clip-rule:nonzero;display:inline;overflow:visible;visibility:visible;opacity:1;isolation:auto;mix-blend-mode:normal;color-interpolation:sRGB;color-interpolation-filters:linearRGB;solid-color:#000000;solid-opacity:1;fill:#190600;fill-opacity:1;fill-rule:evenodd;stroke:none;stroke-width:0.2;stroke-linecap:butt;stroke-linejoin:miter;stroke-miterlimit:4;stroke-dasharray:none;stroke-dashoffset:0;stroke-opacity:1;color-rendering:auto;image-rendering:auto;shape-rendering:auto;text-rendering:auto;enable-background:accumulate"
       d="m 165.80127,962.99711 c -0.004,1.32084 -0.39182,2.41994 -0.78516,3.5332 -0.39334,1.11326 -0.79258,2.23999 -0.79688,3.59961 -0.0102,3.23436 -0.40965,6.34727 -0.41992,9.59766 -0.008,2.4802 -1.05253,4.73021 -1.06054,7.26563 -0.008,2.5744 0.89079,5.5141 0.88281,8.041 -0.009,2.8845 -0.53574,6.03899 -0.54492,8.94729 -0.004,1.2264 -0.52411,2.9989 -1.04688,4.7715 -0.52277,1.7726 -1.04868,3.5449 -1.05273,4.8262 -0.002,0.5178 0.16044,0.8979 0.40234,1.1914 0.2419,0.2934 0.55876,0.5035 0.86523,0.7089 0.30648,0.2055 0.6033,0.4067 0.82032,0.67 0.21702,0.2632 0.35892,0.5858 0.35742,1.0625 -0.003,0.8971 -0.45327,2.0505 -0.91016,3.207 -0.45689,1.1566 -0.92079,2.3172 -0.92383,3.2793 -0.006,2.0104 -0.66148,4.0408 -0.66796,6.0938 -0.004,1.1455 0.72566,2.1347 1.43554,3.1074 0.70988,0.9726 1.40179,1.929 1.39844,2.9883 -0.009,2.8673 -1.31692,5.3756 -1.32617,8.3027 l 0.20117,0 c 0.009,-2.8673 1.31492,-5.3737 1.32422,-8.3008 0.004,-1.1455 -0.72567,-2.1347 -1.43555,-3.1074 -0.70988,-0.9727 -1.39985,-1.929 -1.39648,-2.9883 0.006,-2.0104 0.6615,-4.0427 0.66797,-6.0957 0.003,-0.8971 0.45131,-2.0505 0.9082,-3.207 0.45689,-1.1566 0.92077,-2.3172 0.92383,-3.2793 0.002,-0.5178 -0.16044,-0.896 -0.40235,-1.1895 -0.2419,-0.2934 -0.55681,-0.5036 -0.86328,-0.709 -0.30647,-0.2054 -0.60524,-0.4066 -0.82226,-0.6699 -0.21702,-0.2633 -0.35893,-0.5859 -0.35742,-1.0625 0.004,-1.2263 0.5241,-2.9988 1.04687,-4.7715 0.52277,-1.7726 1.0487,-3.5448 1.05273,-4.8261 0.009,-2.8845 0.53774,-6.04099 0.54688,-8.94929 0.008,-2.5744 -0.89279,-5.5141 -0.88477,-8.041 0.008,-2.48021 1.05452,-4.72826 1.0625,-7.26368 0.0102,-3.23437 0.40966,-6.34728 0.41993,-9.59766 0.004,-1.32084 0.39182,-2.41994 0.78515,-3.5332 0.39334,-1.11326 0.79061,-2.24194 0.79492,-3.60156 l -0.19921,0 z"
       id="path4426-9"
       inkscape:connector-curvature="0" />
    <path
       style="color:#000000;font-style:normal;font-variant:normal;font-weight:normal;font-stretch:normal;font-size:medium;line-height:normal;font-family:sans-serif;text-indent:0;text-align:start;text-decoration:none;text-decoration-line:none;text-decoration-style:solid;text-decoration-color:#000000;letter-spacing:normal;word-spacing:normal;text-transform:none;direction:ltr;block-progression:tb;writing-mode:lr-tb;baseline-shift:baseline;text-anchor:start;white-space:normal;clip-rule:nonzero;display:inline;overflow:visible;visibility:visible;opacity:1;isolation:auto;mix-blend-mode:normal;color-interpolation:sRGB;color-interpolation-filters:linearRGB;solid-color:#000000;solid-opacity:1;fill:#270b02;fill-opacity:1;fill-rule:evenodd;stroke:none;stroke-width:0.2;stroke-linecap:butt;stroke-linejoin:miter;stroke-miterlimit:4;stroke-dasharray:none;stroke-dashoffset:0;stroke-opacity:1;color-rendering:auto;image-rendering:auto;shape-rendering:auto;text-rendering:auto;enable-background:accumulate"
       d="m 161.28173,963.38578 c -0.004,1.32728 -0.2637,2.33167 -0.52734,3.34766 -0.26363,1.01598 -0.53088,2.04329 -0.53516,3.39648 -0.0102,3.23436 -0.40965,6.34727 -0.41992,9.59766 -0.008,2.50095 -0.27526,5.5283 -0.2832,8.04293 -0.008,2.554 0.11352,4.7164 0.10547,7.2637 -0.009,2.8546 -1.83252,5.49149 -1.8418,8.42969 -0.004,1.2436 -0.20383,3.1446 -0.40234,5.0469 -0.19852,1.9023 -0.3964,3.8043 -0.40039,5.0684 -0.002,0.5178 0.16044,0.8979 0.40234,1.1914 0.2419,0.2934 0.55876,0.5035 0.86523,0.7089 0.30648,0.2055 0.6033,0.4067 0.82032,0.67 0.21702,0.2632 0.35892,0.5858 0.35742,1.0625 -0.003,0.8971 -0.45327,2.0505 -0.91016,3.207 -0.45689,1.1566 -0.92079,2.3172 -0.92383,3.2793 -0.006,2.0104 -0.66148,4.0408 -0.66796,6.0938 -0.004,1.1455 0.72566,2.1347 1.43554,3.1074 0.70988,0.9726 1.40179,1.929 1.39844,2.9883 -0.009,2.8673 -1.31692,5.3756 -1.32617,8.3027 l 0.20117,0 c 0.009,-2.8673 1.31492,-5.3737 1.32422,-8.3008 0.004,-1.1455 -0.72567,-2.1347 -1.43555,-3.1074 -0.70988,-0.9727 -1.39985,-1.929 -1.39648,-2.9883 0.006,-2.0104 0.6615,-4.0427 0.66797,-6.0957 0.003,-0.8971 0.45131,-2.0505 0.9082,-3.207 0.45689,-1.1566 0.92077,-2.3172 0.92383,-3.2793 0.002,-0.5178 -0.16044,-0.896 -0.40235,-1.1895 -0.2419,-0.2934 -0.55681,-0.5036 -0.86328,-0.709 -0.30647,-0.2054 -0.60524,-0.4066 -0.82226,-0.6699 -0.21702,-0.2633 -0.35893,-0.5859 -0.35742,-1.0625 0.004,-1.2436 0.20187,-3.1465 0.40039,-5.0488 0.19851,-1.9024 0.39836,-3.8043 0.40234,-5.0684 0.009,-2.8546 1.83452,-5.49149 1.84375,-8.42969 0.008,-2.554 -0.11356,-4.7164 -0.10547,-7.2637 0.008,-2.50092 0.27528,-5.52632 0.2832,-8.04098 0.0102,-3.23437 0.40966,-6.34728 0.41993,-9.59766 0.004,-1.32728 0.26371,-2.33167 0.52734,-3.34765 0.26363,-1.01598 0.53086,-2.0433 0.53516,-3.39649 l -0.20118,-0.002 z"
       id="path4426-2"
       inkscape:connector-curvature="0" />
    <path
       style="color:#000000;font-style:normal;font-variant:normal;font-weight:normal;font-stretch:normal;font-size:medium;line-height:normal;font-family:sans-serif;text-indent:0;text-align:start;text-decoration:none;text-decoration-line:none;text-decoration-style:solid;text-decoration-color:#000000;letter-spacing:normal;word-spacing:normal;text-transform:none;direction:ltr;block-progression:tb;writing-mode:lr-tb;baseline-shift:baseline;text-anchor:start;white-space:normal;clip-rule:nonzero;display:inline;overflow:visible;visibility:visible;opacity:1;isolation:auto;mix-blend-mode:normal;color-interpolation:sRGB;color-interpolation-filters:linearRGB;solid-color:#000000;solid-opacity:1;fill:#34170e;fill-opacity:1;fill-rule:evenodd;stroke:none;stroke-width:0.2;stroke-linecap:butt;stroke-linejoin:miter;stroke-miterlimit:4;stroke-dasharray:none;stroke-dashoffset:0;stroke-opacity:1;color-rendering:auto;image-rendering:auto;shape-rendering:auto;text-rendering:auto;enable-background:accumulate"
       d="m 168.03955,961.96 c -7.2e-4,0.2218 0.10936,0.47521 0.26367,0.75586 0.15431,0.28065 0.35743,0.58579 0.5625,0.88672 0.20506,0.30092 0.41069,0.59724 0.56836,0.85547 0.15766,0.25822 0.26386,0.48311 0.27734,0.60742 0.18243,1.68161 0.5139,3.13833 0.50781,5.06445 -0.0102,3.23436 -0.40965,6.34727 -0.41992,9.59766 -0.008,2.4802 -1.05253,4.73021 -1.06054,7.26563 -0.008,2.5744 0.89079,5.5141 0.88281,8.041 -0.004,1.4094 -0.84181,3.1448 -1.68946,4.8848 -0.84764,1.73999 -1.70428,3.48369 -1.70898,4.97069 -0.008,2.5285 0.76176,6.2026 0.75391,8.6895 -0.002,0.5178 0.16044,0.8979 0.40234,1.1914 0.2419,0.2934 0.55876,0.5035 0.86523,0.7089 0.30648,0.2055 0.6033,0.4067 0.82032,0.67 0.21702,0.2632 0.35892,0.5858 0.35742,1.0625 -0.003,0.8971 -0.45327,2.0505 -0.91016,3.207 -0.45689,1.1566 -0.92079,2.3172 -0.92383,3.2793 -0.006,2.0104 -0.66148,4.0408 -0.66796,6.0938 -0.004,1.1455 0.72566,2.1347 1.43554,3.1074 0.70988,0.9726 1.40179,1.929 1.39844,2.9883 -0.009,2.8673 -1.31692,5.3756 -1.32617,8.3027 l 0.20117,0 c 0.009,-2.8673 1.31492,-5.3737 1.32422,-8.3008 0.004,-1.1455 -0.72567,-2.1347 -1.43555,-3.1074 -0.70988,-0.9727 -1.39985,-1.929 -1.39648,-2.9883 0.006,-2.0104 0.6615,-4.0427 0.66797,-6.0957 0.003,-0.8971 0.45131,-2.0505 0.9082,-3.207 0.45689,-1.1566 0.92077,-2.3172 0.92383,-3.2793 0.002,-0.5178 -0.16044,-0.896 -0.40235,-1.1895 -0.2419,-0.2934 -0.55681,-0.5036 -0.86328,-0.709 -0.30647,-0.2054 -0.60524,-0.4066 -0.82226,-0.6699 -0.21702,-0.2633 -0.35893,-0.5859 -0.35742,-1.0625 0.008,-2.5284 -0.76175,-6.2045 -0.75391,-8.6914 0.005,-1.4094 0.84181,-3.1448 1.68945,-4.8848 0.84764,-1.73999 1.70627,-3.48369 1.71094,-4.97069 0.008,-2.5744 -0.89279,-5.5141 -0.88477,-8.041 0.008,-2.48021 1.05452,-4.72826 1.0625,-7.26368 0.0102,-3.23437 0.40966,-6.34728 0.41993,-9.59766 0.006,-1.94934 -0.32882,-3.41989 -0.50977,-5.08789 -0.0213,-0.19667 -0.14211,-0.42513 -0.30469,-0.6914 -0.16258,-0.26628 -0.3699,-0.56346 -0.57422,-0.86328 -0.20431,-0.29983 -0.40676,-0.60205 -0.55468,-0.8711 -0.14793,-0.26904 -0.23681,-0.50863 -0.23633,-0.6582 l -0.20117,0 z"
       id="path4426-28"
       inkscape:connector-curvature="0" />
    <path
       style="color:#000000;font-style:normal;font-variant:normal;font-weight:normal;font-stretch:normal;font-size:medium;line-height:normal;font-family:sans-serif;text-indent:0;text-align:start;text-decoration:none;text-decoration-line:none;text-decoration-style:solid;text-decoration-color:#000000;letter-spacing:normal;word-spacing:normal;text-transform:none;direction:ltr;block-progression:tb;writing-mode:lr-tb;baseline-shift:baseline;text-anchor:start;white-space:normal;clip-rule:nonzero;display:inline;overflow:visible;visibility:visible;opacity:1;isolation:auto;mix-blend-mode:normal;color-interpolation:sRGB;color-interpolation-filters:linearRGB;solid-color:#000000;solid-opacity:1;fill:#2a0e05;fill-opacity:1;fill-rule:evenodd;stroke:none;stroke-width:0.2;stroke-linecap:butt;stroke-linejoin:miter;stroke-miterlimit:4;stroke-dasharray:none;stroke-dashoffset:0;stroke-opacity:1;color-rendering:auto;image-rendering:auto;shape-rendering:auto;text-rendering:auto;enable-background:accumulate"
       d="m 174.3208,962.47953 c -0.004,1.31441 -0.51993,2.54415 -1.04297,3.78711 -0.52304,1.24296 -1.05428,2.49722 -1.0586,3.86328 -0.0102,3.23436 -0.40965,6.34727 -0.41992,9.59766 -0.008,2.4802 -1.05253,4.73021 -1.06054,7.26563 -0.008,2.5744 0.89079,5.5141 0.88281,8.041 -0.009,2.8546 -1.83252,5.49149 -1.8418,8.42969 -0.004,1.2436 -0.20383,3.1446 -0.40234,5.0469 -0.19852,1.9023 -0.3964,3.8043 -0.40039,5.0684 -0.002,0.5178 0.16044,0.8979 0.40234,1.1914 0.2419,0.2934 0.55876,0.5035 0.86523,0.7089 0.30648,0.2055 0.6033,0.4067 0.82032,0.67 0.21702,0.2632 0.35892,0.5858 0.35742,1.0625 -0.003,0.8971 -0.45327,2.0505 -0.91016,3.207 -0.45689,1.1566 -0.92079,2.3172 -0.92383,3.2793 -0.006,2.0104 -0.66148,4.0408 -0.66796,6.0938 -0.004,1.1455 0.72566,2.1347 1.43554,3.1074 0.70988,0.9726 1.40179,1.929 1.39844,2.9883 -0.009,2.8673 -1.31692,5.3756 -1.32617,8.3027 l 0.20117,0 c 0.009,-2.8673 1.31492,-5.3737 1.32422,-8.3008 0.004,-1.1455 -0.72567,-2.1347 -1.43555,-3.1074 -0.70988,-0.9727 -1.39985,-1.929 -1.39648,-2.9883 0.006,-2.0104 0.6615,-4.0427 0.66797,-6.0957 0.003,-0.8971 0.45131,-2.0505 0.9082,-3.207 0.45689,-1.1566 0.92077,-2.3172 0.92383,-3.2793 0.002,-0.5178 -0.16044,-0.896 -0.40235,-1.1895 -0.2419,-0.2934 -0.55681,-0.5036 -0.86328,-0.709 -0.30647,-0.2054 -0.60524,-0.4066 -0.82226,-0.6699 -0.21702,-0.2633 -0.35893,-0.5859 -0.35742,-1.0625 0.004,-1.2436 0.20187,-3.1465 0.40039,-5.0488 0.19851,-1.9024 0.39836,-3.8043 0.40234,-5.0684 0.009,-2.8546 1.83452,-5.49149 1.84375,-8.42969 0.008,-2.5744 -0.89279,-5.5141 -0.88477,-8.041 0.008,-2.48021 1.05452,-4.72826 1.0625,-7.26368 0.0102,-3.23437 0.40966,-6.34728 0.41993,-9.59766 0.004,-1.31441 0.51797,-2.54415 1.04101,-3.78711 0.52304,-1.24296 1.05426,-2.49917 1.0586,-3.86523 l -0.19922,0 z"
       id="path4426-97"
       inkscape:connector-curvature="0" />
    <path
       style="color:#000000;font-style:normal;font-variant:normal;font-weight:normal;font-stretch:normal;font-size:medium;line-height:normal;font-family:sans-serif;text-indent:0;text-align:start;text-decoration:none;text-decoration-line:none;text-decoration-style:solid;text-decoration-color:#000000;letter-spacing:normal;word-spacing:normal;text-transform:none;direction:ltr;block-progression:tb;writing-mode:lr-tb;baseline-shift:baseline;text-anchor:start;white-space:normal;clip-rule:nonzero;display:inline;overflow:visible;visibility:visible;opacity:1;isolation:auto;mix-blend-mode:normal;color-interpolation:sRGB;color-interpolation-filters:linearRGB;solid-color:#000000;solid-opacity:1;fill:#190600;fill-opacity:1;fill-rule:evenodd;stroke:none;stroke-width:0.2;stroke-linecap:butt;stroke-linejoin:miter;stroke-miterlimit:4;stroke-dasharray:none;stroke-dashoffset:0;stroke-opacity:1;color-rendering:auto;image-rendering:auto;shape-rendering:auto;text-rendering:auto;enable-background:accumulate"
       d="m 179.59619,962.99711 c -0.01,2.69653 0.6315,4.4684 0.623,7.13281 -0.01,3.23436 -0.4096,6.34727 -0.4199,9.59766 -0.01,2.4802 -1.0525,4.73021 -1.0605,7.26563 0,1.2549 -0.3803,1.7798 -0.7735,2.3418 -0.3931,0.562 -0.8025,1.1593 -0.8066,2.4551 -0.01,2.8844 -0.5377,5.6521 -0.5469,8.56049 -0.01,2.5186 0.3731,10.7318 0.3653,13.2286 0,0.5178 0.1604,0.8979 0.4023,1.1914 0.2419,0.2934 0.5588,0.5035 0.8652,0.7089 0.3065,0.2055 0.6033,0.4067 0.8203,0.67 0.2171,0.2632 0.359,0.5858 0.3575,1.0625 0,0.8971 -0.4533,2.0505 -0.9102,3.207 -0.4569,1.1566 -0.9208,2.3172 -0.9238,3.2793 -0.01,2.0104 -0.6615,4.0408 -0.668,6.0938 0,1.1455 0.7257,2.1347 1.4356,3.1074 0.7098,0.9726 1.4017,1.929 1.3984,2.9883 -0.01,2.8673 -1.3169,5.3756 -1.3262,8.3027 l 0.2012,0 c 0.01,-2.8673 1.3149,-5.3737 1.3242,-8.3008 0,-1.1455 -0.7256,-2.1347 -1.4355,-3.1074 -0.7099,-0.9727 -1.3999,-1.929 -1.3965,-2.9883 0.01,-2.0104 0.6615,-4.0427 0.668,-6.0957 0,-0.8971 0.4513,-2.0505 0.9082,-3.207 0.4568,-1.1566 0.9207,-2.3172 0.9238,-3.2793 0,-0.5178 -0.1605,-0.896 -0.4024,-1.1895 -0.2419,-0.2934 -0.5568,-0.5036 -0.8632,-0.709 -0.3065,-0.2054 -0.6053,-0.4066 -0.8223,-0.6699 -0.217,-0.2633 -0.3589,-0.5859 -0.3574,-1.0625 0.01,-2.5184 -0.3731,-10.7336 -0.3653,-13.2305 0.01,-2.88449 0.5377,-5.65029 0.5469,-8.55859 0,-1.2548 0.3784,-1.7818 0.7715,-2.3437 0.3931,-0.562 0.8045,-1.1593 0.8086,-2.4551 0.01,-2.48021 1.0545,-4.72826 1.0625,-7.26368 0.01,-3.23437 0.4097,-6.34728 0.4199,-9.59766 0.01,-2.69652 -0.6315,-4.47035 -0.623,-7.13476 l -0.2012,0 z"
       id="path4426-3"
       inkscape:connector-curvature="0" />
    <path
       style="color:#000000;font-style:normal;font-variant:normal;font-weight:normal;font-stretch:normal;font-size:medium;line-height:normal;font-family:sans-serif;text-indent:0;text-align:start;text-decoration:none;text-decoration-line:none;text-decoration-style:solid;text-decoration-color:#000000;letter-spacing:normal;word-spacing:normal;text-transform:none;direction:ltr;block-progression:tb;writing-mode:lr-tb;baseline-shift:baseline;text-anchor:start;white-space:normal;clip-rule:nonzero;display:inline;overflow:visible;visibility:visible;opacity:1;isolation:auto;mix-blend-mode:normal;color-interpolation:sRGB;color-interpolation-filters:linearRGB;solid-color:#000000;solid-opacity:1;fill:#250e07;fill-opacity:1;fill-rule:evenodd;stroke:none;stroke-width:0.2;stroke-linecap:butt;stroke-linejoin:miter;stroke-miterlimit:4;stroke-dasharray:none;stroke-dashoffset:0;stroke-opacity:1;color-rendering:auto;image-rendering:auto;shape-rendering:auto;text-rendering:auto;enable-background:accumulate"
       d="m 186.58059,962.21976 c 0,1.3112 -0.584,2.60625 -1.1719,3.91407 -0.5879,1.30781 -1.1851,2.62682 -1.1895,3.99609 -0.01,3.23436 -0.4096,6.34727 -0.4199,9.59766 -0.01,2.4802 -1.0525,4.73021 -1.0605,7.26563 0,1.2448 -0.5784,2.2079 -1.166,3.1914 -0.5877,0.9835 -1.1893,1.9871 -1.1934,3.293 0,1.4646 0.3491,3.2393 0.7012,5.0117 0.3521,1.77239 0.7037,3.54289 0.6992,4.97459 0,1.2436 -0.2038,3.1446 -0.4024,5.0469 -0.1985,1.9023 -0.3963,3.8043 -0.4003,5.0684 0,0.5178 0.1604,0.8979 0.4023,1.1914 0.2419,0.2934 0.5588,0.5035 0.8652,0.7089 0.3065,0.2055 0.6033,0.4067 0.8203,0.67 0.2171,0.2632 0.359,0.5858 0.3575,1.0625 0,0.8971 -0.4533,2.0505 -0.9102,3.207 -0.4569,1.1566 -0.9208,2.3172 -0.9238,3.2793 -0.01,2.0104 -0.6615,4.0408 -0.668,6.0938 0,1.1455 0.7257,2.1347 1.4356,3.1074 0.7098,0.9726 1.4017,1.929 1.3984,2.9883 -0.01,2.8673 -1.3169,5.3756 -1.3262,8.3027 l 0.2012,0 c 0.01,-2.8673 1.3149,-5.3737 1.3242,-8.3008 0,-1.1455 -0.7256,-2.1347 -1.4355,-3.1074 -0.7099,-0.9727 -1.3999,-1.929 -1.3965,-2.9883 0.01,-2.0104 0.6615,-4.0427 0.668,-6.0957 0,-0.8971 0.4513,-2.0505 0.9082,-3.207 0.4568,-1.1566 0.9207,-2.3172 0.9238,-3.2793 0,-0.5178 -0.1605,-0.896 -0.4024,-1.1895 -0.2419,-0.2934 -0.5568,-0.5036 -0.8632,-0.709 -0.3065,-0.2054 -0.6053,-0.4066 -0.8223,-0.6699 -0.217,-0.2633 -0.3589,-0.5859 -0.3574,-1.0625 0,-1.2436 0.2018,-3.1465 0.4004,-5.0488 0.1985,-1.9024 0.3983,-3.8043 0.4023,-5.0684 0,-1.4646 -0.3491,-3.2412 -0.7012,-5.01369 -0.3521,-1.7724 -0.7037,-3.5409 -0.6992,-4.9726 0,-1.2448 0.5784,-2.2079 1.166,-3.1914 0.5877,-0.9835 1.1892,-1.9871 1.1934,-3.293 0.01,-2.48021 1.0545,-4.72826 1.0625,-7.26368 0.01,-3.23437 0.4097,-6.34728 0.4199,-9.59766 0,-1.31119 0.582,-2.6082 1.1699,-3.91601 0.5879,-1.30781 1.1851,-2.62682 1.1895,-3.9961 l -0.1992,0 z"
       id="path4426-6"
       inkscape:connector-curvature="0" />
    <path
       style="color:#000000;font-style:normal;font-variant:normal;font-weight:normal;font-stretch:normal;font-size:medium;line-height:normal;font-family:sans-serif;text-indent:0;text-align:start;text-decoration:none;text-decoration-line:none;text-decoration-style:solid;text-decoration-color:#000000;letter-spacing:normal;word-spacing:normal;text-transform:none;direction:ltr;block-progression:tb;writing-mode:lr-tb;baseline-shift:baseline;text-anchor:start;white-space:normal;clip-rule:nonzero;display:inline;overflow:visible;visibility:visible;opacity:1;isolation:auto;mix-blend-mode:normal;color-interpolation:sRGB;color-interpolation-filters:linearRGB;solid-color:#000000;solid-opacity:1;fill:#270b02;fill-opacity:1;fill-rule:evenodd;stroke:none;stroke-width:0.2;stroke-linecap:butt;stroke-linejoin:miter;stroke-miterlimit:4;stroke-dasharray:none;stroke-dashoffset:0;stroke-opacity:1;color-rendering:auto;image-rendering:auto;shape-rendering:auto;text-rendering:auto;enable-background:accumulate"
       d="m 188.68799,962.0889 c -0.01,2.71919 1.5396,5.39926 1.5312,8.04102 -0.01,3.23436 -0.4096,6.34727 -0.4199,9.59766 -0.01,2.4802 -1.0525,4.73021 -1.0605,7.26563 0,1.2992 0.4465,3.575 0.8965,5.8555 0.4499,2.2805 0.8984,4.565 0.8945,5.8164 0,0.7084 -0.1687,1.1637 -0.4141,1.50589 -0.2453,0.3421 -0.5752,0.5728 -0.9179,0.8105 -0.3428,0.2377 -0.6969,0.4829 -0.9668,0.8594 -0.27,0.3764 -0.4489,0.8832 -0.4512,1.623 0,1.2436 -0.2038,3.1446 -0.4024,5.0469 -0.1985,1.9023 -0.3963,3.8043 -0.4003,5.0684 -0.01,2.0194 0.8948,4.9166 0.8886,6.875 -0.01,1.8639 0.1172,4.1123 0.1114,5.9668 -0.01,2.0443 0.3774,3.2973 0.3711,5.3164 0,1.1238 0.3694,1.6484 0.7226,2.1347 0.3532,0.4863 0.687,0.9347 0.6836,2.0157 -0.01,2.8673 -1.3169,5.3756 -1.3262,8.3027 l 0.2012,0 c 0.01,-2.8673 1.3149,-5.3737 1.3242,-8.3008 0,-1.1238 -0.3694,-1.6485 -0.7226,-2.1348 -0.3532,-0.4863 -0.6871,-0.9346 -0.6836,-2.0156 0.01,-2.0444 -0.3755,-3.2993 -0.3692,-5.3183 0.01,-1.8639 -0.1172,-4.1104 -0.1113,-5.9649 0.01,-2.0194 -0.8968,-4.9166 -0.8906,-6.875 0,-1.2436 0.2018,-3.1465 0.4004,-5.0488 0.1985,-1.9024 0.3983,-3.8043 0.4023,-5.0684 0,-0.7083 0.1687,-1.1637 0.4141,-1.5058 0.2453,-0.3422 0.5752,-0.5748 0.9179,-0.8125 0.3428,-0.2377 0.6988,-0.481 0.9688,-0.8575 0.2699,-0.37639 0.4488,-0.88319 0.4512,-1.62299 0,-1.2992 -0.4485,-3.575 -0.8985,-5.8555 -0.4499,-2.2805 -0.8985,-4.565 -0.8945,-5.8164 0.01,-2.48021 1.0545,-4.72826 1.0625,-7.26368 0.01,-3.23437 0.4097,-6.34728 0.4199,-9.59766 0.01,-2.71918 -1.5396,-5.39925 -1.5312,-8.04101 l -0.2012,-0.002 z"
       id="path4426-1"
       inkscape:connector-curvature="0" />
    <path
       style="color:#000000;font-style:normal;font-variant:normal;font-weight:normal;font-stretch:normal;font-size:medium;line-height:normal;font-family:sans-serif;text-indent:0;text-align:start;text-decoration:none;text-decoration-line:none;text-decoration-style:solid;text-decoration-color:#000000;letter-spacing:normal;word-spacing:normal;text-transform:none;direction:ltr;block-progression:tb;writing-mode:lr-tb;baseline-shift:baseline;text-anchor:start;white-space:normal;clip-rule:nonzero;display:inline;overflow:visible;visibility:visible;opacity:1;isolation:auto;mix-blend-mode:normal;color-interpolation:sRGB;color-interpolation-filters:linearRGB;solid-color:#000000;solid-opacity:1;fill:#270e06;fill-opacity:1;fill-rule:evenodd;stroke:none;stroke-width:0.2;stroke-linecap:butt;stroke-linejoin:miter;stroke-miterlimit:4;stroke-dasharray:none;stroke-dashoffset:0;stroke-opacity:1;color-rendering:auto;image-rendering:auto;shape-rendering:auto;text-rendering:auto;enable-background:accumulate"
       d="m 212.11569,962.60844 c -0.01,2.68365 0.112,4.8442 0.1035,7.52148 -0.01,3.23436 -0.4096,6.34727 -0.4199,9.59766 0,1.2314 -0.4163,1.94068 -0.8418,2.67578 -0.4255,0.7351 -0.8631,1.49703 -0.8672,2.77344 0,1.29571 0.3825,3.12271 0.7676,4.94921 0.3851,1.8266 0.7677,3.6533 0.7637,4.9082 -0.01,2.8546 -1.8325,5.49149 -1.8418,8.42969 0,1.2436 -0.2038,3.1446 -0.4024,5.0469 -0.1985,1.9023 -0.3963,3.8043 -0.4003,5.0684 0,0.5178 0.1604,0.8979 0.4023,1.1914 0.2419,0.2934 0.5588,0.5035 0.8652,0.7089 0.3065,0.2055 0.6033,0.4067 0.8203,0.67 0.2171,0.2632 0.359,0.5858 0.3575,1.0625 0,0.8971 -0.4533,2.0505 -0.9102,3.207 -0.4569,1.1566 -0.9208,2.3172 -0.9238,3.2793 -0.01,2.0104 -0.6615,4.0408 -0.668,6.0938 0,1.1455 0.7257,2.1347 1.4356,3.1074 0.7098,0.9726 1.4017,1.929 1.3984,2.9883 -0.01,2.8673 -1.3169,5.3756 -1.3262,8.3027 l 0.2012,0 c 0.01,-2.8673 1.3149,-5.3737 1.3242,-8.3008 0,-1.1455 -0.7256,-2.1347 -1.4355,-3.1074 -0.7099,-0.9727 -1.3999,-1.929 -1.3965,-2.9883 0.01,-2.0104 0.6615,-4.0427 0.668,-6.0957 0,-0.8971 0.4513,-2.0505 0.9082,-3.207 0.4568,-1.1566 0.9207,-2.3172 0.9238,-3.2793 0,-0.5178 -0.1605,-0.896 -0.4024,-1.1895 -0.2419,-0.2934 -0.5568,-0.5036 -0.8632,-0.709 -0.3065,-0.2054 -0.6053,-0.4066 -0.8223,-0.6699 -0.217,-0.2633 -0.3589,-0.5859 -0.3574,-1.0625 0,-1.2436 0.2018,-3.1465 0.4004,-5.0488 0.1985,-1.9024 0.3983,-3.8043 0.4023,-5.0684 0.01,-2.8546 1.8344,-5.49149 1.8438,-8.42969 0,-1.2957 -0.3845,-3.1227 -0.7696,-4.9492 -0.3851,-1.8266 -0.7676,-3.6533 -0.7636,-4.90821 0,-1.23141 0.4163,-1.93873 0.8418,-2.67383 0.4254,-0.7351 0.8651,-1.49704 0.8691,-2.77344 0.01,-3.23437 0.4097,-6.34728 0.4199,-9.59766 0.01,-2.68365 -0.1139,-4.84615 -0.1055,-7.52343 l -0.1992,0 z"
       id="path4426-28-2"
       inkscape:connector-curvature="0" />
    <path
       style="color:#000000;font-style:normal;font-variant:normal;font-weight:normal;font-stretch:normal;font-size:medium;line-height:normal;font-family:sans-serif;text-indent:0;text-align:start;text-decoration:none;text-decoration-line:none;text-decoration-style:solid;text-decoration-color:#000000;letter-spacing:normal;word-spacing:normal;text-transform:none;direction:ltr;block-progression:tb;writing-mode:lr-tb;baseline-shift:baseline;text-anchor:start;white-space:normal;clip-rule:nonzero;display:inline;overflow:visible;visibility:visible;opacity:1;isolation:auto;mix-blend-mode:normal;color-interpolation:sRGB;color-interpolation-filters:linearRGB;solid-color:#000000;solid-opacity:1;fill:#39170d;fill-opacity:1;fill-rule:evenodd;stroke:none;stroke-width:0.2;stroke-linecap:butt;stroke-linejoin:miter;stroke-miterlimit:4;stroke-dasharray:none;stroke-dashoffset:0;stroke-opacity:1;color-rendering:auto;image-rendering:auto;shape-rendering:auto;text-rendering:auto;enable-background:accumulate"
       d="m 212.68799,962.0889 c -0.01,2.71919 1.5396,5.39926 1.5312,8.04102 -0.01,3.23436 -0.4096,6.34727 -0.4199,9.59766 0,1.2333 -0.394,3.00658 -0.7871,4.77929 -0.3931,1.77274 -0.7889,3.54584 -0.793,4.82034 -0.01,2.5744 0.8928,5.643 0.8848,8.1699 0,1.4332 -0.3255,2.1761 -0.6543,2.94339 -0.3288,0.7672 -0.6653,1.5602 -0.6699,3.0234 0,1.2436 -0.2038,3.1446 -0.4024,5.0469 -0.1985,1.9023 -0.3963,3.8043 -0.4003,5.0684 0,0.5178 0.1604,0.8979 0.4023,1.1914 0.2419,0.2934 0.5588,0.5035 0.8652,0.7089 0.3065,0.2055 0.6033,0.4067 0.8203,0.67 0.2171,0.2632 0.359,0.5858 0.3575,1.0625 0,0.8971 -0.4533,2.0505 -0.9102,3.207 -0.4569,1.1566 -0.9208,2.3172 -0.9238,3.2793 -0.01,2.0104 -0.6615,4.0408 -0.668,6.0938 0,1.1455 0.7257,2.1347 1.4356,3.1074 0.7098,0.9726 1.4017,1.929 1.3984,2.9883 -0.01,2.8673 -1.3169,5.3756 -1.3262,8.3027 l 0.2012,0 c 0.01,-2.8673 1.3149,-5.3737 1.3242,-8.3008 0,-1.1455 -0.7256,-2.1347 -1.4355,-3.1074 -0.7099,-0.9727 -1.3999,-1.929 -1.3965,-2.9883 0.01,-2.0104 0.6615,-4.0427 0.668,-6.0957 0,-0.8971 0.4513,-2.0505 0.9082,-3.207 0.4568,-1.1566 0.9207,-2.3172 0.9238,-3.2793 0,-0.5178 -0.1605,-0.896 -0.4024,-1.1895 -0.2419,-0.2934 -0.5568,-0.5036 -0.8632,-0.709 -0.3065,-0.2054 -0.6053,-0.4066 -0.8223,-0.6699 -0.217,-0.2633 -0.3589,-0.5859 -0.3574,-1.0625 0,-1.2436 0.2018,-3.1465 0.4004,-5.0488 0.1985,-1.9024 0.3983,-3.8043 0.4023,-5.0684 0,-1.4332 0.3255,-2.1761 0.6543,-2.9433 0.3288,-0.76729 0.6653,-1.55829 0.6699,-3.02149 0.01,-2.5745 -0.8908,-5.6451 -0.8828,-8.1719 0,-1.2333 0.3941,-3.0046 0.7871,-4.77737 0.3931,-1.77271 0.789,-3.5458 0.793,-4.82031 0.01,-3.23437 0.4097,-6.34728 0.4199,-9.59766 0.01,-2.71918 -1.5396,-5.39925 -1.5312,-8.04101 l -0.2012,-0.002 z"
       id="path4426-97-9"
       inkscape:connector-curvature="0" />
    <path
       style="color:#000000;font-style:normal;font-variant:normal;font-weight:normal;font-stretch:normal;font-size:medium;line-height:normal;font-family:sans-serif;text-indent:0;text-align:start;text-decoration:none;text-decoration-line:none;text-decoration-style:solid;text-decoration-color:#000000;letter-spacing:normal;word-spacing:normal;text-transform:none;direction:ltr;block-progression:tb;writing-mode:lr-tb;baseline-shift:baseline;text-anchor:start;white-space:normal;clip-rule:nonzero;display:inline;overflow:visible;visibility:visible;opacity:1;isolation:auto;mix-blend-mode:normal;color-interpolation:sRGB;color-interpolation-filters:linearRGB;solid-color:#000000;solid-opacity:1;fill:#3b1407;fill-opacity:1;fill-rule:evenodd;stroke:none;stroke-width:0.2;stroke-linecap:butt;stroke-linejoin:miter;stroke-miterlimit:4;stroke-dasharray:none;stroke-dashoffset:0;stroke-opacity:1;color-rendering:auto;image-rendering:auto;shape-rendering:auto;text-rendering:auto;enable-background:accumulate"
       d="m 220.68799,962.0889 c -0.01,2.71919 1.5396,5.39926 1.5312,8.04102 -0.01,3.23436 -0.4096,6.34727 -0.4199,9.59766 -0.01,2.4802 -1.0525,4.73021 -1.0605,7.26563 -0.01,2.5744 0.8908,5.5141 0.8828,8.041 -0.01,2.8546 -1.8325,5.49149 -1.8418,8.42969 0,1.2436 -0.2038,3.1446 -0.4024,5.0469 -0.1985,1.9023 -0.3963,3.8043 -0.4003,5.0684 0,0.5178 0.1604,0.8979 0.4023,1.1914 0.2419,0.2934 0.5588,0.5035 0.8652,0.7089 0.3065,0.2055 0.6033,0.4067 0.8203,0.67 0.2171,0.2632 0.359,0.5858 0.3575,1.0625 0,0.8971 -0.4533,2.0505 -0.9102,3.207 -0.4569,1.1566 -0.9208,2.3172 -0.9238,3.2793 -0.01,2.0104 -0.6615,4.0408 -0.668,6.0938 0,1.1455 0.7257,2.1347 1.4356,3.1074 0.7098,0.9726 1.4017,1.929 1.3984,2.9883 -0.01,2.8673 -1.3169,5.3756 -1.3262,8.3027 l 0.2012,0 c 0.01,-2.8673 1.3149,-5.3737 1.3242,-8.3008 0,-1.1455 -0.7256,-2.1347 -1.4355,-3.1074 -0.7099,-0.9727 -1.3999,-1.929 -1.3965,-2.9883 0.01,-2.0104 0.6615,-4.0427 0.668,-6.0957 0,-0.8971 0.4513,-2.0505 0.9082,-3.207 0.4568,-1.1566 0.9207,-2.3172 0.9238,-3.2793 0,-0.5178 -0.1605,-0.896 -0.4024,-1.1895 -0.2419,-0.2934 -0.5568,-0.5036 -0.8632,-0.709 -0.3065,-0.2054 -0.6053,-0.4066 -0.8223,-0.6699 -0.217,-0.2633 -0.3589,-0.5859 -0.3574,-1.0625 0,-1.2436 0.2018,-3.1465 0.4004,-5.0488 0.1985,-1.9024 0.3983,-3.8043 0.4023,-5.0684 0.01,-2.8546 1.8344,-5.49149 1.8438,-8.42969 0.01,-2.5744 -0.8928,-5.5141 -0.8848,-8.041 0.01,-2.48021 1.0545,-4.72826 1.0625,-7.26368 0.01,-3.23437 0.4097,-6.34728 0.4199,-9.59766 0.01,-2.71918 -1.5396,-5.39925 -1.5312,-8.04101 l -0.2012,-0.002 z"
       id="path4426-3-3"
       inkscape:connector-curvature="0" />
    <path
       style="color:#000000;font-style:normal;font-variant:normal;font-weight:normal;font-stretch:normal;font-size:medium;line-height:normal;font-family:sans-serif;text-indent:0;text-align:start;text-decoration:none;text-decoration-line:none;text-decoration-style:solid;text-decoration-color:#000000;letter-spacing:normal;word-spacing:normal;text-transform:none;direction:ltr;block-progression:tb;writing-mode:lr-tb;baseline-shift:baseline;text-anchor:start;white-space:normal;clip-rule:nonzero;display:inline;overflow:visible;visibility:visible;opacity:1;isolation:auto;mix-blend-mode:normal;color-interpolation:sRGB;color-interpolation-filters:linearRGB;solid-color:#000000;solid-opacity:1;fill:#421709;fill-opacity:1;fill-rule:evenodd;stroke:none;stroke-width:0.2;stroke-linecap:butt;stroke-linejoin:miter;stroke-miterlimit:4;stroke-dasharray:none;stroke-dashoffset:0;stroke-opacity:1;color-rendering:auto;image-rendering:auto;shape-rendering:auto;text-rendering:auto;enable-background:accumulate"
       d="m 226.76419,962.47953 c -0.01,2.66754 -0.5364,4.95699 -0.545,7.65039 -0.01,3.23436 -0.4096,6.34727 -0.4199,9.59766 -0.01,2.4802 -1.0525,4.73021 -1.0605,7.26563 0,1.3025 0.5164,2.7461 1.0312,4.1836 0.5148,1.4374 1.0235,2.8671 1.0196,4.1152 0,1.4139 -0.7419,2.7187 -1.4922,4.0372 -0.7504,1.31839 -1.5129,2.65219 -1.5176,4.13469 0,1.2746 0.3844,2.7594 0.7695,4.2403 0.3852,1.4808 0.7656,2.9563 0.7617,4.1894 -0.01,1.9932 0.1176,3.3338 0.1114,5.3184 0,0.8971 -0.4533,2.0505 -0.9102,3.207 -0.4569,1.1566 -0.9208,2.3172 -0.9238,3.2793 -0.01,2.07 1.1547,3.9714 1.1484,5.9648 -0.01,2.2362 1.0245,4.0512 1.0176,6.2247 -0.01,2.8673 -1.3169,5.3756 -1.3262,8.3027 l 0.2012,0 c 0.01,-2.8673 1.3149,-5.3737 1.3242,-8.3008 0.01,-2.2361 -1.0245,-4.0531 -1.0176,-6.2266 0.01,-2.0699 -1.1527,-3.9714 -1.1464,-5.9648 0,-0.8971 0.4513,-2.0505 0.9082,-3.207 0.4568,-1.1566 0.9207,-2.3172 0.9238,-3.2793 0.01,-1.9932 -0.1157,-3.3318 -0.1094,-5.3164 0,-1.2746 -0.3844,-2.7614 -0.7695,-4.2422 -0.3852,-1.4808 -0.7676,-2.9564 -0.7637,-4.1895 0,-1.4138 0.7418,-2.7186 1.4922,-4.03709 0.7504,-1.3185 1.5129,-2.6503 1.5176,-4.1328 0,-1.3025 -0.5165,-2.7481 -1.0313,-4.1856 -0.5148,-1.4374 -1.0235,-2.867 -1.0195,-4.1152 0.01,-2.48021 1.0545,-4.72826 1.0625,-7.26368 0.01,-3.23437 0.4097,-6.34728 0.4199,-9.59766 0.01,-2.66753 0.5344,-4.95894 0.543,-7.65234 l -0.1992,0 z"
       id="path4426-6-1"
       inkscape:connector-curvature="0" />
    <path
       style="color:#000000;font-style:normal;font-variant:normal;font-weight:normal;font-stretch:normal;font-size:medium;line-height:normal;font-family:sans-serif;text-indent:0;text-align:start;text-decoration:none;text-decoration-line:none;text-decoration-style:solid;text-decoration-color:#000000;letter-spacing:normal;word-spacing:normal;text-transform:none;direction:ltr;block-progression:tb;writing-mode:lr-tb;baseline-shift:baseline;text-anchor:start;white-space:normal;clip-rule:nonzero;display:inline;overflow:visible;visibility:visible;opacity:1;isolation:auto;mix-blend-mode:normal;color-interpolation:sRGB;color-interpolation-filters:linearRGB;solid-color:#000000;solid-opacity:1;fill:#381408;fill-opacity:1;fill-rule:evenodd;stroke:none;stroke-width:0.2;stroke-linecap:butt;stroke-linejoin:miter;stroke-miterlimit:4;stroke-dasharray:none;stroke-dashoffset:0;stroke-opacity:1;color-rendering:auto;image-rendering:auto;shape-rendering:auto;text-rendering:auto;enable-background:accumulate"
       d="m 230.68799,962.0889 c -0.01,2.71919 1.5396,5.39926 1.5312,8.04102 -0.01,3.23436 -0.4096,6.34727 -0.4199,9.59766 0,1.22962 -0.4288,1.59111 -0.8867,2.00195 -0.4579,0.41084 -0.9491,0.87221 -0.9531,2.15039 0,1.2975 0.4165,3.44489 0.834,5.59569 0.4175,2.1508 0.832,4.3055 0.8281,5.5586 0,1.4645 0.3588,2.2261 0.7109,2.961 0.3521,0.7348 0.694,1.4411 0.6895,2.87299 0,1.2264 -0.5241,3.3609 -1.0469,5.4903 -0.5228,2.1293 -1.0487,4.2539 -1.0527,5.5351 -0.01,2.0062 0.5062,3.3468 0.5,5.3184 -0.01,1.8688 0.248,6.9708 0.2422,8.8203 0,0.4855 -0.1622,0.8172 -0.4063,1.0918 -0.2441,0.2746 -0.5778,0.489 -0.9199,0.7051 -0.3421,0.2161 -0.6912,0.4347 -0.961,0.7382 -0.2697,0.3035 -0.4553,0.6943 -0.457,1.2247 0,1.1455 0.7257,2.1347 1.4356,3.1074 0.7098,0.9726 1.4017,1.929 1.3984,2.9883 -0.01,2.8673 -1.3169,5.3756 -1.3262,8.3027 l 0.2012,0 c 0.01,-2.8673 1.3149,-5.3737 1.3242,-8.3008 0,-1.1455 -0.7256,-2.1347 -1.4355,-3.1074 -0.7099,-0.9727 -1.3999,-1.929 -1.3965,-2.9883 0,-0.4855 0.1602,-0.8191 0.4043,-1.0937 0.2441,-0.2747 0.5778,-0.4871 0.9199,-0.7032 0.3421,-0.2161 0.6931,-0.4348 0.9629,-0.7383 0.2698,-0.3034 0.4534,-0.6962 0.4551,-1.2265 0.01,-1.8689 -0.2481,-6.9708 -0.2422,-8.8203 0.01,-2.0062 -0.5063,-3.3449 -0.5,-5.3164 0,-1.2264 0.5241,-3.361 1.0469,-5.4903 0.5227,-2.1293 1.0487,-4.2538 1.0527,-5.5351 0,-1.46459 -0.3569,-2.22609 -0.709,-2.96099 -0.3521,-0.7348 -0.694,-1.4431 -0.6894,-2.875 0,-1.2975 -0.4165,-3.4449 -0.834,-5.5957 -0.4175,-2.1508 -0.8321,-4.30545 -0.8281,-5.55859 0,-1.22963 0.4287,-1.59111 0.8867,-2.00195 0.4579,-0.41085 0.9491,-0.87026 0.9531,-2.14844 0.01,-3.23437 0.4097,-6.34728 0.4199,-9.59766 0.01,-2.71918 -1.5396,-5.39925 -1.5312,-8.04101 l -0.2012,-0.002 z"
       id="path4426-1-9"
       inkscape:connector-curvature="0" />
    <path
       style="color:#000000;font-style:normal;font-variant:normal;font-weight:normal;font-stretch:normal;font-size:medium;line-height:normal;font-family:sans-serif;text-indent:0;text-align:start;text-decoration:none;text-decoration-line:none;text-decoration-style:solid;text-decoration-color:#000000;letter-spacing:normal;word-spacing:normal;text-transform:none;direction:ltr;block-progression:tb;writing-mode:lr-tb;baseline-shift:baseline;text-anchor:start;white-space:normal;clip-rule:nonzero;display:inline;overflow:visible;visibility:visible;opacity:1;isolation:auto;mix-blend-mode:normal;color-interpolation:sRGB;color-interpolation-filters:linearRGB;solid-color:#000000;solid-opacity:1;fill:#251510;fill-opacity:1;fill-rule:evenodd;stroke:none;stroke-width:0.2;stroke-linecap:butt;stroke-linejoin:miter;stroke-miterlimit:4;stroke-dasharray:none;stroke-dashoffset:0;stroke-opacity:1;color-rendering:auto;image-rendering:auto;shape-rendering:auto;text-rendering:auto;enable-background:accumulate"
       d="m 193.26219,962.34867 c 0,1.37732 0.7506,2.66602 1.4922,3.94141 0.7416,1.27538 1.469,2.53669 1.4648,3.83984 -0.01,3.23436 -0.4096,6.34727 -0.4199,9.59766 -0.01,2.4802 -1.0525,4.73021 -1.0605,7.26563 -0.01,2.5744 0.8908,5.5141 0.8828,8.041 -0.01,2.8546 -1.8325,5.49149 -1.8418,8.42969 0,1.2436 -0.2038,3.1446 -0.4024,5.0469 -0.1985,1.9023 -0.3963,3.8043 -0.4003,5.0684 0,0.5178 0.1604,0.8979 0.4023,1.1914 0.2419,0.2934 0.5588,0.5035 0.8652,0.7089 0.3065,0.2055 0.6033,0.4067 0.8203,0.67 0.2171,0.2632 0.359,0.5858 0.3575,1.0625 0,0.9552 0.3572,1.9587 0.7109,2.9531 0.3538,0.9944 0.7001,1.9808 0.6973,2.8848 0,0.952 -0.9557,2.1286 -1.9317,3.3066 -0.9759,1.178 -1.9751,2.3559 -1.9785,3.4356 0,1.1455 0.7257,2.1347 1.4356,3.1074 0.7098,0.9726 1.4017,1.929 1.3984,2.9883 -0.01,2.8673 -1.3169,5.3756 -1.3262,8.3027 l 0.2012,0 c 0.01,-2.8673 1.3149,-5.3737 1.3242,-8.3008 0,-1.1455 -0.7256,-2.1347 -1.4355,-3.1074 -0.7099,-0.9727 -1.3999,-1.929 -1.3965,-2.9883 0,-0.952 0.9557,-2.1306 1.9316,-3.3086 0.976,-1.178 1.9751,-2.3559 1.9785,-3.4355 0,-0.9552 -0.3571,-1.9587 -0.7109,-2.9532 -0.3537,-0.9944 -0.7021,-1.9807 -0.6992,-2.8847 0,-0.5178 -0.1605,-0.896 -0.4024,-1.1895 -0.2419,-0.2934 -0.5568,-0.5036 -0.8632,-0.709 -0.3065,-0.2054 -0.6053,-0.4066 -0.8223,-0.6699 -0.217,-0.2633 -0.3589,-0.5859 -0.3574,-1.0625 0,-1.2436 0.2018,-3.1465 0.4004,-5.0488 0.1985,-1.9024 0.3983,-3.8043 0.4023,-5.0684 0.01,-2.8546 1.8344,-5.49149 1.8438,-8.42969 0.01,-2.5744 -0.8928,-5.5141 -0.8848,-8.041 0.01,-2.48021 1.0545,-4.72826 1.0625,-7.26368 0.01,-3.23437 0.4097,-6.34728 0.4199,-9.59766 0,-1.37732 -0.7526,-2.66602 -1.4941,-3.9414 -0.7416,-1.27539 -1.469,-2.53865 -1.4649,-3.8418 l -0.1992,0 z"
       id="path4426-28-4"
       inkscape:connector-curvature="0" />
    <path
       style="color:#000000;font-style:normal;font-variant:normal;font-weight:normal;font-stretch:normal;font-size:medium;line-height:normal;font-family:sans-serif;text-indent:0;text-align:start;text-decoration:none;text-decoration-line:none;text-decoration-style:solid;text-decoration-color:#000000;letter-spacing:normal;word-spacing:normal;text-transform:none;direction:ltr;block-progression:tb;writing-mode:lr-tb;baseline-shift:baseline;text-anchor:start;white-space:normal;clip-rule:nonzero;display:inline;overflow:visible;visibility:visible;opacity:1;isolation:auto;mix-blend-mode:normal;color-interpolation:sRGB;color-interpolation-filters:linearRGB;solid-color:#000000;solid-opacity:1;fill:#2f1108;fill-opacity:1;fill-rule:evenodd;stroke:none;stroke-width:0.2;stroke-linecap:butt;stroke-linejoin:miter;stroke-miterlimit:4;stroke-dasharray:none;stroke-dashoffset:0;stroke-opacity:1;color-rendering:auto;image-rendering:auto;shape-rendering:auto;text-rendering:auto;enable-background:accumulate"
       d="m 200.45089,962.34904 c 0,1.31118 -0.584,2.50821 -1.1719,3.71875 -0.5879,1.21053 -1.1851,2.43344 -1.1895,3.80273 -0.01,3.23436 -0.4096,6.34727 -0.4199,9.59766 -0.01,2.4802 -1.0525,4.73021 -1.0605,7.26563 -0.01,2.5744 0.8908,5.5141 0.8828,8.041 -0.01,2.8546 -1.8325,5.49149 -1.8418,8.42969 0,1.2436 -0.2038,3.1446 -0.4024,5.0469 -0.1985,1.9023 -0.3964,3.8043 -0.4003,5.0684 0,0.5178 0.1604,0.8979 0.4023,1.1914 0.2419,0.2934 0.5588,0.5035 0.8652,0.7089 0.3065,0.2055 0.6033,0.4067 0.8203,0.67 0.2171,0.2632 0.359,0.5858 0.3575,1.0625 -0.01,1.8686 0.248,4.5056 0.2422,6.3554 0,0.9712 -0.6714,2.0104 -1.3555,3.0586 -0.6842,1.0483 -1.3853,2.1055 -1.3887,3.1661 0,1.1455 0.7257,2.1347 1.4356,3.1074 0.7098,0.9726 1.4017,1.929 1.3984,2.9883 -0.01,2.8673 -1.3169,5.3756 -1.3262,8.3027 l 0.2012,0 c 0.01,-2.8673 1.3149,-5.3737 1.3242,-8.3008 0,-1.1455 -0.7256,-2.1347 -1.4355,-3.1074 -0.7099,-0.9727 -1.3999,-1.929 -1.3965,-2.9883 0,-0.9712 0.6713,-2.0103 1.3555,-3.0586 0.6841,-1.0483 1.3833,-2.1055 1.3867,-3.166 0.01,-1.8686 -0.2481,-4.5076 -0.2422,-6.3574 0,-0.5178 -0.1605,-0.896 -0.4024,-1.1895 -0.2419,-0.2934 -0.5568,-0.5036 -0.8632,-0.709 -0.3065,-0.2054 -0.6053,-0.4066 -0.8223,-0.6699 -0.217,-0.2633 -0.3589,-0.5859 -0.3574,-1.0625 0,-1.2436 0.2018,-3.1465 0.4004,-5.0488 0.1985,-1.9024 0.3983,-3.8043 0.4023,-5.0684 0.01,-2.8546 1.8344,-5.49149 1.8438,-8.42969 0.01,-2.5744 -0.8928,-5.5141 -0.8848,-8.041 0.01,-2.48021 1.0545,-4.72826 1.0625,-7.26368 0.01,-3.23437 0.4096,-6.34728 0.4199,-9.59766 0,-1.31118 0.582,-2.50821 1.1699,-3.71875 0.5879,-1.21053 1.1851,-2.4354 1.1895,-3.80468 l -0.1992,0 z"
       id="path4426-97-7"
       inkscape:connector-curvature="0" />
    <path
       style="color:#000000;font-style:normal;font-variant:normal;font-weight:normal;font-stretch:normal;font-size:medium;line-height:normal;font-family:sans-serif;text-indent:0;text-align:start;text-decoration:none;text-decoration-line:none;text-decoration-style:solid;text-decoration-color:#000000;letter-spacing:normal;word-spacing:normal;text-transform:none;direction:ltr;block-progression:tb;writing-mode:lr-tb;baseline-shift:baseline;text-anchor:start;white-space:normal;clip-rule:nonzero;display:inline;overflow:visible;visibility:visible;opacity:1;isolation:auto;mix-blend-mode:normal;color-interpolation:sRGB;color-interpolation-filters:linearRGB;solid-color:#000000;solid-opacity:1;fill:#190600;fill-opacity:1;fill-rule:evenodd;stroke:none;stroke-width:0.2;stroke-linecap:butt;stroke-linejoin:miter;stroke-miterlimit:4;stroke-dasharray:none;stroke-dashoffset:0;stroke-opacity:1;color-rendering:auto;image-rendering:auto;shape-rendering:auto;text-rendering:auto;enable-background:accumulate"
       d="m 204.68799,962.0889 c -0.01,2.71919 1.5396,5.39926 1.5312,8.04102 -0.01,3.23436 -0.4096,6.34727 -0.4199,9.59766 -0.01,2.4802 -1.0525,4.73021 -1.0605,7.26563 -0.01,2.5744 0.8908,5.5141 0.8828,8.041 -0.01,2.8546 -1.8325,5.49149 -1.8418,8.42969 0,1.2436 -0.2038,3.1446 -0.4024,5.0469 -0.1985,1.9023 -0.3963,3.8043 -0.4003,5.0684 0,0.5178 0.1604,0.8979 0.4023,1.1914 0.2419,0.2934 0.5588,0.5035 0.8652,0.7089 0.3065,0.2055 0.6033,0.4067 0.8203,0.67 0.2171,0.2632 0.359,0.5858 0.3575,1.0625 0,0.8971 -0.4533,2.0505 -0.9102,3.207 -0.4569,1.1566 -0.9208,2.3172 -0.9238,3.2793 -0.01,2.0104 -0.6615,4.0408 -0.668,6.0938 0,1.1455 0.7257,2.1347 1.4356,3.1074 0.7098,0.9726 1.4017,1.929 1.3984,2.9883 -0.01,2.8673 -1.3169,5.3756 -1.3262,8.3027 l 0.2012,0 c 0.01,-2.8673 1.3149,-5.3737 1.3242,-8.3008 0,-1.1455 -0.7256,-2.1347 -1.4355,-3.1074 -0.7099,-0.9727 -1.3999,-1.929 -1.3965,-2.9883 0.01,-2.0104 0.6615,-4.0427 0.668,-6.0957 0,-0.8971 0.4513,-2.0505 0.9082,-3.207 0.4568,-1.1566 0.9207,-2.3172 0.9238,-3.2793 0,-0.5178 -0.1605,-0.896 -0.4024,-1.1895 -0.2419,-0.2934 -0.5568,-0.5036 -0.8632,-0.709 -0.3065,-0.2054 -0.6053,-0.4066 -0.8223,-0.6699 -0.217,-0.2633 -0.3589,-0.5859 -0.3574,-1.0625 0,-1.2436 0.2018,-3.1465 0.4004,-5.0488 0.1985,-1.9024 0.3983,-3.8043 0.4023,-5.0684 0.01,-2.8546 1.8344,-5.49149 1.8438,-8.42969 0.01,-2.5744 -0.8928,-5.5141 -0.8848,-8.041 0.01,-2.48021 1.0545,-4.72826 1.0625,-7.26368 0.01,-3.23437 0.4097,-6.34728 0.4199,-9.59766 0.01,-2.71918 -1.5396,-5.39925 -1.5312,-8.04101 l -0.2012,-0.002 z"
       id="path4426-3-8"
       inkscape:connector-curvature="0" />
    <path
       style="color:#000000;font-style:normal;font-variant:normal;font-weight:normal;font-stretch:normal;font-size:medium;line-height:normal;font-family:sans-serif;text-indent:0;text-align:start;text-decoration:none;text-decoration-line:none;text-decoration-style:solid;text-decoration-color:#000000;letter-spacing:normal;word-spacing:normal;text-transform:none;direction:ltr;block-progression:tb;writing-mode:lr-tb;baseline-shift:baseline;text-anchor:start;white-space:normal;clip-rule:nonzero;display:inline;overflow:visible;visibility:visible;opacity:1;isolation:auto;mix-blend-mode:normal;color-interpolation:sRGB;color-interpolation-filters:linearRGB;solid-color:#000000;solid-opacity:1;fill:#28140d;fill-opacity:1;fill-rule:evenodd;stroke:none;stroke-width:0.2;stroke-linecap:butt;stroke-linejoin:miter;stroke-miterlimit:4;stroke-dasharray:none;stroke-dashoffset:0;stroke-opacity:1;color-rendering:auto;image-rendering:auto;shape-rendering:auto;text-rendering:auto;enable-background:accumulate"
       d="m 207.13139,962.21976 c 0,1.37894 0.7846,2.69805 1.5585,4.00586 0.774,1.30782 1.5335,2.60277 1.5293,3.9043 -0.01,3.23436 -0.4096,6.34727 -0.4199,9.59766 0,0.61308 -0.1277,0.99846 -0.3125,1.27929 -0.1848,0.28084 -0.4339,0.46314 -0.6953,0.65235 -0.2614,0.18921 -0.5359,0.38667 -0.7441,0.70312 -0.2083,0.31646 -0.3437,0.7459 -0.3457,1.38672 -0.01,2.55745 0.2424,5.62805 0.2343,8.17185 -0.01,2.8936 -0.1471,8.64379 -0.1562,11.54299 0,1.2436 -0.2038,3.1446 -0.4024,5.0469 -0.1985,1.9023 -0.3963,3.8043 -0.4003,5.0684 0,0.5178 0.1604,0.8979 0.4023,1.1914 0.2419,0.2934 0.5588,0.5035 0.8652,0.7089 0.3065,0.2055 0.6033,0.4067 0.8203,0.67 0.2171,0.2632 0.359,0.5858 0.3575,1.0625 0,0.8971 -0.4533,2.0505 -0.9102,3.207 -0.4569,1.1566 -0.9208,2.3172 -0.9238,3.2793 -0.01,2.0104 -0.6615,4.0408 -0.668,6.0938 0,1.1455 0.7257,2.1347 1.4356,3.1074 0.7098,0.9726 1.4017,1.929 1.3984,2.9883 -0.01,2.8673 -1.3169,5.3756 -1.3262,8.3027 l 0.2012,0 c 0.01,-2.8673 1.3149,-5.3737 1.3242,-8.3008 0,-1.1455 -0.7256,-2.1347 -1.4355,-3.1074 -0.7099,-0.9727 -1.3999,-1.929 -1.3965,-2.9883 0.01,-2.0104 0.6615,-4.0427 0.668,-6.0957 0,-0.8971 0.4513,-2.0505 0.9082,-3.207 0.4568,-1.1566 0.9207,-2.3172 0.9238,-3.2793 0,-0.5178 -0.1605,-0.896 -0.4024,-1.1895 -0.2419,-0.2934 -0.5568,-0.5036 -0.8632,-0.709 -0.3065,-0.2054 -0.6053,-0.4066 -0.8223,-0.6699 -0.217,-0.2633 -0.3589,-0.5859 -0.3574,-1.0625 0,-1.2436 0.2018,-3.1465 0.4004,-5.0488 0.1985,-1.9024 0.3983,-3.8043 0.4023,-5.0684 0.01,-2.8936 0.1471,-8.64379 0.1563,-11.54299 0.01,-2.5574 -0.2425,-5.6261 -0.2344,-8.1699 0,-0.61308 0.1296,-0.99846 0.3144,-1.27929 0.1849,-0.28084 0.432,-0.46118 0.6934,-0.65039 0.2614,-0.18921 0.5359,-0.38667 0.7441,-0.70313 0.2083,-0.31645 0.3457,-0.74785 0.3477,-1.38867 0.01,-3.23437 0.4097,-6.34728 0.4199,-9.59766 0,-1.37894 -0.7846,-2.7 -1.5586,-4.00781 -0.774,-1.30781 -1.5334,-2.60277 -1.5293,-3.9043 l -0.2011,0 z"
       id="path4426-6-4"
       inkscape:connector-curvature="0" />
    <path
       style="color:#000000;font-style:normal;font-variant:normal;font-weight:normal;font-stretch:normal;font-size:medium;line-height:normal;font-family:sans-serif;text-indent:0;text-align:start;text-decoration:none;text-decoration-line:none;text-decoration-style:solid;text-decoration-color:#000000;letter-spacing:normal;word-spacing:normal;text-transform:none;direction:ltr;block-progression:tb;writing-mode:lr-tb;baseline-shift:baseline;text-anchor:start;white-space:normal;clip-rule:nonzero;display:inline;overflow:visible;visibility:visible;opacity:1;isolation:auto;mix-blend-mode:normal;color-interpolation:sRGB;color-interpolation-filters:linearRGB;solid-color:#000000;solid-opacity:1;fill:#36170d;fill-opacity:1;fill-rule:evenodd;stroke:none;stroke-width:0.2;stroke-linecap:butt;stroke-linejoin:miter;stroke-miterlimit:4;stroke-dasharray:none;stroke-dashoffset:0;stroke-opacity:1;color-rendering:auto;image-rendering:auto;shape-rendering:auto;text-rendering:auto;enable-background:accumulate"
       d="m 216.24459,962.60844 c -0.01,2.68043 -0.017,4.84097 -0.025,7.52148 -0.01,3.23436 -0.4096,6.34727 -0.4199,9.59766 -0.01,2.4802 -1.0525,4.73021 -1.0605,7.26563 0,1.3126 0.7203,2.4415 1.4297,3.5547 0.7093,1.1132 1.4023,2.2092 1.3984,3.4473 0,1.4049 -0.936,3.0428 -1.8809,4.6855 -0.9449,1.64279 -1.9015,3.29179 -1.9062,4.78319 0,1.2436 -0.2038,3.1446 -0.4024,5.0469 -0.1985,1.9023 -0.3963,3.8043 -0.4003,5.0684 0,0.5178 0.1604,0.8979 0.4023,1.1914 0.2419,0.2934 0.5588,0.5035 0.8652,0.7089 0.3065,0.2055 0.6033,0.4067 0.8203,0.67 0.2171,0.2632 0.359,0.5858 0.3575,1.0625 0,0.8971 -0.4533,2.0505 -0.9102,3.207 -0.4569,1.1566 -0.9208,2.3172 -0.9238,3.2793 -0.01,2.0104 -0.6615,4.0408 -0.668,6.0938 0,1.1455 0.7257,2.1347 1.4356,3.1074 0.7098,0.9726 1.4017,1.929 1.3984,2.9883 -0.01,2.8673 -1.3169,5.3756 -1.3262,8.3027 l 0.2012,0 c 0.01,-2.8673 1.3149,-5.3737 1.3242,-8.3008 0,-1.1455 -0.7256,-2.1347 -1.4355,-3.1074 -0.7099,-0.9727 -1.3999,-1.929 -1.3965,-2.9883 0.01,-2.0104 0.6615,-4.0427 0.668,-6.0957 0,-0.8971 0.4513,-2.0505 0.9082,-3.207 0.4568,-1.1566 0.9207,-2.3172 0.9238,-3.2793 0,-0.5178 -0.1605,-0.896 -0.4024,-1.1895 -0.2419,-0.2934 -0.5568,-0.5036 -0.8632,-0.709 -0.3065,-0.2054 -0.6053,-0.4066 -0.8223,-0.6699 -0.217,-0.2633 -0.3589,-0.5859 -0.3574,-1.0625 0,-1.2436 0.2018,-3.1465 0.4004,-5.0488 0.1985,-1.9024 0.3983,-3.8043 0.4023,-5.0684 0,-1.4049 0.936,-3.0408 1.8809,-4.68359 0.9449,-1.6427 1.9034,-3.2918 1.9082,-4.7832 0,-1.3126 -0.7223,-2.4434 -1.4317,-3.5566 -0.7093,-1.1132 -1.4023,-2.2092 -1.3984,-3.4473 0.01,-2.48021 1.0545,-4.72826 1.0625,-7.26368 0.01,-3.23437 0.4097,-6.34728 0.4199,-9.59766 0.01,-2.68043 0.017,-4.84292 0.025,-7.52343 l -0.2012,0 z"
       id="path4426-1-5"
       inkscape:connector-curvature="0" />
    <path
       style="color:#000000;font-style:normal;font-variant:normal;font-weight:normal;font-stretch:normal;font-size:medium;line-height:normal;font-family:sans-serif;text-indent:0;text-align:start;text-decoration:none;text-decoration-line:none;text-decoration-style:solid;text-decoration-color:#000000;letter-spacing:normal;word-spacing:normal;text-transform:none;direction:ltr;block-progression:tb;writing-mode:lr-tb;baseline-shift:baseline;text-anchor:start;white-space:normal;clip-rule:nonzero;display:inline;overflow:visible;visibility:visible;opacity:1;isolation:auto;mix-blend-mode:normal;color-interpolation:sRGB;color-interpolation-filters:linearRGB;solid-color:#000000;solid-opacity:1;fill:#190600;fill-opacity:1;fill-rule:evenodd;stroke:none;stroke-width:0.2;stroke-linecap:butt;stroke-linejoin:miter;stroke-miterlimit:4;stroke-dasharray:none;stroke-dashoffset:0;stroke-opacity:1;color-rendering:auto;image-rendering:auto;shape-rendering:auto;text-rendering:auto;enable-background:accumulate"
       d="m 175.40087,972.98539 c -0.65032,1.10194 -1.32105,2.2262 -1.3789,3.6543 -0.0618,1.525 0.23673,2.56155 1.05664,3.91015 l 0.16992,-0.10351 c -0.80773,-1.32858 -1.08793,-2.3029 -1.02734,-3.79883 0.0555,-1.36987 0.70104,-2.45827 1.35156,-3.56055 l -0.17188,-0.10156 z"
       id="path4619"
       inkscape:connector-curvature="0" />
    <path
       style="color:#000000;font-style:normal;font-variant:normal;font-weight:normal;font-stretch:normal;font-size:medium;line-height:normal;font-family:sans-serif;text-indent:0;text-align:start;text-decoration:none;text-decoration-line:none;text-decoration-style:solid;text-decoration-color:#000000;letter-spacing:normal;word-spacing:normal;text-transform:none;direction:ltr;block-progression:tb;writing-mode:lr-tb;baseline-shift:baseline;text-anchor:start;white-space:normal;clip-rule:nonzero;display:inline;overflow:visible;visibility:visible;opacity:1;isolation:auto;mix-blend-mode:normal;color-interpolation:sRGB;color-interpolation-filters:linearRGB;solid-color:#000000;solid-opacity:1;fill:#190600;fill-opacity:1;fill-rule:evenodd;stroke:none;stroke-width:0.2;stroke-linecap:butt;stroke-linejoin:miter;stroke-miterlimit:4;stroke-dasharray:none;stroke-dashoffset:0;stroke-opacity:1;color-rendering:auto;image-rendering:auto;shape-rendering:auto;text-rendering:auto;enable-background:accumulate"
       d="m 175.54345,973.03812 -0.18164,0.084 c 0.57755,1.2373 1.31038,2.25274 1.24418,3.61328 -0.073,1.49055 -0.59059,2.99142 -1.5391,3.61133 l 0.10938,0.16797 c 1.04222,-0.68117 1.55442,-2.24024 1.62892,-3.76953 0.07,-1.43641 -0.69419,-2.49116 -1.26174,-3.70704 z"
       id="path4619-5"
       inkscape:connector-curvature="0" />
    <path
       style="color:#000000;font-style:normal;font-variant:normal;font-weight:normal;font-stretch:normal;font-size:medium;line-height:normal;font-family:sans-serif;text-indent:0;text-align:start;text-decoration:none;text-decoration-line:none;text-decoration-style:solid;text-decoration-color:#000000;letter-spacing:normal;word-spacing:normal;text-transform:none;direction:ltr;block-progression:tb;writing-mode:lr-tb;baseline-shift:baseline;text-anchor:start;white-space:normal;clip-rule:nonzero;display:inline;overflow:visible;visibility:visible;opacity:1;isolation:auto;mix-blend-mode:normal;color-interpolation:sRGB;color-interpolation-filters:linearRGB;solid-color:#000000;solid-opacity:1;fill:#190600;fill-opacity:1;fill-rule:evenodd;stroke:none;stroke-width:0.2;stroke-linecap:butt;stroke-linejoin:miter;stroke-miterlimit:4;stroke-dasharray:none;stroke-dashoffset:0;stroke-opacity:1;color-rendering:auto;image-rendering:auto;shape-rendering:auto;text-rendering:auto;enable-background:accumulate"
       d="m 185.46529,990.69631 c -0.6925,0.4725 -1.1481,0.8888 -1.4316,1.4024 -0.2836,0.5135 -0.3892,1.1155 -0.4043,1.9433 l 0,0.016 0,0.014 c 0.4998,1.7233 1.1536,3.5675 1.5723,5.2793 l 0.1953,-0.049 c -0.4207,-1.72 -1.0736,-3.556 -1.5703,-5.2656 0.016,-0.8056 0.1184,-1.368 0.3789,-1.8399 0.2619,-0.4743 0.6881,-0.8693 1.3691,-1.334 l -0.1133,-0.166 z"
       id="path4636"
       inkscape:connector-curvature="0" />
    <path
       style="color:#000000;font-style:normal;font-variant:normal;font-weight:normal;font-stretch:normal;font-size:medium;line-height:normal;font-family:sans-serif;text-indent:0;text-align:start;text-decoration:none;text-decoration-line:none;text-decoration-style:solid;text-decoration-color:#000000;letter-spacing:normal;word-spacing:normal;text-transform:none;direction:ltr;block-progression:tb;writing-mode:lr-tb;baseline-shift:baseline;text-anchor:start;white-space:normal;clip-rule:nonzero;display:inline;overflow:visible;visibility:visible;opacity:1;isolation:auto;mix-blend-mode:normal;color-interpolation:sRGB;color-interpolation-filters:linearRGB;solid-color:#000000;solid-opacity:1;fill:#190600;fill-opacity:1;fill-rule:evenodd;stroke:none;stroke-width:0.2;stroke-linecap:butt;stroke-linejoin:miter;stroke-miterlimit:4;stroke-dasharray:none;stroke-dashoffset:0;stroke-opacity:1;color-rendering:auto;image-rendering:auto;shape-rendering:auto;text-rendering:auto;enable-background:accumulate"
       d="m 185.51419,990.71781 -0.078,0.1856 c 0.8195,0.3499 2.0018,1.3724 2.2852,3.25 0.1861,1.233 0.3703,3.4066 0.2461,4.4101 -0.022,0.1743 -0.1734,0.3071 -0.4277,0.4102 -0.2544,0.1031 -0.5966,0.1639 -0.9375,0.1973 -0.682,0.067 -1.3555,0.023 -1.3555,0.023 l -0.012,0.2012 c 0,0 0.6837,0.043 1.3867,-0.025 0.3515,-0.034 0.7084,-0.095 0.9941,-0.211 0.2858,-0.1158 0.515,-0.2965 0.5489,-0.5703 0.1313,-1.061 -0.058,-3.2173 -0.2461,-4.4648 -0.294,-1.948 -1.5194,-3.0284 -2.4043,-3.4063 z"
       id="path4638"
       inkscape:connector-curvature="0" />
    <path
       style="color:#000000;font-style:normal;font-variant:normal;font-weight:normal;font-stretch:normal;font-size:medium;line-height:normal;font-family:sans-serif;text-indent:0;text-align:start;text-decoration:none;text-decoration-line:none;text-decoration-style:solid;text-decoration-color:#000000;letter-spacing:normal;word-spacing:normal;text-transform:none;direction:ltr;block-progression:tb;writing-mode:lr-tb;baseline-shift:baseline;text-anchor:start;white-space:normal;clip-rule:nonzero;display:inline;overflow:visible;visibility:visible;opacity:1;isolation:auto;mix-blend-mode:normal;color-interpolation:sRGB;color-interpolation-filters:linearRGB;solid-color:#000000;solid-opacity:1;fill:#190600;fill-opacity:1;fill-rule:evenodd;stroke:none;stroke-width:0.2;stroke-linecap:butt;stroke-linejoin:miter;stroke-miterlimit:4;stroke-dasharray:none;stroke-dashoffset:0;stroke-opacity:1;color-rendering:auto;image-rendering:auto;shape-rendering:auto;text-rendering:auto;enable-background:accumulate"
       d="m 226.96339,1021.376 -0.049,0.1934 c 0.8087,0.2035 1.1769,0.523 1.4003,0.9004 0.2235,0.3774 0.2967,0.8274 0.4747,1.2832 0.2022,0.5182 0.4278,1.3242 0.1015,1.9082 -0.2991,0.5353 -1.1734,0.9424 -1.8125,1.1621 l 0.064,0.1895 c 0.6551,-0.2253 1.5661,-0.6173 1.9218,-1.254 0.3819,-0.6833 0.1189,-1.5433 -0.09,-2.0781 -0.1679,-0.43 -0.2398,-0.8929 -0.4883,-1.3125 -0.2484,-0.4196 -0.6795,-0.7798 -1.5234,-0.9922 z"
       id="path4640"
       inkscape:connector-curvature="0" />
    <path
       style="color:#000000;font-style:normal;font-variant:normal;font-weight:normal;font-stretch:normal;font-size:medium;line-height:normal;font-family:sans-serif;text-indent:0;text-align:start;text-decoration:none;text-decoration-line:none;text-decoration-style:solid;text-decoration-color:#000000;letter-spacing:normal;word-spacing:normal;text-transform:none;direction:ltr;block-progression:tb;writing-mode:lr-tb;baseline-shift:baseline;text-anchor:start;white-space:normal;clip-rule:nonzero;display:inline;overflow:visible;visibility:visible;opacity:1;isolation:auto;mix-blend-mode:normal;color-interpolation:sRGB;color-interpolation-filters:linearRGB;solid-color:#000000;solid-opacity:1;fill:#190600;fill-opacity:1;fill-rule:evenodd;stroke:none;stroke-width:0.2;stroke-linecap:butt;stroke-linejoin:miter;stroke-miterlimit:4;stroke-dasharray:none;stroke-dashoffset:0;stroke-opacity:1;color-rendering:auto;image-rendering:auto;shape-rendering:auto;text-rendering:auto;enable-background:accumulate"
       d="m 226.95949,1021.3565 c -0.3412,0.1896 -0.6786,0.6183 -0.9434,1.1035 -0.2647,0.4852 -0.453,1.0241 -0.4512,1.4551 0,0.5199 0.1902,1.1792 0.4727,1.7676 0.2825,0.5884 0.6551,1.107 1.0723,1.3301 l 0.094,-0.1778 c -0.3437,-0.1838 -0.7143,-0.6737 -0.9863,-1.2402 -0.272,-0.5665 -0.4492,-1.2081 -0.4512,-1.6797 0,-0.3697 0.1723,-0.8948 0.4258,-1.3594 0.2535,-0.4645 0.5908,-0.8709 0.8652,-1.0234 l -0.098,-0.1758 z"
       id="path4640-7"
       inkscape:connector-curvature="0" />
    <path
       style="color:#000000;clip-rule:nonzero;display:inline;overflow:visible;visibility:visible;opacity:1;isolation:auto;mix-blend-mode:normal;color-interpolation:sRGB;color-interpolation-filters:linearRGB;solid-color:#000000;solid-opacity:1;fill:#2b1100;fill-opacity:1;fill-rule:nonzero;stroke:#000000;stroke-width:0.26153788;stroke-linecap:butt;stroke-linejoin:miter;stroke-miterlimit:4;stroke-dasharray:none;stroke-dashoffset:0;stroke-opacity:1;color-rendering:auto;image-rendering:auto;shape-rendering:auto;text-rendering:auto;enable-background:accumulate"
       d="m 27.446111,1023.8165 c -0.507463,0.1033 -0.917184,0.4576 -1.208975,0.9628 0.101099,0.284 0.203004,0.5684 0.273562,0.9218 0.18614,0.9295 0.252676,1.8424 0.437934,2.7675 0.145081,0.7251 -0.02462,1.4275 0.1168,2.137 0.07388,0.3687 -0.007,0.5692 -0.08717,0.7501 -0.07941,0.1849 -0.156669,0.3573 -0.0843,0.7131 0.156088,0.7797 0.181768,1.5517 0.319276,2.3251 l 0.104389,0.5131 c 0.198711,0.8972 0.660764,2.7479 0.790666,3.3994 0.02716,0.1355 0.08787,0.2241 0.164738,0.2845 0.07697,0.061 0.175517,0.1068 0.27448,0.1448 0.09897,0.038 0.200205,0.082 0.286504,0.1528 0.08666,0.071 0.154038,0.1678 0.183863,0.3144 0.05516,0.2758 -0.0091,0.6324 -0.07184,0.9921 -0.06329,0.3574 -0.125599,0.715 -0.0739,0.9691 0.1174,0.5865 0.05009,1.2054 0.164183,1.7806 0.06031,0.3014 0.312397,0.5371 0.571577,0.7724 0.259381,0.2364 0.524618,0.4776 0.591247,0.8051 0.05778,0.2887 0.06522,0.5716 0.06142,0.8528 0.332637,0.3018 0.695599,0.5021 1.070837,0.5745 0.0041,-0.5497 0.06546,-1.0905 -0.04505,-1.6434 -0.06021,-0.3008 -0.312449,-0.5371 -0.571574,-0.7724 -0.259464,-0.2371 -0.52462,-0.4776 -0.591249,-0.8051 -0.117538,-0.5868 -0.05013,-1.2056 -0.164161,-1.7805 -0.05506,-0.2753 0.009,-0.6325 0.07184,-0.9921 0.06341,-0.3568 0.125599,-0.715 0.07392,-0.969 -0.0271,-0.1355 -0.08785,-0.2239 -0.164738,-0.2844 -0.07697,-0.061 -0.172437,-0.1045 -0.271458,-0.1429 -0.100365,-0.045 -0.202688,-0.082 -0.289046,-0.1524 -0.08642,-0.07 -0.154496,-0.1701 -0.184361,-0.3169 -0.07243,-0.3615 -0.125702,-0.9168 -0.179186,-1.47 -0.05393,-0.5557 -0.106338,-1.1119 -0.178708,-1.4676 -0.08194,-0.4093 -0.285437,-0.8933 -0.489447,-1.3809 -0.203613,-0.4856 -0.406511,-0.9732 -0.491462,-1.3907 -0.07474,-0.3734 0.03833,-0.6942 0.148909,-1.0104 0.110729,-0.3152 0.219852,-0.6232 0.147521,-0.9787 -0.145121,-0.7254 0.02162,-1.4295 -0.1198,-2.139 -0.186159,-0.9295 -0.252677,-1.8424 -0.437956,-2.7675 -0.07841,-0.3915 0.01596,-0.8039 0.108198,-1.2105 0.04028,-0.1786 0.07682,-0.3565 0.102903,-0.5319 l -0.360404,0.073 z m 0.420473,-0.086 c -0.02637,0.1842 -0.06403,0.3716 -0.105847,0.5558 -0.09188,0.4084 -0.183557,0.8145 -0.107758,1.187 0.186159,0.9296 0.252716,1.8426 0.437954,2.7676 0.145081,0.7251 -0.02212,1.4269 0.119264,2.1363 0.07476,0.3735 -0.03782,0.6966 -0.148371,1.013 -0.110748,0.3151 -0.219893,0.6231 -0.147523,0.9788 0.08194,0.4093 0.282464,0.8914 0.486428,1.3788 0.203742,0.4863 0.407009,0.9756 0.49198,1.3933 0.07239,0.3613 0.12869,0.9186 0.182196,1.472 0.05396,0.5556 0.105879,1.1097 0.17819,1.4651 0.02716,0.1355 0.08787,0.2241 0.164738,0.2844 0.07697,0.061 0.175537,0.107 0.274479,0.1449 0.09897,0.038 0.200185,0.082 0.286505,0.1528 0.08664,0.071 0.154037,0.1678 0.183883,0.3145 0.05516,0.2758 -0.0091,0.6324 -0.07184,0.9921 -0.06333,0.3572 -0.12562,0.7149 -0.07392,0.969 0.11742,0.5866 0.05009,1.2054 0.164164,1.7805 0.06033,0.3014 0.312435,0.5373 0.571596,0.7725 0.259399,0.2365 0.524617,0.4776 0.591226,0.805 0.114148,0.5701 0.04878,1.1178 0.04512,1.6694 0.187193,0.029 0.375421,0.037 0.562716,0 l 0.470527,-0.096 c 0.228916,-0.047 0.431599,-0.1562 0.620098,-0.2958 0.0058,-0.5416 0.06603,-1.075 -0.04294,-1.6202 -0.06228,-0.3112 -0.182718,-0.4155 -0.312327,-0.5359 -0.129717,-0.1208 -0.263486,-0.2446 -0.328958,-0.5664 -0.115704,-0.5778 -0.300675,-0.9126 -0.416719,-1.4974 -0.106134,-0.5307 -0.272198,-1.1697 -0.377304,-1.7007 -0.112035,-0.5597 -0.54037,-1.3349 -0.655019,-1.9128 -0.07243,-0.3615 -0.126181,-0.9191 -0.179684,-1.4725 -0.05398,-0.5557 -0.105839,-1.1094 -0.17819,-1.4651 -0.04181,-0.2089 -0.02183,-0.3657 0.03342,-0.489 0.05526,-0.1233 0.144286,-0.2113 0.228449,-0.2992 0.08398,-0.089 0.165427,-0.1732 0.215944,-0.2837 0.05064,-0.1114 0.07141,-0.2511 0.03005,-0.4544 -0.07161,-0.3575 -0.33223,-0.9844 -0.593395,-1.61 -0.261219,-0.6257 -0.522169,-1.247 -0.597949,-1.6195 -0.145121,-0.7253 0.02162,-1.4294 -0.119801,-2.1389 -0.186159,-0.9296 -0.252677,-1.8424 -0.437955,-2.7676 -0.09319,-0.466 -0.350813,-0.9045 -0.575012,-1.353 -0.269784,-0.085 -0.545047,-0.1185 -0.818184,-0.063 l -0.05006,0.01 z m 0.942436,0.072 c 0.219195,0.4299 0.465722,0.8585 0.558382,1.3225 0.186199,0.9298 0.252716,1.8426 0.437955,2.7676 0.14512,0.7253 -0.0216,1.4295 0.1198,2.1389 0.07161,0.358 0.332209,0.9843 0.593414,1.6101 0.261262,0.6257 0.522151,1.2469 0.59793,1.6194 0.04183,0.209 0.01931,0.3661 -0.03597,0.4894 -0.05526,0.1232 -0.141782,0.2107 -0.225904,0.2988 -0.08417,0.088 -0.164869,0.176 -0.215425,0.2863 -0.05064,0.1113 -0.07193,0.2486 -0.03058,0.4519 0.07243,0.3615 0.126171,0.919 0.179703,1.4725 0.05396,0.5556 0.105819,1.1094 0.178169,1.465 0.112136,0.5602 0.540492,1.3354 0.654999,1.9127 0.106075,0.5304 0.272238,1.1699 0.377324,1.7008 0.115604,0.5772 0.298164,0.9131 0.414216,1.4979 0.0623,0.3112 0.182698,0.4153 0.312308,0.5358 0.129717,0.1207 0.266547,0.2468 0.332019,0.5686 0.108068,0.5402 0.05776,1.0609 0.04828,1.5825 0.651121,-0.5213 1.025496,-1.5459 0.988256,-2.7395 -0.241363,-0.2216 -0.479499,-0.448 -0.541502,-0.7527 -0.05293,-0.2645 0.107952,-0.594 0.284951,-0.931 l -0.649242,-3.1911 c -0.03145,-0.013 -0.05751,-0.033 -0.09035,-0.047 -0.100166,-0.044 -0.202686,-0.082 -0.289027,-0.1523 -0.08641,-0.07 -0.154536,-0.1703 -0.184401,-0.3171 -0.07243,-0.3615 -0.125663,-0.9167 -0.179187,-1.47 -0.05393,-0.5557 -0.106335,-1.1119 -0.178686,-1.4675 -0.07189,-0.3589 -0.04146,-0.7209 -0.0011,-1.0815 l -1.338675,-6.5798 c -0.305352,-1.5009 -1.162716,-2.6474 -2.117726,-2.9915 z m -2.610688,1.0551 c -0.40608,0.7561 -0.553996,1.8249 -0.322271,2.9638 l 1.158946,5.6964 c -0.05261,-0.4794 -0.102816,-0.9581 -0.198601,-1.4373 -0.07383,-0.3689 0.0075,-0.5667 0.08769,-0.7476 0.07955,-0.1843 0.15659,-0.3577 0.0843,-0.713 -0.145121,-0.7254 0.0241,-1.4301 -0.117319,-2.1396 -0.186178,-0.9296 -0.252675,-1.8424 -0.437935,-2.7675 -0.06531,-0.3265 -0.160761,-0.5893 -0.254799,-0.8552 z m 2.949577,6.4267 0.003,0.015 0.01317,0.014 -1.45e-4,-0.014 c 0.274734,0.056 0.688088,0.2893 0.885823,0.831 0.126534,0.3457 0.305557,0.9524 0.330279,1.2647 0.0064,0.081 -0.05434,0.1219 -0.124582,0.1947 -0.06931,0.077 -0.169393,0.1008 -0.269857,0.1212 l -0.397946,0.081 -0.0013,-0.02 -0.01253,0 c -0.219209,-0.465 -0.512814,-0.9586 -0.755526,-1.4204 -0.04278,-0.2323 -0.04813,-0.4109 0.0031,-0.574 0.05119,-0.1633 0.158119,-0.311 0.328441,-0.4867 z m 0.02005,0.072 c -0.151563,0.1629 -0.246222,0.2971 -0.291045,0.4399 -0.04689,0.1505 -0.04618,0.3131 -0.0037,0.5454 0.235269,0.4478 0.521238,0.9235 0.739406,1.3796 l 0.352896,-0.072 c 0.09741,-0.02 0.197607,-0.04 0.258539,-0.1128 0.06582,-0.048 0.101423,-0.085 0.09609,-0.1426 -0.0228,-0.2937 -0.201965,-0.9055 -0.326213,-1.2446 -0.186004,-0.5077 -0.570978,-0.735 -0.82612,-0.7938 z m 3.139501,2.2231 c -0.02658,0.2909 -0.03969,0.5814 0.01689,0.8645 0.07241,0.3614 0.126181,0.9192 0.179724,1.4726 0.05391,0.5556 0.105839,1.1095 0.17815,1.4649 0.02716,0.1355 0.08787,0.2241 0.164738,0.2845 0.07697,0.061 0.175548,0.1069 0.2745,0.145 0.01895,0.01 0.03456,0.022 0.05264,0.028 l -0.866672,-4.2598 z m -4.575072,3.3652 1.209366,5.9442 c 0.208898,1.0268 0.678953,1.882 1.259295,2.4361 0.0021,-0.2617 -0.0062,-0.5256 -0.05919,-0.7906 -0.06023,-0.3009 -0.31247,-0.5372 -0.571574,-0.7725 -0.259465,-0.237 -0.524659,-0.4778 -0.591248,-0.805 -0.11742,-0.5867 -0.05015,-1.2058 -0.164164,-1.7806 -0.05509,-0.2751 0.01157,-0.6329 0.07434,-0.9925 0.06341,-0.3568 0.1256,-0.715 0.0739,-0.9691 -0.0271,-0.1355 -0.08785,-0.224 -0.164717,-0.2844 -0.07697,-0.061 -0.174939,-0.104 -0.273983,-0.1424 -0.100365,-0.045 -0.202705,-0.082 -0.289046,-0.1524 -0.08642,-0.07 -0.154496,-0.1702 -0.184341,-0.3168 -0.05225,-0.261 -0.191381,-0.8396 -0.318649,-1.374 z m 6.123563,4.2459 c -0.157921,0.3109 -0.289828,0.6124 -0.245708,0.8292 0.05292,0.2647 0.259756,0.4764 0.483147,0.6837 -0.01291,-0.2758 -0.04244,-0.5544 -0.100971,-0.8421 l -0.136467,-0.6708 z"
       id="rect4761-2"
       inkscape:connector-curvature="0" />
    <path
       style="color:#000000;clip-rule:nonzero;display:inline;overflow:visible;visibility:visible;opacity:1;isolation:auto;mix-blend-mode:normal;color-interpolation:sRGB;color-interpolation-filters:linearRGB;solid-color:#000000;solid-opacity:1;fill:#4d4d4d;fill-opacity:1;fill-rule:nonzero;stroke:#000000;stroke-width:0.29410285;stroke-linecap:butt;stroke-linejoin:miter;stroke-miterlimit:4;stroke-dasharray:none;stroke-dashoffset:0;stroke-opacity:1;color-rendering:auto;image-rendering:auto;shape-rendering:auto;text-rendering:auto;enable-background:accumulate"
       d="m 13.49802,954.56529 -2.58163,4.76801 13.536387,66.5334 3.410522,-0.6938 -14.365279,-70.60761 z"
       id="rect4765"
       inkscape:connector-curvature="0" />
    <circle
       style="color:#000000;clip-rule:nonzero;display:inline;overflow:visible;visibility:visible;opacity:1;isolation:auto;mix-blend-mode:normal;color-interpolation:sRGB;color-interpolation-filters:linearRGB;solid-color:#000000;solid-opacity:1;fill:#333333;fill-opacity:1;fill-rule:nonzero;stroke:#000000;stroke-width:0.29410285;stroke-linecap:butt;stroke-linejoin:miter;stroke-miterlimit:4;stroke-dasharray:none;stroke-dashoffset:0;stroke-opacity:1;color-rendering:auto;image-rendering:auto;shape-rendering:auto;text-rendering:auto;enable-background:accumulate"
       id="path4816"
       cx="-176.91733"
       cy="1029.6232"
       r="3.5743489"
       transform="matrix(0.97992471,-0.19936793,0.19936793,0.97992471,0,0)" />
    <path
       style="color:#000000;clip-rule:nonzero;display:inline;overflow:visible;visibility:visible;opacity:1;isolation:auto;mix-blend-mode:normal;color-interpolation:sRGB;color-interpolation-filters:linearRGB;solid-color:#000000;solid-opacity:1;fill:#808080;fill-opacity:1;fill-rule:nonzero;stroke:#000000;stroke-width:0.29410285;stroke-linecap:butt;stroke-linejoin:miter;stroke-miterlimit:4;stroke-dasharray:none;stroke-dashoffset:0;stroke-opacity:1;color-rendering:auto;image-rendering:auto;shape-rendering:auto;text-rendering:auto;enable-background:accumulate"
       d="m 13.47967,954.6128 14.356726,70.5655 3.408455,-0.6934 -13.528341,-66.49391 -4.23684,-3.37819 z"
       id="rect4765-6"
       inkscape:connector-curvature="0" />
    <rect
       style="color:#000000;clip-rule:nonzero;display:inline;overflow:visible;visibility:visible;opacity:1;isolation:auto;mix-blend-mode:normal;color-interpolation:sRGB;color-interpolation-filters:linearRGB;solid-color:#000000;solid-opacity:1;fill:#333333;fill-opacity:1;fill-rule:nonzero;stroke:#000000;stroke-width:0.29410285;stroke-linecap:butt;stroke-linejoin:miter;stroke-miterlimit:4;stroke-dasharray:none;stroke-dashoffset:0;stroke-opacity:1;color-rendering:auto;image-rendering:auto;shape-rendering:auto;text-rendering:auto;enable-background:accumulate"
       id="rect4763"
       width="27.274128"
       height="2.288738"
       x="-190.4547"
       y="1009.6342"
       rx="2.6295295"
       ry="2.288738"
       transform="matrix(0.97992471,-0.19936793,0.19936793,0.97992471,0,0)" />
    <circle
       style="color:#000000;clip-rule:nonzero;display:inline;overflow:visible;visibility:visible;opacity:1;isolation:auto;mix-blend-mode:normal;color-interpolation:sRGB;color-interpolation-filters:linearRGB;solid-color:#000000;solid-opacity:1;fill:#4d4d4d;fill-opacity:1;fill-rule:nonzero;stroke:#000000;stroke-width:0.5;stroke-linecap:butt;stroke-linejoin:miter;stroke-miterlimit:4;stroke-dasharray:none;stroke-dashoffset:0;stroke-opacity:1;color-rendering:auto;image-rendering:auto;shape-rendering:auto;text-rendering:auto;enable-background:accumulate"
       id="path4981-6"
       cx="64.417793"
       cy="1001.0359"
       r="31.180126" />
    <path
       style="color:#000000;clip-rule:nonzero;display:inline;overflow:visible;visibility:visible;opacity:1;isolation:auto;mix-blend-mode:normal;color-interpolation:sRGB;color-interpolation-filters:linearRGB;solid-color:#000000;solid-opacity:1;fill:#28170b;fill-opacity:1;fill-rule:nonzero;stroke:#000000;stroke-width:0.5;stroke-linecap:butt;stroke-linejoin:miter;stroke-miterlimit:4;stroke-dasharray:none;stroke-dashoffset:0;stroke-opacity:1;color-rendering:auto;image-rendering:auto;shape-rendering:auto;text-rendering:auto;enable-background:accumulate"
       d="m 64.416813,973.48068 a 27.561607,27.561607 0 0 0 -5.57617,0.60157 c -0.1135,1.78739 -0.23852,3.56852 -0.24414,5.38672 -0.008,2.5354 -1.0525,4.78347 -1.0625,7.26367 -0.0042,1.3059 -0.60566,2.30947 -1.19336,3.29297 -0.5876,0.9835 -1.16601,1.9466 -1.16601,3.1914 -0.0045,1.4317 0.34712,3.20026 0.69921,4.97266 0.3521,1.77247 0.70118,3.54903 0.70118,5.01363 -0.004,1.2641 -0.20385,3.166 -0.40235,5.0684 -0.1986,1.9024 -0.40039,3.8052 -0.40039,5.0488 -0.0015,0.4766 0.14042,0.7992 0.35742,1.0625 0.217,0.2633 0.51577,0.4645 0.82227,0.6699 0.3064,0.2054 0.62138,0.4156 0.86328,0.709 0.2419,0.2935 0.40235,0.6716 0.40235,1.1894 -0.0031,0.9621 -0.46703,2.1227 -0.92383,3.2793 -0.4569,1.1565 -0.90821,2.31 -0.90821,3.2071 -0.004,1.2798 -0.25162,2.551 -0.44531,3.8144 a 27.561607,27.561607 0 0 0 6.78516,1.2676 c -0.08178,-0.7237 -0.15673,-1.4626 -0.15235,-2.3594 0.0058,-1.8545 -0.12132,-4.1029 -0.11132,-5.9668 0.0062,-1.9584 -0.89868,-4.8556 -0.88868,-6.875 0.004,-1.2641 0.20189,-3.1659 0.40039,-5.0683 0.1986,-1.9023 0.40235,-3.8033 0.40235,-5.0469 0.0023,-0.7398 0.18117,-1.2466 0.45117,-1.623 0.2699,-0.3765 0.624,-0.6217 0.9668,-0.8594 0.3427,-0.2377 0.67267,-0.4685 0.91797,-0.81056 0.2454,-0.3422 0.41406,-0.7974 0.41406,-1.5058 0.0039,-1.25143 -0.44463,-3.53593 -0.89453,-5.81643 -0.45,-2.2805 -0.89649,-4.55627 -0.89649,-5.85547 0.008,-2.5354 1.05055,-4.78543 1.06055,-7.26563 0.0064,-2.02283 0.15907,-3.9939 0.2793,-5.97265 a 27.561607,27.561607 0 0 0 -0.25782,-0.0137 z m 0.45899,0.0234 c -0.12031,1.9822 -0.27307,3.95094 -0.2793,5.96485 -0.008,2.5354 -1.0525,4.78347 -1.0625,7.26367 -0.004,1.2514 0.44463,3.5359 0.89453,5.8164 0.45,2.2805 0.89844,4.55627 0.89844,5.8555 -0.0024,0.7398 -0.18127,1.2466 -0.45117,1.623 -0.27,0.3765 -0.62595,0.6197 -0.96875,0.8574 -0.3427,0.2377 -0.67267,0.4703 -0.91797,0.8125 -0.2454,0.3421 -0.41406,0.7976 -0.41406,1.5059 -0.004,1.2641 -0.20385,3.166 -0.40235,5.0684 -0.1986,1.9024 -0.40039,3.8052 -0.40039,5.0488 -0.0062,1.9584 0.90063,4.8556 0.89063,6.875 -0.0059,1.8545 0.12133,4.1009 0.11133,5.9648 -0.0028,0.8965 0.07349,1.638 0.15625,2.3692 a 27.561607,27.561607 0 0 0 1.48632,0.074 27.561607,27.561607 0 0 0 3.43555,-0.2481 c 0.37492,-0.7354 1.01121,-1.4976 1.64258,-2.2597 0.976,-1.178 1.93164,-2.3547 1.93164,-3.3067 0.0028,-0.904 -0.34347,-1.8903 -0.69727,-2.8847 -0.3537,-0.9944 -0.71093,-1.998 -0.71093,-2.9532 0.0015,-0.4767 -0.14033,-0.7993 -0.35743,-1.0625 -0.217,-0.2633 -0.51381,-0.4644 -0.82031,-0.6699 -0.3064,-0.2054 -0.62333,-0.4156 -0.86523,-0.709 -0.2419,-0.2935 -0.40235,-0.6736 -0.40235,-1.1914 0.004,-1.2641 0.20189,-3.1659 0.40039,-5.0683 0.1986,-1.9023 0.40235,-3.8033 0.40235,-5.0469 0.0093,-2.9382 1.8318,-5.57509 1.8418,-8.42969 0.008,-2.5269 -0.89282,-5.46661 -0.88282,-8.04101 0.008,-2.5354 1.05055,-4.78543 1.06055,-7.26563 0.0056,-1.77612 0.1253,-3.51177 0.23633,-5.24804 a 27.561607,27.561607 0 0 0 -5.75586,-0.71485 z m -6.23828,0.62305 a 27.561607,27.561607 0 0 0 -3.86524,1.11328 c -0.08913,1.40092 -0.17137,2.80254 -0.17578,4.22852 -0.008,2.5354 -1.0525,4.78347 -1.0625,7.26367 -0.0041,1.2958 -0.41549,1.89308 -0.80859,2.45508 -0.3931,0.5619 -0.77149,1.08895 -0.77149,2.34375 -0.0092,2.9083 -0.53687,5.67409 -0.54687,8.55857 -0.0078,2.4969 0.37523,10.7121 0.36523,13.2305 -0.0015,0.4766 0.14042,0.7992 0.35742,1.0625 0.217,0.2633 0.51577,0.4645 0.82227,0.6699 0.3064,0.2054 0.62138,0.4156 0.86328,0.709 0.2419,0.2935 0.40235,0.6716 0.40235,1.1894 -0.0031,0.9621 -0.46703,2.1227 -0.92383,3.2793 -0.4569,1.1565 -0.90821,2.31 -0.90821,3.2071 -0.0024,0.7564 -0.09972,1.509 -0.21289,2.2597 a 27.561607,27.561607 0 0 0 3.57032,1.4825 c 0.19232,-1.255 0.43524,-2.5031 0.4414,-3.7422 0.003,-0.9621 0.46693,-2.1227 0.92383,-3.2793 0.4569,-1.1565 0.91016,-2.31 0.91016,-3.2071 0.0015,-0.4767 -0.14033,-0.7993 -0.35743,-1.0625 -0.217,-0.2633 -0.51381,-0.4644 -0.82031,-0.6699 -0.3064,-0.2054 -0.62333,-0.4156 -0.86523,-0.709 -0.2419,-0.2935 -0.40235,-0.6736 -0.40235,-1.1914 0.004,-1.2641 0.20189,-3.1659 0.40039,-5.0683 0.1986,-1.9023 0.40235,-3.8033 0.40235,-5.0469 0.0045,-1.4317 -0.34712,-3.2022 -0.69922,-4.9746 -0.3521,-1.77241 -0.70117,-3.54713 -0.70117,-5.01173 0.0041,-1.3059 0.60566,-2.30947 1.19336,-3.29297 0.5876,-0.9835 1.16601,-1.9466 1.16601,-3.1914 0.008,-2.5354 1.05055,-4.78543 1.06055,-7.26563 0.0057,-1.80738 0.12963,-3.57295 0.24219,-5.33984 z m 12.1914,0.14062 c -0.11044,1.72518 -0.22699,3.44581 -0.23242,5.20118 -0.008,2.5354 -1.0525,4.78347 -1.0625,7.26367 -0.008,2.5269 0.89477,5.46661 0.88477,8.04101 -0.0094,2.9382 -1.83375,5.57509 -1.84375,8.42969 -0.004,1.2641 -0.20385,3.166 -0.40235,5.0684 -0.1986,1.9024 -0.40039,3.8052 -0.40039,5.0488 -0.0015,0.4766 0.14042,0.7992 0.35742,1.0625 0.217,0.2633 0.51577,0.4645 0.82227,0.6699 0.3064,0.2054 0.62138,0.4156 0.86328,0.709 0.2419,0.2935 0.40235,0.6716 0.40235,1.1894 -0.0029,0.904 0.34551,1.8904 0.69921,2.8848 0.3538,0.9945 0.71094,1.9979 0.71094,2.9531 -0.0034,1.0796 -1.00251,2.2576 -1.97851,3.4356 -0.59531,0.7186 -1.15551,1.4302 -1.52344,2.0976 a 27.561607,27.561607 0 0 0 1.54492,-0.2461 c 0.2665,-0.6594 0.67872,-1.3168 1.10547,-1.9707 0.6841,-1.0482 1.35547,-2.0873 1.35547,-3.0585 0.0058,-1.8498 -0.25219,-4.4869 -0.24219,-6.3555 0.0015,-0.4767 -0.14032,-0.7993 -0.35742,-1.0625 -0.217,-0.2633 -0.51381,-0.4644 -0.82031,-0.6699 -0.3064,-0.2054 -0.62334,-0.4156 -0.86524,-0.709 -0.2419,-0.2935 -0.40234,-0.6736 -0.40234,-1.1914 0.0039,-1.2641 0.20189,-3.166 0.40039,-5.0684 0.1986,-1.9023 0.40234,-3.8033 0.40234,-5.0469 0.0093,-2.9382 1.8318,-5.57505 1.8418,-8.42965 0.008,-2.5269 -0.89281,-5.46662 -0.88281,-8.04102 0.008,-2.5354 1.05054,-4.78542 1.06054,-7.26562 0.0048,-1.52884 0.09731,-3.02654 0.19336,-4.52149 a 27.561607,27.561607 0 0 0 -1.63086,-0.41797 z m 1.82813,0.47852 c -0.09492,1.47883 -0.18481,2.95751 -0.18945,4.46289 -0.008,2.5354 -1.05251,4.78347 -1.0625,7.26367 -0.008,2.5269 0.89476,5.46662 0.88476,8.04102 -0.0094,2.9382 -1.83375,5.57505 -1.84375,8.42965 -0.004,1.2641 -0.20384,3.166 -0.40234,5.0684 -0.1986,1.9024 -0.40039,3.8052 -0.40039,5.0488 -0.0015,0.4766 0.14042,0.7992 0.35742,1.0625 0.217,0.2633 0.51576,0.4645 0.82226,0.6699 0.3064,0.2054 0.62139,0.4156 0.86328,0.709 0.24191,0.2935 0.40235,0.6717 0.40235,1.1895 -0.0059,1.8498 0.25219,4.4888 0.24219,6.3574 -0.0034,1.0605 -0.70262,2.1177 -1.38672,3.166 -0.39791,0.6097 -0.77354,1.2148 -1.03321,1.8067 a 27.561607,27.561607 0 0 0 8.16602,-3.0801 c 0.06206,-0.5025 0.10493,-1.0039 0.10742,-1.5039 0.003,-0.9621 0.46693,-2.1227 0.92383,-3.2793 0.4569,-1.1565 0.91016,-2.31 0.91016,-3.2071 0.0015,-0.4767 -0.14033,-0.7993 -0.35743,-1.0625 -0.217,-0.2633 -0.51381,-0.4644 -0.82031,-0.6699 -0.3064,-0.2054 -0.62333,-0.4156 -0.86523,-0.709 -0.2419,-0.2935 -0.40235,-0.6736 -0.40235,-1.1914 0.004,-1.2641 0.20189,-3.1659 0.40039,-5.0683 0.1986,-1.9023 0.40235,-3.8033 0.40235,-5.0469 0.0093,-2.9382 1.8318,-5.57509 1.8418,-8.42969 0.008,-2.5269 -0.89282,-5.46661 -0.88282,-8.04101 0.008,-2.5354 1.05055,-4.78543 1.06055,-7.26563 8.9e-4,-0.28181 0.0172,-0.55798 0.02344,-0.83789 a 27.561607,27.561607 0 0 0 -7.76172,-3.88281 z m -18.08985,0.5625 a 27.561607,27.561607 0 0 0 -3.20312,1.48828 c -0.12572,1.42424 -0.62106,2.82265 -1.5918,3.45703 l -0.01172,-0.0176 -0.08593,0.0527 c -0.41787,-0.68732 -0.6969,-1.2946 -0.86524,-1.92578 a 27.561607,27.561607 0 0 0 -2.24414,1.72265 c -0.15128,2.28658 -1.02391,4.37039 -1.03125,6.64649 -0.008,2.5269 0.89277,5.46661 0.88477,8.04101 -0.0092,2.9382 -1.83475,5.57505 -1.84375,8.42965 -0.004,1.2641 -0.20384,3.166 -0.40235,5.0684 -0.19852,1.9024 -0.39639,3.8052 -0.40039,5.0488 -0.0015,0.4766 0.1404,0.7992 0.35742,1.0625 0.21702,0.2633 0.5158,0.4645 0.82227,0.6699 0.30647,0.2054 0.62138,0.4156 0.86328,0.709 0.24191,0.2935 0.40433,0.6716 0.40235,1.1894 -0.0031,0.9621 -0.46694,2.1227 -0.92383,3.2793 -0.06193,0.1568 -0.1094,0.305 -0.16993,0.461 a 27.561607,27.561607 0 0 0 6.85547,4.9121 c 0.10882,-0.7242 0.20151,-1.447 0.20508,-2.166 0.003,-0.9621 0.46693,-2.1227 0.92383,-3.2793 0.4569,-1.1565 0.91016,-2.31 0.91016,-3.2071 0.0015,-0.4767 -0.14033,-0.7993 -0.35743,-1.0625 -0.217,-0.2633 -0.51381,-0.4644 -0.82031,-0.6699 -0.3064,-0.2054 -0.62333,-0.4156 -0.86523,-0.709 -0.2419,-0.2935 -0.40235,-0.6736 -0.40235,-1.1914 0.0078,-2.4968 -0.37523,-10.7099 -0.36523,-13.2285 0.0092,-2.90834 0.53687,-5.67609 0.54687,-8.56049 0.0041,-1.2958 0.41354,-1.89307 0.80664,-2.45508 0.39321,-0.562 0.77344,-1.08689 0.77344,-2.34179 0.008,-2.5354 1.05055,-4.78543 1.06055,-7.26563 0.0044,-1.40525 0.08483,-2.78341 0.17187,-4.1582 z m -3.41992,1.61133 a 27.561607,27.561607 0 0 0 -2.16211,1.3164 c 0.14945,0.58563 0.3976,1.14551 0.76758,1.77735 0.7964,-0.5869 1.25328,-1.81035 1.39453,-3.09375 z m 29.46875,1.85937 c -0.0044,0.23054 -0.01881,0.45777 -0.01953,0.68946 -0.008,2.5354 -1.0525,4.78347 -1.0625,7.26367 -0.008,2.5269 0.89477,5.46661 0.88477,8.04101 -0.0094,2.9382 -1.83375,5.57509 -1.84375,8.42969 -0.004,1.2641 -0.20385,3.166 -0.40235,5.0684 -0.1986,1.9024 -0.40039,3.8052 -0.40039,5.0488 -0.0015,0.4766 0.14042,0.7992 0.35742,1.0625 0.217,0.2633 0.51577,0.4645 0.82227,0.6699 0.3064,0.2054 0.62138,0.4156 0.86328,0.709 0.2419,0.2935 0.40235,0.6716 0.40235,1.1894 -0.0031,0.9621 -0.46703,2.1227 -0.92383,3.2793 -0.4569,1.1565 -0.90821,2.31 -0.90821,3.2071 -0.0015,0.4609 -0.03793,0.9201 -0.08984,1.3789 a 27.561607,27.561607 0 0 0 4.20703,-3.0215 c 0.17048,-0.5324 0.38714,-1.0841 0.60547,-1.6367 0.4569,-1.1565 0.91016,-2.31 0.91016,-3.2071 0.0015,-0.4767 -0.14033,-0.7993 -0.35743,-1.0625 -0.217,-0.2633 -0.51381,-0.4644 -0.82031,-0.6699 -0.3064,-0.2054 -0.62333,-0.4156 -0.86523,-0.709 -0.2419,-0.2935 -0.40235,-0.6736 -0.40235,-1.1914 0.004,-1.2641 0.20189,-3.1659 0.40039,-5.0683 0.1986,-1.9023 0.40235,-3.8033 0.40235,-5.0469 0.0091,-2.8992 0.14625,-8.64937 0.15625,-11.54297 0.0081,-2.5438 -0.24438,-5.61447 -0.23438,-8.17187 0.002,-0.6408 0.13741,-1.07032 0.34571,-1.38672 0.2082,-0.3165 0.48274,-0.51383 0.74414,-0.70313 0.06229,-0.0451 0.11949,-0.0929 0.17968,-0.13867 a 27.561607,27.561607 0 0 0 -2.95117,-2.48047 z m -34.26172,1.49219 a 27.561607,27.561607 0 0 0 -2.13086,2.06445 c -0.30611,1.45615 -0.68457,2.88549 -0.68945,4.39649 -0.008,2.5269 0.89277,5.46661 0.88477,8.04101 -0.0047,1.487 -0.8633,3.23071 -1.71094,4.97069 -0.84764,1.74 -1.68445,3.4754 -1.68945,4.8848 -0.0078,2.4869 0.7619,6.163 0.7539,8.6914 -0.0015,0.4766 0.1404,0.7992 0.35742,1.0625 0.21702,0.2633 0.5158,0.4645 0.82227,0.6699 0.30647,0.2054 0.62138,0.4156 0.86328,0.709 0.24191,0.2935 0.40433,0.6716 0.40235,1.1894 -0.0021,0.6605 -0.24227,1.4231 -0.52735,2.2051 a 27.561607,27.561607 0 0 0 1.27539,1.3867 c 0.05085,-0.1297 0.09125,-0.2548 0.14258,-0.3847 0.45689,-1.1565 0.90716,-2.31 0.91016,-3.2071 0.0015,-0.4767 -0.14041,-0.7993 -0.35743,-1.0625 -0.21702,-0.2633 -0.51383,-0.4644 -0.82031,-0.6699 -0.30647,-0.2054 -0.62333,-0.4156 -0.86523,-0.709 -0.2419,-0.2935 -0.40435,-0.6736 -0.40235,-1.1914 0.004,-1.2641 0.20187,-3.1659 0.40039,-5.0683 0.19851,-1.9023 0.39835,-3.8033 0.40235,-5.0469 0.0093,-2.9382 1.83278,-5.57509 1.8418,-8.42969 0.008,-2.5269 -0.89082,-5.46661 -0.88282,-8.04101 0.0071,-2.25818 0.83259,-4.29127 1.01953,-6.46094 z m 37.36133,1.125 c -0.07064,0.0542 -0.14065,0.11316 -0.21094,0.16406 -0.2614,0.1892 -0.50846,0.36959 -0.69336,0.65039 -0.1848,0.2809 -0.31445,0.6663 -0.31445,1.2793 -0.0081,2.5438 0.24438,5.61252 0.23438,8.16992 -0.0092,2.8992 -0.14625,8.64937 -0.15625,11.54297 -0.004,1.2641 -0.20385,3.166 -0.40235,5.0684 -0.1986,1.9024 -0.40039,3.8052 -0.40039,5.0488 -0.0015,0.4766 0.14042,0.7992 0.35742,1.0625 0.217,0.2633 0.51577,0.4645 0.82227,0.6699 0.3064,0.2054 0.62138,0.4156 0.86328,0.709 0.2419,0.2935 0.40235,0.6716 0.40235,1.1894 -0.0031,0.9621 -0.46703,2.1227 -0.92383,3.2793 -0.17261,0.4369 -0.32568,0.8628 -0.47266,1.2852 a 27.561607,27.561607 0 0 0 2.89258,-3.002 c 0.18,-0.5654 0.30469,-1.0989 0.30469,-1.5625 0.0015,-0.4767 -0.14033,-0.7993 -0.35743,-1.0625 -0.217,-0.2633 -0.51381,-0.4644 -0.82031,-0.6699 -0.3064,-0.2054 -0.62333,-0.4156 -0.86523,-0.709 -0.2419,-0.2935 -0.40235,-0.6736 -0.40235,-1.1914 0.004,-1.2641 0.20189,-3.1659 0.40039,-5.0683 0.1986,-1.9023 0.40235,-3.8033 0.40235,-5.0469 0.0093,-2.9382 1.8318,-5.57509 1.8418,-8.42969 0.004,-1.2549 -0.37858,-3.0816 -0.76368,-4.9082 -0.3851,-1.8265 -0.76758,-3.65352 -0.76758,-4.94922 0.0027,-0.84546 0.20148,-1.45645 0.45508,-1.99219 a 27.561607,27.561607 0 0 0 -1.42578,-1.52734 z m -39.75781,1.22266 a 27.561607,27.561607 0 0 0 -5.7207,9.86523 c 0.10437,0.78026 0.18393,1.55056 0.18164,2.28906 -0.0091,2.9083 -0.53788,6.06469 -0.54688,8.94919 -0.0024,0.7549 -0.20365,1.6961 -0.46094,2.6914 a 27.561607,27.561607 0 0 0 6.12891,12.5704 c 0.26189,-0.7364 0.47655,-1.4457 0.47852,-2.0333 0.0015,-0.4767 -0.14041,-0.7993 -0.35743,-1.0625 -0.21702,-0.2633 -0.51383,-0.4644 -0.82031,-0.6699 -0.30647,-0.2054 -0.62333,-0.4156 -0.86523,-0.709 -0.2419,-0.2935 -0.40435,-0.6736 -0.40235,-1.1914 0.0078,-2.4869 -0.7619,-6.1609 -0.7539,-8.6894 0.0047,-1.487 0.86134,-3.2307 1.70898,-4.9707 0.84765,-1.74002 1.68544,-3.47539 1.68946,-4.88479 0.008,-2.5269 -0.89082,-5.46661 -0.88282,-8.04101 0.0045,-1.43043 0.33095,-2.77195 0.62305,-4.11328 z m 41.32812,0.46875 c -0.22753,0.49662 -0.40039,1.05481 -0.40039,1.82812 -0.004,1.2549 0.37858,3.0816 0.76368,4.9082 0.3851,1.8265 0.76953,3.65352 0.76953,4.94922 -0.0094,2.9382 -1.83375,5.57509 -1.84375,8.42969 -0.004,1.2641 -0.20385,3.166 -0.40235,5.0684 -0.1986,1.9024 -0.40039,3.8052 -0.40039,5.0488 -0.0015,0.4766 0.14042,0.7992 0.35742,1.0625 0.217,0.2633 0.51577,0.4645 0.82227,0.6699 0.3064,0.2054 0.62138,0.4156 0.86328,0.709 0.2419,0.2935 0.40235,0.6716 0.40235,1.1894 -0.0011,0.3536 -0.07734,0.7397 -0.17969,1.1368 a 27.561607,27.561607 0 0 0 1.58789,-2.2325 c -0.21384,-0.2456 -0.49292,-0.4407 -0.78516,-0.6367 -0.3064,-0.2054 -0.62333,-0.4156 -0.86523,-0.709 -0.2419,-0.2935 -0.40235,-0.6736 -0.40235,-1.1914 0.004,-1.2641 0.20189,-3.1659 0.40039,-5.0683 0.1986,-1.9023 0.40235,-3.8033 0.40235,-5.0469 0.0046,-1.4632 0.34112,-2.2562 0.66992,-3.0234 0.3288,-0.7673 0.6543,-1.5102 0.6543,-2.9434 0.008,-2.5269 -0.89477,-5.59552 -0.88477,-8.16992 0.0029,-0.91319 0.22434,-2.10606 0.48438,-3.34765 a 27.561607,27.561607 0 0 0 -2.01368,-2.63086 z m 2.17383,2.85156 c -0.24106,1.17068 -0.44336,2.28628 -0.44336,3.12695 -0.008,2.5268 0.89282,5.59738 0.88282,8.17188 -0.0046,1.46324 -0.34113,2.25414 -0.66993,3.02144 -0.3288,0.7672 -0.65429,1.5102 -0.65429,2.9434 -0.004,1.2641 -0.20385,3.166 -0.40235,5.0684 -0.1986,1.9024 -0.40039,3.8052 -0.40039,5.0488 -0.0015,0.4766 0.14042,0.7992 0.35742,1.0625 0.217,0.2633 0.51577,0.4645 0.82227,0.6699 0.27478,0.1842 0.54961,0.3804 0.7793,0.6289 a 27.561607,27.561607 0 0 0 0.54492,-0.8887 c -0.10447,-0.089 -0.21027,-0.1757 -0.29883,-0.2832 -0.2419,-0.2935 -0.40234,-0.6736 -0.40234,-1.1914 0.004,-1.2641 0.20189,-3.1659 0.40039,-5.0683 0.1986,-1.9023 0.40234,-3.8033 0.40234,-5.0469 0.0047,-1.4914 0.96135,-3.1404 1.90625,-4.7832 0.4499,-0.78215 0.8925,-1.56106 1.23828,-2.31641 a 27.561607,27.561607 0 0 0 -4.0625,-10.16406 z m -27.40234,4.49609 0.0039,0 -0.002,0.002 0.03711,0.0547 0.01367,-0.0351 c 0.8849,0.3779 2.1103,1.45825 2.4043,3.40625 0.1881,1.2475 0.37739,3.40384 0.24609,4.46484 -0.0339,0.2738 -0.26302,0.4545 -0.54882,0.5703 -0.2857,0.116 -0.64265,0.177 -0.99414,0.211 -0.70301,0.068 -1.38672,0.025 -1.38672,0.025 l 0.0039,-0.055 -0.03711,0.01 c -0.4187,-1.71178 -1.07246,-3.55598 -1.57226,-5.27928 l 0,-0.0137 0,-0.0156 c 0.0151,-0.8278 0.12069,-1.42986 0.40429,-1.94336 0.28315,-0.51297 0.73864,-0.92862 1.42969,-1.40039 l -0.002,-0.002 z m 0.02539,0.23633 c -0.62015,0.43377 -1.0331,0.81427 -1.28125,1.26367 -0.2605,0.4719 -0.36291,1.03425 -0.37891,1.83985 0.48688,1.67578 1.12174,3.47172 1.54297,5.16213 0.15384,0.01 0.65026,0.03 1.23438,-0.027 0.3409,-0.033 0.6831,-0.094 0.9375,-0.1972 0.2543,-0.1031 0.40573,-0.2359 0.42773,-0.4102 0.1242,-1.00349 -0.05999,-3.17715 -0.24609,-4.41015 -0.27815,-1.84283 -1.41924,-2.85277 -2.23633,-3.2207 z m -21.99219,2.21484 a 27.561607,27.561607 0 0 0 -1.23437,8.15621 27.561607,27.561607 0 0 0 0.46093,4.9551 c 0.20802,-0.8534 0.3534,-1.6414 0.35547,-2.2773 0.0092,-2.9083 0.53591,-6.06279 0.54493,-8.94729 0.0019,-0.60818 -0.04911,-1.24156 -0.12696,-1.88672 z m 53.4961,3.53711 c -0.33332,0.6917 -0.72501,1.39353 -1.12891,2.0957 -0.9449,1.6428 -1.88086,3.2787 -1.88086,4.6836 -0.004,1.2641 -0.20384,3.166 -0.40234,5.0684 -0.1986,1.9024 -0.40039,3.8052 -0.40039,5.0488 -0.0015,0.4766 0.14042,0.7992 0.35742,1.0625 0.07213,0.087 0.16251,0.162 0.25,0.2383 a 27.561607,27.561607 0 0 0 3.59765,-13.5782 27.561607,27.561607 0 0 0 -0.39257,-4.6191 z"
       id="path4981"
       inkscape:connector-curvature="0" />
    <circle
       style="color:#000000;clip-rule:nonzero;display:inline;overflow:visible;visibility:visible;opacity:1;isolation:auto;mix-blend-mode:normal;color-interpolation:sRGB;color-interpolation-filters:linearRGB;solid-color:#000000;solid-opacity:1;fill:#aa0000;fill-opacity:1;fill-rule:nonzero;stroke:#000000;stroke-width:0.59343815;stroke-linecap:butt;stroke-linejoin:miter;stroke-miterlimit:4;stroke-dasharray:none;stroke-dashoffset:0;stroke-opacity:1;color-rendering:auto;image-rendering:auto;shape-rendering:auto;text-rendering:auto;enable-background:accumulate"
       id="path4981-6-6"
       cx="64.417793"
       cy="1001.0359"
       r="7.9408088" />
  </g>
</svg>
