<?xml version="1.0" encoding="UTF-8" standalone="no"?>
<!-- Created with Inkscape (http://www.inkscape.org/) -->

<svg
   xmlns:dc="http://purl.org/dc/elements/1.1/"
   xmlns:cc="http://creativecommons.org/ns#"
   xmlns:rdf="http://www.w3.org/1999/02/22-rdf-syntax-ns#"
   xmlns:svg="http://www.w3.org/2000/svg"
   xmlns="http://www.w3.org/2000/svg"
   xmlns:sodipodi="http://sodipodi.sourceforge.net/DTD/sodipodi-0.dtd"
   xmlns:inkscape="http://www.inkscape.org/namespaces/inkscape"
   width="100"
   height="100"
   viewBox="0 0 100 100"
   id="svg2"
   version="1.1"
   inkscape:version="0.91 r13725"
   sodipodi:docname="wood.svg">
  <defs
     id="defs4" />
  <sodipodi:namedview
     id="base"
     pagecolor="#ffffff"
     bordercolor="#666666"
     borderopacity="1.0"
     inkscape:pageopacity="0.0"
     inkscape:pageshadow="2"
     inkscape:zoom="7.71"
     inkscape:cx="50"
     inkscape:cy="50"
     inkscape:document-units="px"
     inkscape:current-layer="layer1"
     showgrid="false"
     units="px"
     inkscape:window-width="1680"
     inkscape:window-height="997"
     inkscape:window-x="0"
     inkscape:window-y="0"
     inkscape:window-maximized="1">
    <inkscape:grid
       type="xygrid"
       id="grid4395" />
  </sodipodi:namedview>
  <metadata
     id="metadata7">
    <rdf:RDF>
      <cc:Work
         rdf:about="">
        <dc:format>image/svg+xml</dc:format>
        <dc:type
           rdf:resource="http://purl.org/dc/dcmitype/StillImage" />
        <dc:title></dc:title>
      </cc:Work>
    </rdf:RDF>
  </metadata>
  <g
     inkscape:label="Layer 1"
     inkscape:groupmode="layer"
     id="layer1"
     transform="translate(0,-952.36216)">
    <rect
       style="color:#000000;clip-rule:nonzero;display:inline;overflow:visible;visibility:visible;opacity:1;isolation:auto;mix-blend-mode:normal;color-interpolation:sRGB;color-interpolation-filters:linearRGB;solid-color:#000000;solid-opacity:1;fill:#2b1100;fill-opacity:1;fill-rule:nonzero;stroke:#000000;stroke-width:0;stroke-linecap:butt;stroke-linejoin:miter;stroke-miterlimit:4;stroke-dasharray:none;stroke-dashoffset:0;stroke-opacity:1;color-rendering:auto;image-rendering:auto;shape-rendering:auto;text-rendering:auto;enable-background:accumulate"
       id="rect4389"
       width="88.71595"
       height="86.640724"
       x="5.1880674"
       y="961.31158"
       rx="2.33811"
       ry="2.76278" />
    <path
       style="color:#000000;font-style:normal;font-variant:normal;font-weight:normal;font-stretch:normal;font-size:medium;line-height:normal;font-family:sans-serif;text-indent:0;text-align:start;text-decoration:none;text-decoration-line:none;text-decoration-style:solid;text-decoration-color:#000000;letter-spacing:normal;word-spacing:normal;text-transform:none;direction:ltr;block-progression:tb;writing-mode:lr-tb;baseline-shift:baseline;text-anchor:start;white-space:normal;clip-rule:nonzero;display:inline;overflow:visible;visibility:visible;opacity:1;isolation:auto;mix-blend-mode:normal;color-interpolation:sRGB;color-interpolation-filters:linearRGB;solid-color:#000000;solid-opacity:1;fill:#190600;fill-opacity:1;fill-rule:evenodd;stroke:none;stroke-width:0.2;stroke-linecap:butt;stroke-linejoin:miter;stroke-miterlimit:4;stroke-dasharray:none;stroke-dashoffset:0;stroke-opacity:1;color-rendering:auto;image-rendering:auto;shape-rendering:auto;text-rendering:auto;enable-background:accumulate"
       d="m 9.8867188,964.42383 c -0.00852,2.69653 0.6314652,4.4684 0.6230472,7.13281 -0.01022,3.23436 -0.409652,6.34727 -0.419922,9.59766 -0.0078,2.4802 -1.0525362,4.73021 -1.0605471,7.26562 -0.00814,2.5744 0.8907964,5.51414 0.8828125,8.04102 -0.00907,2.85456 -1.8325135,5.49146 -1.8417969,8.42966 -0.00393,1.2436 -0.2038294,3.1446 -0.4023437,5.0469 -0.1985144,1.9023 -0.3963968,3.8043 -0.4003907,5.0684 -0.00163,0.5178 0.1604432,0.8979 0.4023438,1.1914 0.2419005,0.2934 0.5587641,0.5036 0.8652343,0.7089 0.3064703,0.2054 0.603293,0.4067 0.8203126,0.67 0.2158238,0.2618 0.3553959,0.5843 0.3554687,1.0566 l -1.8300781,6.4727 -0.671875,6.1308 2.8320316,6.0938 -1.3203129,8.2715 0.1972657,0.031 1.3300782,-8.332 -2.8339845,-6.0977 0.6640625,-6.0586 1.8339844,-6.4922 0,-0.014 c 0.00164,-0.5178 -0.1604437,-0.896 -0.4023438,-1.1895 -0.2419,-0.2934 -0.556811,-0.5036 -0.8632812,-0.709 -0.3064703,-0.2054 -0.6052456,-0.4066 -0.8222656,-0.6699 -0.2170201,-0.2633 -0.3589269,-0.5859 -0.3574219,-1.0625 0.00393,-1.2436 0.2018762,-3.1465 0.4003906,-5.0488 0.1985144,-1.9024 0.3983514,-3.8043 0.4023437,-5.0684 0.00902,-2.8546 1.8344168,-5.49148 1.8437498,-8.42966 0.0081,-2.5744 -0.8927503,-5.51414 -0.8847654,-8.04102 0.00784,-2.4802 1.0545134,-4.72825 1.0625004,-7.26367 0.01022,-3.23437 0.409656,-6.34728 0.419922,-9.59766 0.0085,-2.69652 -0.631467,-4.47035 -0.623047,-7.13476 l -0.2011722,0 z"
       id="path4426"
       inkscape:connector-curvature="0" />
    <path
       style="color:#000000;font-style:normal;font-variant:normal;font-weight:normal;font-stretch:normal;font-size:medium;line-height:normal;font-family:sans-serif;text-indent:0;text-align:start;text-decoration:none;text-decoration-line:none;text-decoration-style:solid;text-decoration-color:#000000;letter-spacing:normal;word-spacing:normal;text-transform:none;direction:ltr;block-progression:tb;writing-mode:lr-tb;baseline-shift:baseline;text-anchor:start;white-space:normal;clip-rule:nonzero;display:inline;overflow:visible;visibility:visible;opacity:1;isolation:auto;mix-blend-mode:normal;color-interpolation:sRGB;color-interpolation-filters:linearRGB;solid-color:#000000;solid-opacity:1;fill:#341106;fill-opacity:1;fill-rule:evenodd;stroke:none;stroke-width:0.2;stroke-linecap:butt;stroke-linejoin:miter;stroke-miterlimit:4;stroke-dasharray:none;stroke-dashoffset:0;stroke-opacity:1;color-rendering:auto;image-rendering:auto;shape-rendering:auto;text-rendering:auto;enable-background:accumulate"
       d="m 12.978516,963.51562 c -0.0086,2.71919 1.539597,5.39926 1.53125,8.04102 -0.0051,1.60512 -0.392883,2.72457 -0.78711,3.85938 -0.394227,1.1348 -0.793655,2.28657 -0.798828,3.92382 -0.0079,2.51139 0.113381,6.57585 0.105469,9.08008 -0.0082,2.57441 0.890797,5.51414 0.882812,8.04102 -0.009,2.85455 -1.832514,5.49146 -1.841797,8.42966 -0.0039,1.2436 -0.203826,3.1446 -0.402343,5.0469 -0.198517,1.9023 -0.396397,3.8043 -0.400391,5.0684 -0.0016,0.5178 0.160444,0.8979 0.402344,1.1914 0.2419,0.2934 0.558763,0.5035 0.865234,0.7089 0.306472,0.2055 0.603291,0.4067 0.820313,0.67 0.217021,0.2632 0.358927,0.5858 0.357422,1.0625 -0.0028,0.8971 -0.453267,2.0505 -0.910157,3.207 -0.456889,1.1566 -0.920788,2.3172 -0.923828,3.2793 -0.0063,2.0104 -0.661481,4.0408 -0.667968,6.0938 -0.0036,1.1455 0.725666,2.1347 1.435546,3.1074 0.709881,0.9726 1.401785,1.929 1.398438,2.9883 -0.0091,2.8673 -1.316925,5.3756 -1.326172,8.3027 l 0.201172,0 c 0.0091,-2.8673 1.314924,-5.3737 1.324219,-8.3008 0.0036,-1.1455 -0.725667,-2.1347 -1.435547,-3.1074 -0.70988,-0.9727 -1.399848,-1.929 -1.396485,-2.9883 0.0064,-2.0104 0.661502,-4.0427 0.667969,-6.0957 0.0028,-0.8971 0.451314,-2.0505 0.908203,-3.207 0.456889,-1.1566 0.920775,-2.3172 0.923828,-3.2793 0.0016,-0.5178 -0.160441,-0.896 -0.402343,-1.1895 -0.241902,-0.2934 -0.55681,-0.5036 -0.863282,-0.709 -0.306471,-0.2054 -0.605246,-0.4066 -0.822265,-0.6699 -0.217019,-0.2633 -0.358932,-0.5859 -0.357422,-1.0625 0.0039,-1.2436 0.201873,-3.1465 0.400391,-5.0488 0.198517,-1.9024 0.398361,-3.8043 0.402343,-5.0684 0.009,-2.8546 1.834519,-5.49148 1.84375,-8.42966 0.0081,-2.57441 -0.89279,-5.51414 -0.884765,-8.04102 0.0079,-2.51139 -0.113358,-6.57584 -0.105469,-9.08008 0.0051,-1.60512 0.392882,-2.72261 0.787109,-3.85742 0.394227,-1.1348 0.795611,-2.28658 0.800782,-3.92383 0.0086,-2.71918 -1.539628,-5.39925 -1.53125,-8.04101 l -0.201172,-0.002 z"
       id="path4426-5"
       inkscape:connector-curvature="0" />
    <path
       style="color:#000000;font-style:normal;font-variant:normal;font-weight:normal;font-stretch:normal;font-size:medium;line-height:normal;font-family:sans-serif;text-indent:0;text-align:start;text-decoration:none;text-decoration-line:none;text-decoration-style:solid;text-decoration-color:#000000;letter-spacing:normal;word-spacing:normal;text-transform:none;direction:ltr;block-progression:tb;writing-mode:lr-tb;baseline-shift:baseline;text-anchor:start;white-space:normal;clip-rule:nonzero;display:inline;overflow:visible;visibility:visible;opacity:1;isolation:auto;mix-blend-mode:normal;color-interpolation:sRGB;color-interpolation-filters:linearRGB;solid-color:#000000;solid-opacity:1;fill:#190600;fill-opacity:1;fill-rule:evenodd;stroke:none;stroke-width:0.2;stroke-linecap:butt;stroke-linejoin:miter;stroke-miterlimit:4;stroke-dasharray:none;stroke-dashoffset:0;stroke-opacity:1;color-rendering:auto;image-rendering:auto;shape-rendering:auto;text-rendering:auto;enable-background:accumulate"
       d="m 22.091797,964.42383 c -0.0042,1.32084 -0.39182,2.41994 -0.785156,3.5332 -0.393337,1.11326 -0.792579,2.23999 -0.796875,3.59961 -0.01021,3.23436 -0.409653,6.34727 -0.419922,9.59766 -0.0078,2.4802 -1.052537,4.73021 -1.060547,7.26562 -0.0082,2.57441 0.890797,5.51414 0.882812,8.04102 -0.0091,2.88444 -0.535734,6.03896 -0.544921,8.94726 -0.0039,1.2264 -0.524104,2.9989 -1.046876,4.7715 -0.522771,1.7726 -1.048685,3.5449 -1.052734,4.8262 -0.0016,0.5178 0.160444,0.8979 0.402344,1.1914 0.2419,0.2934 0.558763,0.5035 0.865234,0.7089 0.306472,0.2055 0.603291,0.4067 0.820313,0.67 0.217021,0.2632 0.358927,0.5858 0.357422,1.0625 -0.0028,0.8971 -0.453267,2.0505 -0.910157,3.207 -0.456889,1.1566 -0.920788,2.3172 -0.923828,3.2793 -0.0063,2.0104 -0.661481,4.0408 -0.667968,6.0938 -0.0036,1.1455 0.725666,2.1347 1.435546,3.1074 0.709881,0.9726 1.401785,1.929 1.398438,2.9883 -0.0091,2.8673 -1.316925,5.3756 -1.326172,8.3027 l 0.201172,0 c 0.0091,-2.8673 1.314924,-5.3737 1.324219,-8.3008 0.0036,-1.1455 -0.725667,-2.1347 -1.435547,-3.1074 -0.70988,-0.9727 -1.399848,-1.929 -1.396485,-2.9883 0.0064,-2.0104 0.661502,-4.0427 0.667969,-6.0957 0.0028,-0.8971 0.451314,-2.0505 0.908203,-3.207 0.456889,-1.1566 0.920775,-2.3172 0.923828,-3.2793 0.0016,-0.5178 -0.160441,-0.896 -0.402343,-1.1895 -0.241902,-0.2934 -0.55681,-0.5036 -0.863282,-0.709 -0.306471,-0.2054 -0.605246,-0.4066 -0.822265,-0.6699 -0.217019,-0.2633 -0.358932,-0.5859 -0.357422,-1.0625 0.0039,-1.2263 0.524103,-2.9988 1.046875,-4.7715 0.522771,-1.7726 1.048698,-3.5448 1.052734,-4.8261 0.0091,-2.8845 0.537738,-6.04097 0.546875,-8.94926 0.0081,-2.57441 -0.89279,-5.51414 -0.884765,-8.04102 0.0078,-2.4802 1.054513,-4.72825 1.0625,-7.26367 0.01022,-3.23437 0.409656,-6.34728 0.419922,-9.59766 0.0042,-1.32084 0.39182,-2.41994 0.785156,-3.5332 0.393336,-1.11326 0.79061,-2.24194 0.794922,-3.60156 l -0.199219,0 z"
       id="path4426-9"
       inkscape:connector-curvature="0" />
    <path
       style="color:#000000;font-style:normal;font-variant:normal;font-weight:normal;font-stretch:normal;font-size:medium;line-height:normal;font-family:sans-serif;text-indent:0;text-align:start;text-decoration:none;text-decoration-line:none;text-decoration-style:solid;text-decoration-color:#000000;letter-spacing:normal;word-spacing:normal;text-transform:none;direction:ltr;block-progression:tb;writing-mode:lr-tb;baseline-shift:baseline;text-anchor:start;white-space:normal;clip-rule:nonzero;display:inline;overflow:visible;visibility:visible;opacity:1;isolation:auto;mix-blend-mode:normal;color-interpolation:sRGB;color-interpolation-filters:linearRGB;solid-color:#000000;solid-opacity:1;fill:#270b02;fill-opacity:1;fill-rule:evenodd;stroke:none;stroke-width:0.2;stroke-linecap:butt;stroke-linejoin:miter;stroke-miterlimit:4;stroke-dasharray:none;stroke-dashoffset:0;stroke-opacity:1;color-rendering:auto;image-rendering:auto;shape-rendering:auto;text-rendering:auto;enable-background:accumulate"
       d="m 17.572266,964.8125 c -0.0042,1.32728 -0.263709,2.33167 -0.527344,3.34766 -0.263635,1.01598 -0.53088,2.04329 -0.535156,3.39648 -0.01021,3.23436 -0.409653,6.34727 -0.419922,9.59766 -0.0079,2.50095 -0.275259,5.5283 -0.283203,8.04297 -0.0081,2.554 0.113518,4.71639 0.105468,7.26367 -0.009,2.85455 -1.832514,5.49146 -1.841797,8.42966 -0.0039,1.2436 -0.203826,3.1446 -0.402343,5.0469 -0.198517,1.9023 -0.396397,3.8043 -0.400391,5.0684 -0.0016,0.5178 0.160444,0.8979 0.402344,1.1914 0.2419,0.2934 0.558763,0.5035 0.865234,0.7089 0.306472,0.2055 0.603291,0.4067 0.820313,0.67 0.217021,0.2632 0.358927,0.5858 0.357422,1.0625 -0.0028,0.8971 -0.453267,2.0505 -0.910157,3.207 -0.456889,1.1566 -0.920788,2.3172 -0.923828,3.2793 -0.0063,2.0104 -0.661481,4.0408 -0.667968,6.0938 -0.0036,1.1455 0.725666,2.1347 1.435546,3.1074 0.709881,0.9726 1.401785,1.929 1.398438,2.9883 -0.0091,2.8673 -1.316925,5.3756 -1.326172,8.3027 l 0.201172,0 c 0.0091,-2.8673 1.314924,-5.3737 1.324219,-8.3008 0.0036,-1.1455 -0.725667,-2.1347 -1.435547,-3.1074 -0.70988,-0.9727 -1.399848,-1.929 -1.396485,-2.9883 0.0064,-2.0104 0.661502,-4.0427 0.667969,-6.0957 0.0028,-0.8971 0.451314,-2.0505 0.908203,-3.207 0.456889,-1.1566 0.920775,-2.3172 0.923828,-3.2793 0.0016,-0.5178 -0.160441,-0.896 -0.402343,-1.1895 -0.241902,-0.2934 -0.55681,-0.5036 -0.863282,-0.709 -0.306471,-0.2054 -0.605246,-0.4066 -0.822265,-0.6699 -0.217019,-0.2633 -0.358932,-0.5859 -0.357422,-1.0625 0.0039,-1.2436 0.201873,-3.1465 0.400391,-5.0488 0.198517,-1.9024 0.398361,-3.8043 0.402343,-5.0684 0.009,-2.8546 1.834519,-5.49148 1.84375,-8.42966 0.0081,-2.554 -0.113558,-4.71639 -0.105469,-7.26367 0.0079,-2.50096 0.275282,-5.52636 0.283204,-8.04102 0.01022,-3.23437 0.409656,-6.34728 0.419922,-9.59766 0.0042,-1.32728 0.263709,-2.33167 0.527343,-3.34765 0.263635,-1.01598 0.530865,-2.0433 0.535157,-3.39649 l -0.201172,-0.002 z"
       id="path4426-2"
       inkscape:connector-curvature="0" />
    <path
       style="color:#000000;font-style:normal;font-variant:normal;font-weight:normal;font-stretch:normal;font-size:medium;line-height:normal;font-family:sans-serif;text-indent:0;text-align:start;text-decoration:none;text-decoration-line:none;text-decoration-style:solid;text-decoration-color:#000000;letter-spacing:normal;word-spacing:normal;text-transform:none;direction:ltr;block-progression:tb;writing-mode:lr-tb;baseline-shift:baseline;text-anchor:start;white-space:normal;clip-rule:nonzero;display:inline;overflow:visible;visibility:visible;opacity:1;isolation:auto;mix-blend-mode:normal;color-interpolation:sRGB;color-interpolation-filters:linearRGB;solid-color:#000000;solid-opacity:1;fill:#34170e;fill-opacity:1;fill-rule:evenodd;stroke:none;stroke-width:0.2;stroke-linecap:butt;stroke-linejoin:miter;stroke-miterlimit:4;stroke-dasharray:none;stroke-dashoffset:0;stroke-opacity:1;color-rendering:auto;image-rendering:auto;shape-rendering:auto;text-rendering:auto;enable-background:accumulate"
       d="m 24.330078,963.38672 c -7.17e-4,0.2218 0.109364,0.47521 0.263672,0.75586 0.154308,0.28065 0.357434,0.58579 0.5625,0.88672 0.205066,0.30092 0.410695,0.59724 0.568359,0.85547 0.157665,0.25822 0.263859,0.48311 0.277344,0.60742 0.18243,1.68161 0.513899,3.13833 0.507813,5.06445 -0.01021,3.23436 -0.409653,6.34727 -0.419922,9.59766 -0.0078,2.4802 -1.052537,4.73021 -1.060547,7.26562 -0.0082,2.57441 0.890797,5.51414 0.882812,8.04102 -0.0044,1.40941 -0.841811,3.14476 -1.689453,4.88476 -0.847642,1.74 -1.704287,3.4837 -1.708984,4.9707 -0.008,2.5285 0.761763,6.2026 0.753906,8.6895 -0.0016,0.5178 0.160444,0.8979 0.402344,1.1914 0.2419,0.2934 0.558763,0.5035 0.865234,0.7089 0.306472,0.2055 0.603291,0.4067 0.820313,0.67 0.217021,0.2632 0.358927,0.5858 0.357422,1.0625 -0.0028,0.8971 -0.453267,2.0505 -0.910157,3.207 -0.456889,1.1566 -0.920788,2.3172 -0.923828,3.2793 -0.0063,2.0104 -0.661481,4.0408 -0.667968,6.0938 -0.0036,1.1455 0.725666,2.1347 1.435546,3.1074 0.709881,0.9726 1.401785,1.929 1.398438,2.9883 -0.0091,2.8673 -1.316925,5.3756 -1.326172,8.3027 l 0.201172,0 c 0.0091,-2.8673 1.314924,-5.3737 1.324219,-8.3008 0.0036,-1.1455 -0.725667,-2.1347 -1.435547,-3.1074 -0.70988,-0.9727 -1.399848,-1.929 -1.396485,-2.9883 0.0064,-2.0104 0.661502,-4.0427 0.667969,-6.0957 0.0028,-0.8971 0.451314,-2.0505 0.908203,-3.207 0.456889,-1.1566 0.920775,-2.3172 0.923828,-3.2793 0.0016,-0.5178 -0.160441,-0.896 -0.402343,-1.1895 -0.241902,-0.2934 -0.55681,-0.5036 -0.863282,-0.709 -0.306471,-0.2054 -0.605246,-0.4066 -0.822265,-0.6699 -0.217019,-0.2633 -0.358932,-0.5859 -0.357422,-1.0625 0.008,-2.5284 -0.761741,-6.2045 -0.753906,-8.6914 0.0045,-1.4094 0.841811,-3.1448 1.689453,-4.8848 0.847642,-1.73996 1.706265,-3.48371 1.710937,-4.97066 0.0081,-2.57441 -0.89279,-5.51414 -0.884765,-8.04102 0.0078,-2.4802 1.054513,-4.72825 1.0625,-7.26367 0.01022,-3.23437 0.409656,-6.34728 0.419922,-9.59766 0.0062,-1.94934 -0.328814,-3.41989 -0.509766,-5.08789 -0.02134,-0.19667 -0.142108,-0.42513 -0.304688,-0.6914 -0.162579,-0.26628 -0.369903,-0.56346 -0.574218,-0.86328 -0.204316,-0.29983 -0.406762,-0.60205 -0.554688,-0.8711 -0.147926,-0.26904 -0.236811,-0.50863 -0.236328,-0.6582 l -0.201172,0 z"
       id="path4426-28"
       inkscape:connector-curvature="0" />
    <path
       style="color:#000000;font-style:normal;font-variant:normal;font-weight:normal;font-stretch:normal;font-size:medium;line-height:normal;font-family:sans-serif;text-indent:0;text-align:start;text-decoration:none;text-decoration-line:none;text-decoration-style:solid;text-decoration-color:#000000;letter-spacing:normal;word-spacing:normal;text-transform:none;direction:ltr;block-progression:tb;writing-mode:lr-tb;baseline-shift:baseline;text-anchor:start;white-space:normal;clip-rule:nonzero;display:inline;overflow:visible;visibility:visible;opacity:1;isolation:auto;mix-blend-mode:normal;color-interpolation:sRGB;color-interpolation-filters:linearRGB;solid-color:#000000;solid-opacity:1;fill:#2a0e05;fill-opacity:1;fill-rule:evenodd;stroke:none;stroke-width:0.2;stroke-linecap:butt;stroke-linejoin:miter;stroke-miterlimit:4;stroke-dasharray:none;stroke-dashoffset:0;stroke-opacity:1;color-rendering:auto;image-rendering:auto;shape-rendering:auto;text-rendering:auto;enable-background:accumulate"
       d="m 30.611328,963.90625 c -0.0042,1.31441 -0.519931,2.54415 -1.042969,3.78711 -0.523038,1.24296 -1.054277,2.49722 -1.058593,3.86328 -0.01021,3.23436 -0.409653,6.34727 -0.419922,9.59766 -0.0078,2.4802 -1.052537,4.73021 -1.060547,7.26562 -0.0082,2.57441 0.890797,5.51414 0.882812,8.04102 -0.009,2.85455 -1.832514,5.49146 -1.841797,8.42966 -0.0039,1.2436 -0.203826,3.1446 -0.402343,5.0469 -0.198517,1.9023 -0.396397,3.8043 -0.400391,5.0684 -0.0016,0.5178 0.160444,0.8979 0.402344,1.1914 0.2419,0.2934 0.558763,0.5035 0.865234,0.7089 0.306472,0.2055 0.603291,0.4067 0.820313,0.67 0.217021,0.2632 0.358927,0.5858 0.357422,1.0625 -0.0028,0.8971 -0.453267,2.0505 -0.910157,3.207 -0.456889,1.1566 -0.920788,2.3172 -0.923828,3.2793 -0.0063,2.0104 -0.661481,4.0408 -0.667968,6.0938 -0.0036,1.1455 0.725666,2.1347 1.435546,3.1074 0.709881,0.9726 1.401785,1.929 1.398438,2.9883 -0.0091,2.8673 -1.316925,5.3756 -1.326172,8.3027 l 0.201172,0 c 0.0091,-2.8673 1.314924,-5.3737 1.324219,-8.3008 0.0036,-1.1455 -0.725667,-2.1347 -1.435547,-3.1074 -0.70988,-0.9727 -1.399848,-1.929 -1.396485,-2.9883 0.0064,-2.0104 0.661502,-4.0427 0.667969,-6.0957 0.0028,-0.8971 0.451314,-2.0505 0.908203,-3.207 0.456889,-1.1566 0.920775,-2.3172 0.923828,-3.2793 0.0016,-0.5178 -0.160441,-0.896 -0.402343,-1.1895 -0.241902,-0.2934 -0.55681,-0.5036 -0.863282,-0.709 -0.306471,-0.2054 -0.605246,-0.4066 -0.822265,-0.6699 -0.217019,-0.2633 -0.358932,-0.5859 -0.357422,-1.0625 0.0039,-1.2436 0.201873,-3.1465 0.400391,-5.0488 0.198517,-1.9024 0.398361,-3.8043 0.402343,-5.0684 0.009,-2.8546 1.834519,-5.49148 1.84375,-8.42966 0.0081,-2.57441 -0.89279,-5.51414 -0.884765,-8.04102 0.0078,-2.4802 1.054513,-4.72825 1.0625,-7.26367 0.01022,-3.23437 0.409656,-6.34728 0.419922,-9.59766 0.0042,-1.31441 0.517977,-2.54415 1.041015,-3.78711 0.523038,-1.24296 1.054262,-2.49917 1.058594,-3.86523 l -0.199219,0 z"
       id="path4426-97"
       inkscape:connector-curvature="0" />
    <path
       style="color:#000000;font-style:normal;font-variant:normal;font-weight:normal;font-stretch:normal;font-size:medium;line-height:normal;font-family:sans-serif;text-indent:0;text-align:start;text-decoration:none;text-decoration-line:none;text-decoration-style:solid;text-decoration-color:#000000;letter-spacing:normal;word-spacing:normal;text-transform:none;direction:ltr;block-progression:tb;writing-mode:lr-tb;baseline-shift:baseline;text-anchor:start;white-space:normal;clip-rule:nonzero;display:inline;overflow:visible;visibility:visible;opacity:1;isolation:auto;mix-blend-mode:normal;color-interpolation:sRGB;color-interpolation-filters:linearRGB;solid-color:#000000;solid-opacity:1;fill:#190600;fill-opacity:1;fill-rule:evenodd;stroke:none;stroke-width:0.2;stroke-linecap:butt;stroke-linejoin:miter;stroke-miterlimit:4;stroke-dasharray:none;stroke-dashoffset:0;stroke-opacity:1;color-rendering:auto;image-rendering:auto;shape-rendering:auto;text-rendering:auto;enable-background:accumulate"
       d="m 35.886719,964.42383 c -0.0086,2.69653 0.631466,4.4684 0.623047,7.13281 -0.01022,3.23436 -0.409653,6.34727 -0.419922,9.59766 -0.0078,2.4802 -1.052537,4.73021 -1.060547,7.26562 -0.004,1.25486 -0.380307,1.77984 -0.773438,2.3418 -0.39313,0.56196 -0.802546,1.1593 -0.80664,2.45508 -0.0092,2.88442 -0.537688,5.65215 -0.546875,8.5605 -0.0079,2.5186 0.373123,10.7318 0.365234,13.2286 -0.0016,0.5178 0.160444,0.8979 0.402344,1.1914 0.2419,0.2934 0.558763,0.5035 0.865234,0.7089 0.306472,0.2055 0.603291,0.4067 0.820313,0.67 0.217021,0.2632 0.358927,0.5858 0.357422,1.0625 -0.0028,0.8971 -0.453267,2.0505 -0.910157,3.207 -0.456889,1.1566 -0.920788,2.3172 -0.923828,3.2793 -0.0063,2.0104 -0.661481,4.0408 -0.667968,6.0938 -0.0036,1.1455 0.725666,2.1347 1.435546,3.1074 0.709881,0.9726 1.401785,1.929 1.398438,2.9883 -0.0091,2.8673 -1.316925,5.3756 -1.326172,8.3027 l 0.201172,0 c 0.0091,-2.8673 1.314924,-5.3737 1.324219,-8.3008 0.0036,-1.1455 -0.725667,-2.1347 -1.435547,-3.1074 -0.70988,-0.9727 -1.399848,-1.929 -1.396485,-2.9883 0.0064,-2.0104 0.661502,-4.0427 0.667969,-6.0957 0.0028,-0.8971 0.451314,-2.0505 0.908203,-3.207 0.456889,-1.1566 0.920775,-2.3172 0.923828,-3.2793 0.0016,-0.5178 -0.160441,-0.896 -0.402343,-1.1895 -0.241902,-0.2934 -0.55681,-0.5036 -0.863282,-0.709 -0.306471,-0.2054 -0.605246,-0.4066 -0.822265,-0.6699 -0.217019,-0.2633 -0.358932,-0.5859 -0.357422,-1.0625 0.008,-2.5184 -0.3731,-10.7336 -0.365235,-13.2305 0.0091,-2.88445 0.537638,-5.65023 0.546876,-8.55855 0.004,-1.25486 0.378354,-1.78179 0.771484,-2.34375 0.39313,-0.56196 0.804479,-1.1593 0.808594,-2.45508 0.0078,-2.4802 1.054513,-4.72825 1.0625,-7.26367 0.01022,-3.23437 0.409656,-6.34728 0.419922,-9.59766 0.0085,-2.69652 -0.631496,-4.47035 -0.623047,-7.13476 l -0.201172,0 z"
       id="path4426-3"
       inkscape:connector-curvature="0" />
    <path
       style="color:#000000;font-style:normal;font-variant:normal;font-weight:normal;font-stretch:normal;font-size:medium;line-height:normal;font-family:sans-serif;text-indent:0;text-align:start;text-decoration:none;text-decoration-line:none;text-decoration-style:solid;text-decoration-color:#000000;letter-spacing:normal;word-spacing:normal;text-transform:none;direction:ltr;block-progression:tb;writing-mode:lr-tb;baseline-shift:baseline;text-anchor:start;white-space:normal;clip-rule:nonzero;display:inline;overflow:visible;visibility:visible;opacity:1;isolation:auto;mix-blend-mode:normal;color-interpolation:sRGB;color-interpolation-filters:linearRGB;solid-color:#000000;solid-opacity:1;fill:#250e07;fill-opacity:1;fill-rule:evenodd;stroke:none;stroke-width:0.2;stroke-linecap:butt;stroke-linejoin:miter;stroke-miterlimit:4;stroke-dasharray:none;stroke-dashoffset:0;stroke-opacity:1;color-rendering:auto;image-rendering:auto;shape-rendering:auto;text-rendering:auto;enable-background:accumulate"
       d="m 42.871094,963.64648 c -0.0042,1.3112 -0.583986,2.60625 -1.171875,3.91407 -0.587889,1.30781 -1.185127,2.62682 -1.189453,3.99609 -0.01022,3.23436 -0.409653,6.34727 -0.419922,9.59766 -0.0078,2.4802 -1.052537,4.73021 -1.060547,7.26562 -0.004,1.24476 -0.578333,2.20792 -1.166016,3.19141 -0.587683,0.98349 -1.189233,1.98709 -1.193359,3.29297 -0.0047,1.46465 0.349061,3.23928 0.701172,5.01172 0.352111,1.77238 0.703741,3.54288 0.699218,4.97458 -0.0039,1.2436 -0.203826,3.1446 -0.402343,5.0469 -0.198517,1.9023 -0.396397,3.8043 -0.400391,5.0684 -0.0016,0.5178 0.160444,0.8979 0.402344,1.1914 0.2419,0.2934 0.558763,0.5035 0.865234,0.7089 0.306472,0.2055 0.603291,0.4067 0.820313,0.67 0.217021,0.2632 0.358927,0.5858 0.357422,1.0625 -0.0028,0.8971 -0.453267,2.0505 -0.910157,3.207 -0.456889,1.1566 -0.920788,2.3172 -0.923828,3.2793 -0.0063,2.0104 -0.661481,4.0408 -0.667968,6.0938 -0.0036,1.1455 0.725666,2.1347 1.435546,3.1074 0.709881,0.9726 1.401785,1.929 1.398438,2.9883 -0.0091,2.8673 -1.316925,5.3756 -1.326172,8.3027 l 0.201172,0 c 0.0091,-2.8673 1.314924,-5.3737 1.324219,-8.3008 0.0036,-1.1455 -0.725667,-2.1347 -1.435547,-3.1074 -0.70988,-0.9727 -1.399848,-1.929 -1.396485,-2.9883 0.0064,-2.0104 0.661502,-4.0427 0.667969,-6.0957 0.0028,-0.8971 0.451314,-2.0505 0.908203,-3.207 0.456889,-1.1566 0.920775,-2.3172 0.923828,-3.2793 0.0016,-0.5178 -0.160441,-0.896 -0.402343,-1.1895 -0.241902,-0.2934 -0.55681,-0.5036 -0.863282,-0.709 -0.306471,-0.2054 -0.605246,-0.4066 -0.822265,-0.6699 -0.217019,-0.2633 -0.358932,-0.5859 -0.357422,-1.0625 0.0039,-1.2436 0.201873,-3.1465 0.400391,-5.0488 0.198517,-1.9024 0.398361,-3.8043 0.402343,-5.0684 0.0046,-1.4646 -0.349061,-3.2412 -0.701172,-5.01365 -0.352111,-1.77243 -0.703766,-3.54094 -0.699218,-4.97265 0.0039,-1.24477 0.578333,-2.20792 1.166015,-3.19141 0.587683,-0.98349 1.189213,-1.98709 1.19336,-3.29297 0.0078,-2.4802 1.054513,-4.72825 1.0625,-7.26367 0.01022,-3.23437 0.409656,-6.34728 0.419922,-9.59766 0.0041,-1.31119 0.582032,-2.6082 1.169921,-3.91601 0.587889,-1.30781 1.185111,-2.62682 1.189453,-3.9961 l -0.199218,0 z"
       id="path4426-6"
       inkscape:connector-curvature="0" />
    <path
       style="color:#000000;font-style:normal;font-variant:normal;font-weight:normal;font-stretch:normal;font-size:medium;line-height:normal;font-family:sans-serif;text-indent:0;text-align:start;text-decoration:none;text-decoration-line:none;text-decoration-style:solid;text-decoration-color:#000000;letter-spacing:normal;word-spacing:normal;text-transform:none;direction:ltr;block-progression:tb;writing-mode:lr-tb;baseline-shift:baseline;text-anchor:start;white-space:normal;clip-rule:nonzero;display:inline;overflow:visible;visibility:visible;opacity:1;isolation:auto;mix-blend-mode:normal;color-interpolation:sRGB;color-interpolation-filters:linearRGB;solid-color:#000000;solid-opacity:1;fill:#270b02;fill-opacity:1;fill-rule:evenodd;stroke:none;stroke-width:0.2;stroke-linecap:butt;stroke-linejoin:miter;stroke-miterlimit:4;stroke-dasharray:none;stroke-dashoffset:0;stroke-opacity:1;color-rendering:auto;image-rendering:auto;shape-rendering:auto;text-rendering:auto;enable-background:accumulate"
       d="m 44.978516,963.51562 c -0.0086,2.71919 1.539597,5.39926 1.53125,8.04102 -0.01022,3.23436 -0.409653,6.34727 -0.419922,9.59766 -0.0078,2.4802 -1.052537,4.73021 -1.060547,7.26562 -0.0041,1.29922 0.446553,3.57497 0.896484,5.85547 0.449931,2.2805 0.898486,4.56501 0.894531,5.81641 -0.0022,0.7084 -0.168725,1.1637 -0.414062,1.5059 -0.245337,0.3421 -0.575217,0.5728 -0.917969,0.8105 -0.342751,0.2377 -0.696859,0.4829 -0.966797,0.8594 -0.269937,0.3764 -0.448834,0.8832 -0.451172,1.623 -0.0039,1.2436 -0.203826,3.1446 -0.402343,5.0469 -0.198517,1.9023 -0.396397,3.8043 -0.400391,5.0684 -0.0064,2.0194 0.894859,4.9166 0.888672,6.875 -0.0059,1.8639 0.117187,4.1123 0.111328,5.9668 -0.0064,2.0443 0.377474,3.2973 0.371094,5.3164 -0.0036,1.1238 0.369456,1.6484 0.722656,2.1347 0.353201,0.4863 0.68701,0.9347 0.683594,2.0157 -0.0091,2.8673 -1.316925,5.3756 -1.326172,8.3027 l 0.201172,0 c 0.0091,-2.8673 1.314924,-5.3737 1.324219,-8.3008 0.0036,-1.1238 -0.369456,-1.6485 -0.722657,-2.1348 -0.3532,-0.4863 -0.687025,-0.9346 -0.683593,-2.0156 0.0065,-2.0444 -0.375501,-3.2993 -0.369141,-5.3183 0.0059,-1.8639 -0.117213,-4.1104 -0.111328,-5.9649 0.0064,-2.0194 -0.896828,-4.9166 -0.890625,-6.875 0.0039,-1.2436 0.201873,-3.1465 0.400391,-5.0488 0.198517,-1.9024 0.398361,-3.8043 0.402343,-5.0684 0.0022,-0.7083 0.168732,-1.1637 0.414063,-1.5058 0.24533,-0.3422 0.575217,-0.5748 0.917968,-0.8125 0.342752,-0.2377 0.698807,-0.481 0.96875,-0.8575 0.269944,-0.3764 0.448822,-0.8832 0.451172,-1.623 0.0041,-1.2992 -0.448506,-3.57497 -0.898437,-5.85547 -0.449931,-2.2805 -0.898505,-4.56499 -0.894531,-5.81641 0.0078,-2.4802 1.054513,-4.72825 1.0625,-7.26367 0.01022,-3.23437 0.409656,-6.34728 0.419922,-9.59766 0.0086,-2.71918 -1.539628,-5.39925 -1.53125,-8.04101 l -0.201172,-0.002 z"
       id="path4426-1"
       inkscape:connector-curvature="0" />
    <path
       style="color:#000000;font-style:normal;font-variant:normal;font-weight:normal;font-stretch:normal;font-size:medium;line-height:normal;font-family:sans-serif;text-indent:0;text-align:start;text-decoration:none;text-decoration-line:none;text-decoration-style:solid;text-decoration-color:#000000;letter-spacing:normal;word-spacing:normal;text-transform:none;direction:ltr;block-progression:tb;writing-mode:lr-tb;baseline-shift:baseline;text-anchor:start;white-space:normal;clip-rule:nonzero;display:inline;overflow:visible;visibility:visible;opacity:1;isolation:auto;mix-blend-mode:normal;color-interpolation:sRGB;color-interpolation-filters:linearRGB;solid-color:#000000;solid-opacity:1;fill:#270e06;fill-opacity:1;fill-rule:evenodd;stroke:none;stroke-width:0.2;stroke-linecap:butt;stroke-linejoin:miter;stroke-miterlimit:4;stroke-dasharray:none;stroke-dashoffset:0;stroke-opacity:1;color-rendering:auto;image-rendering:auto;shape-rendering:auto;text-rendering:auto;enable-background:accumulate"
       d="m 68.40625,964.03516 c -0.0085,2.68365 0.111976,4.8442 0.103516,7.52148 -0.01022,3.23436 -0.409653,6.34727 -0.419922,9.59766 -0.0039,1.2314 -0.416302,1.94068 -0.841797,2.67578 -0.425495,0.7351 -0.863155,1.49703 -0.867188,2.77344 -0.0041,1.29575 0.382499,3.12266 0.767579,4.94921 0.385079,1.82655 0.767637,3.65332 0.763671,4.90821 -0.0091,2.85456 -1.832514,5.49146 -1.841797,8.42966 -0.0039,1.2436 -0.203826,3.1446 -0.402343,5.0469 -0.198517,1.9023 -0.396397,3.8043 -0.400391,5.0684 -0.0016,0.5178 0.160444,0.8979 0.402344,1.1914 0.2419,0.2934 0.558763,0.5035 0.865234,0.7089 0.306472,0.2055 0.603291,0.4067 0.820313,0.67 0.217021,0.2632 0.358927,0.5858 0.357422,1.0625 -0.0028,0.8971 -0.453267,2.0505 -0.910157,3.207 -0.456889,1.1566 -0.920788,2.3172 -0.923828,3.2793 -0.0063,2.0104 -0.661481,4.0408 -0.667968,6.0938 -0.0036,1.1455 0.725666,2.1347 1.435546,3.1074 0.709881,0.9726 1.401785,1.929 1.398438,2.9883 -0.0091,2.8673 -1.316925,5.3756 -1.326172,8.3027 l 0.201172,0 c 0.0091,-2.8673 1.314924,-5.3737 1.324219,-8.3008 0.0036,-1.1455 -0.725667,-2.1347 -1.435547,-3.1074 -0.70988,-0.9727 -1.399848,-1.929 -1.396485,-2.9883 0.0064,-2.0104 0.661502,-4.0427 0.667969,-6.0957 0.0028,-0.8971 0.451314,-2.0505 0.908203,-3.207 0.456889,-1.1566 0.920775,-2.3172 0.923828,-3.2793 0.0016,-0.5178 -0.160441,-0.896 -0.402343,-1.1895 -0.241902,-0.2934 -0.55681,-0.5036 -0.863282,-0.709 -0.306471,-0.2054 -0.605246,-0.4066 -0.822265,-0.6699 -0.217019,-0.2633 -0.358932,-0.5859 -0.357422,-1.0625 0.0039,-1.2436 0.201873,-3.1465 0.400391,-5.0488 0.198517,-1.9024 0.398361,-3.8043 0.402343,-5.0684 0.009,-2.8546 1.834417,-5.49148 1.84375,-8.42966 0.0041,-1.29575 -0.384451,-3.12267 -0.769531,-4.94922 -0.38508,-1.82655 -0.767657,-3.65332 -0.763672,-4.9082 0.0039,-1.23141 0.416302,-1.93873 0.841797,-2.67383 0.425495,-0.7351 0.86512,-1.49704 0.869141,-2.77344 0.01022,-3.23437 0.409656,-6.34728 0.419922,-9.59766 0.0085,-2.68365 -0.113959,-4.84615 -0.105469,-7.52343 l -0.199219,0 z"
       id="path4426-28-2"
       inkscape:connector-curvature="0" />
    <path
       style="color:#000000;font-style:normal;font-variant:normal;font-weight:normal;font-stretch:normal;font-size:medium;line-height:normal;font-family:sans-serif;text-indent:0;text-align:start;text-decoration:none;text-decoration-line:none;text-decoration-style:solid;text-decoration-color:#000000;letter-spacing:normal;word-spacing:normal;text-transform:none;direction:ltr;block-progression:tb;writing-mode:lr-tb;baseline-shift:baseline;text-anchor:start;white-space:normal;clip-rule:nonzero;display:inline;overflow:visible;visibility:visible;opacity:1;isolation:auto;mix-blend-mode:normal;color-interpolation:sRGB;color-interpolation-filters:linearRGB;solid-color:#000000;solid-opacity:1;fill:#39170d;fill-opacity:1;fill-rule:evenodd;stroke:none;stroke-width:0.2;stroke-linecap:butt;stroke-linejoin:miter;stroke-miterlimit:4;stroke-dasharray:none;stroke-dashoffset:0;stroke-opacity:1;color-rendering:auto;image-rendering:auto;shape-rendering:auto;text-rendering:auto;enable-background:accumulate"
       d="m 68.978516,963.51562 c -0.0086,2.71919 1.539597,5.39926 1.53125,8.04102 -0.01022,3.23436 -0.409653,6.34727 -0.419922,9.59766 -0.0039,1.2333 -0.39404,3.00658 -0.78711,4.77929 -0.393069,1.77272 -0.788942,3.54581 -0.792968,4.82032 -0.0082,2.57441 0.89275,5.64305 0.884765,8.16992 -0.0046,1.43317 -0.325474,2.17607 -0.654297,2.94337 -0.328823,0.7672 -0.665299,1.5602 -0.669922,3.0234 -0.0039,1.2436 -0.203826,3.1446 -0.402343,5.0469 -0.198517,1.9023 -0.396397,3.8043 -0.400391,5.0684 -0.0016,0.5178 0.160444,0.8979 0.402344,1.1914 0.2419,0.2934 0.558763,0.5035 0.865234,0.7089 0.306472,0.2055 0.603291,0.4067 0.820313,0.67 0.217021,0.2632 0.358927,0.5858 0.357422,1.0625 -0.0028,0.8971 -0.453267,2.0505 -0.910157,3.207 -0.456889,1.1566 -0.920788,2.3172 -0.923828,3.2793 -0.0063,2.0104 -0.661481,4.0408 -0.667968,6.0938 -0.0036,1.1455 0.725666,2.1347 1.435546,3.1074 0.709881,0.9726 1.401785,1.929 1.398438,2.9883 -0.0091,2.8673 -1.316925,5.3756 -1.326172,8.3027 l 0.201172,0 c 0.0091,-2.8673 1.314924,-5.3737 1.324219,-8.3008 0.0036,-1.1455 -0.725667,-2.1347 -1.435547,-3.1074 -0.70988,-0.9727 -1.399848,-1.929 -1.396485,-2.9883 0.0064,-2.0104 0.661502,-4.0427 0.667969,-6.0957 0.0028,-0.8971 0.451314,-2.0505 0.908203,-3.207 0.456889,-1.1566 0.920775,-2.3172 0.923828,-3.2793 0.0016,-0.5178 -0.160441,-0.896 -0.402343,-1.1895 -0.241902,-0.2934 -0.55681,-0.5036 -0.863282,-0.709 -0.306471,-0.2054 -0.605246,-0.4066 -0.822265,-0.6699 -0.217019,-0.2633 -0.358932,-0.5859 -0.357422,-1.0625 0.0039,-1.2436 0.201873,-3.1465 0.400391,-5.0488 0.198517,-1.9024 0.398361,-3.8043 0.402343,-5.0684 0.0045,-1.4332 0.325475,-2.1761 0.654297,-2.9433 0.328823,-0.7673 0.665274,-1.5583 0.669922,-3.02152 0.0081,-2.57441 -0.890837,-5.64501 -0.882812,-8.17187 0.0039,-1.23331 0.394039,-3.00463 0.787109,-4.77735 0.39307,-1.77271 0.788954,-3.5458 0.792969,-4.82031 0.01022,-3.23437 0.409656,-6.34728 0.419922,-9.59766 0.0086,-2.71918 -1.539628,-5.39925 -1.53125,-8.04101 l -0.201172,-0.002 z"
       id="path4426-97-9"
       inkscape:connector-curvature="0" />
    <path
       style="color:#000000;font-style:normal;font-variant:normal;font-weight:normal;font-stretch:normal;font-size:medium;line-height:normal;font-family:sans-serif;text-indent:0;text-align:start;text-decoration:none;text-decoration-line:none;text-decoration-style:solid;text-decoration-color:#000000;letter-spacing:normal;word-spacing:normal;text-transform:none;direction:ltr;block-progression:tb;writing-mode:lr-tb;baseline-shift:baseline;text-anchor:start;white-space:normal;clip-rule:nonzero;display:inline;overflow:visible;visibility:visible;opacity:1;isolation:auto;mix-blend-mode:normal;color-interpolation:sRGB;color-interpolation-filters:linearRGB;solid-color:#000000;solid-opacity:1;fill:#3b1407;fill-opacity:1;fill-rule:evenodd;stroke:none;stroke-width:0.2;stroke-linecap:butt;stroke-linejoin:miter;stroke-miterlimit:4;stroke-dasharray:none;stroke-dashoffset:0;stroke-opacity:1;color-rendering:auto;image-rendering:auto;shape-rendering:auto;text-rendering:auto;enable-background:accumulate"
       d="m 76.978516,963.51562 c -0.0086,2.71919 1.539597,5.39926 1.53125,8.04102 -0.01022,3.23436 -0.409653,6.34727 -0.419922,9.59766 -0.0078,2.4802 -1.052537,4.73021 -1.060547,7.26562 -0.0082,2.57441 0.890797,5.51414 0.882812,8.04102 -0.0091,2.85456 -1.832514,5.49146 -1.841797,8.42966 -0.0039,1.2436 -0.203826,3.1446 -0.402343,5.0469 -0.198517,1.9023 -0.396397,3.8043 -0.400391,5.0684 -0.0016,0.5178 0.160444,0.8979 0.402344,1.1914 0.2419,0.2934 0.558763,0.5035 0.865234,0.7089 0.306472,0.2055 0.603291,0.4067 0.820313,0.67 0.217021,0.2632 0.358927,0.5858 0.357422,1.0625 -0.0028,0.8971 -0.453267,2.0505 -0.910157,3.207 -0.456889,1.1566 -0.920788,2.3172 -0.923828,3.2793 -0.0063,2.0104 -0.661481,4.0408 -0.667968,6.0938 -0.0036,1.1455 0.725666,2.1347 1.435546,3.1074 0.709881,0.9726 1.401785,1.929 1.398438,2.9883 -0.0091,2.8673 -1.316925,5.3756 -1.326172,8.3027 l 0.201172,0 c 0.0091,-2.8673 1.314924,-5.3737 1.324219,-8.3008 0.0036,-1.1455 -0.725667,-2.1347 -1.435547,-3.1074 -0.70988,-0.9727 -1.399848,-1.929 -1.396485,-2.9883 0.0064,-2.0104 0.661502,-4.0427 0.667969,-6.0957 0.0028,-0.8971 0.451314,-2.0505 0.908203,-3.207 0.456889,-1.1566 0.920775,-2.3172 0.923828,-3.2793 0.0016,-0.5178 -0.160441,-0.896 -0.402343,-1.1895 -0.241902,-0.2934 -0.55681,-0.5036 -0.863282,-0.709 -0.306471,-0.2054 -0.605246,-0.4066 -0.822265,-0.6699 -0.217019,-0.2633 -0.358932,-0.5859 -0.357422,-1.0625 0.0039,-1.2436 0.201873,-3.1465 0.400391,-5.0488 0.198517,-1.9024 0.398361,-3.8043 0.402343,-5.0684 0.009,-2.8546 1.834417,-5.49148 1.84375,-8.42966 0.0081,-2.57441 -0.89279,-5.51414 -0.884765,-8.04102 0.0078,-2.4802 1.054513,-4.72825 1.0625,-7.26367 0.01022,-3.23437 0.409656,-6.34728 0.419922,-9.59766 0.0086,-2.71918 -1.539628,-5.39925 -1.53125,-8.04101 l -0.201172,-0.002 z"
       id="path4426-3-3"
       inkscape:connector-curvature="0" />
    <path
       style="color:#000000;font-style:normal;font-variant:normal;font-weight:normal;font-stretch:normal;font-size:medium;line-height:normal;font-family:sans-serif;text-indent:0;text-align:start;text-decoration:none;text-decoration-line:none;text-decoration-style:solid;text-decoration-color:#000000;letter-spacing:normal;word-spacing:normal;text-transform:none;direction:ltr;block-progression:tb;writing-mode:lr-tb;baseline-shift:baseline;text-anchor:start;white-space:normal;clip-rule:nonzero;display:inline;overflow:visible;visibility:visible;opacity:1;isolation:auto;mix-blend-mode:normal;color-interpolation:sRGB;color-interpolation-filters:linearRGB;solid-color:#000000;solid-opacity:1;fill:#421709;fill-opacity:1;fill-rule:evenodd;stroke:none;stroke-width:0.2;stroke-linecap:butt;stroke-linejoin:miter;stroke-miterlimit:4;stroke-dasharray:none;stroke-dashoffset:0;stroke-opacity:1;color-rendering:auto;image-rendering:auto;shape-rendering:auto;text-rendering:auto;enable-background:accumulate"
       d="m 83.054688,963.90625 c -0.0085,2.66754 -0.536412,4.95699 -0.544922,7.65039 -0.01022,3.23436 -0.409653,6.34727 -0.419922,9.59766 -0.0078,2.4802 -1.052537,4.73021 -1.060547,7.26562 -0.0041,1.30247 0.516468,2.74615 1.03125,4.1836 0.514781,1.43744 1.023475,2.86706 1.019531,4.11523 -0.0045,1.41384 -0.741834,2.71863 -1.492187,4.03715 -0.750354,1.3184 -1.512895,2.6522 -1.517579,4.1347 -0.004,1.2746 0.384391,2.7594 0.769532,4.2403 0.38514,1.4808 0.765615,2.9563 0.761718,4.1894 -0.0063,1.9932 0.117598,3.3338 0.111329,5.3184 -0.0028,0.8971 -0.453267,2.0505 -0.910157,3.207 -0.456889,1.1566 -0.920788,2.3172 -0.923828,3.2793 -0.0065,2.07 1.154737,3.9714 1.148438,5.9648 -0.0071,2.2362 1.024446,4.0512 1.017578,6.2247 -0.0091,2.8673 -1.316925,5.3756 -1.326172,8.3027 l 0.201172,0 c 0.0091,-2.8673 1.314924,-5.3737 1.324219,-8.3008 0.0071,-2.2361 -1.024479,-4.0531 -1.017579,-6.2266 0.0065,-2.0699 -1.152763,-3.9714 -1.146484,-5.9648 0.0028,-0.8971 0.451314,-2.0505 0.908203,-3.207 0.456889,-1.1566 0.920775,-2.3172 0.923828,-3.2793 0.0063,-1.9932 -0.115661,-3.3318 -0.109375,-5.3164 0.004,-1.2746 -0.384391,-2.7614 -0.769531,-4.2422 -0.38514,-1.4808 -0.767556,-2.9564 -0.763672,-4.1895 0.0045,-1.4138 0.741835,-2.7186 1.492188,-4.0371 0.750353,-1.31846 1.512869,-2.65026 1.517578,-4.1328 0.0041,-1.30246 -0.516469,-2.7481 -1.03125,-4.18554 -0.514782,-1.43745 -1.023495,-2.86707 -1.019531,-4.11524 0.0078,-2.4802 1.054513,-4.72825 1.0625,-7.26367 0.01022,-3.23437 0.409656,-6.34728 0.419922,-9.59766 0.0084,-2.66753 0.534427,-4.95894 0.542968,-7.65234 l -0.199218,0 z"
       id="path4426-6-1"
       inkscape:connector-curvature="0" />
    <path
       style="color:#000000;font-style:normal;font-variant:normal;font-weight:normal;font-stretch:normal;font-size:medium;line-height:normal;font-family:sans-serif;text-indent:0;text-align:start;text-decoration:none;text-decoration-line:none;text-decoration-style:solid;text-decoration-color:#000000;letter-spacing:normal;word-spacing:normal;text-transform:none;direction:ltr;block-progression:tb;writing-mode:lr-tb;baseline-shift:baseline;text-anchor:start;white-space:normal;clip-rule:nonzero;display:inline;overflow:visible;visibility:visible;opacity:1;isolation:auto;mix-blend-mode:normal;color-interpolation:sRGB;color-interpolation-filters:linearRGB;solid-color:#000000;solid-opacity:1;fill:#381408;fill-opacity:1;fill-rule:evenodd;stroke:none;stroke-width:0.2;stroke-linecap:butt;stroke-linejoin:miter;stroke-miterlimit:4;stroke-dasharray:none;stroke-dashoffset:0;stroke-opacity:1;color-rendering:auto;image-rendering:auto;shape-rendering:auto;text-rendering:auto;enable-background:accumulate"
       d="m 86.978516,963.51562 c -0.0086,2.71919 1.539597,5.39926 1.53125,8.04102 -0.01022,3.23436 -0.409653,6.34727 -0.419922,9.59766 -0.0039,1.22962 -0.428799,1.59111 -0.886719,2.00195 -0.45792,0.41084 -0.949087,0.87221 -0.953125,2.15039 -0.0041,1.2975 0.416479,3.4449 0.833984,5.5957 0.417506,2.15081 0.832085,4.30546 0.828125,5.5586 -0.0047,1.4645 0.358827,2.22611 0.710938,2.96094 0.352111,0.73482 0.693976,1.44112 0.689453,2.87302 -0.0039,1.2264 -0.524104,3.3609 -1.046875,5.4903 -0.522771,2.1293 -1.048686,4.2539 -1.052734,5.5351 -0.0064,2.0062 0.506228,3.3468 0.5,5.3184 -0.0059,1.8688 0.248031,6.9708 0.242187,8.8203 -0.0015,0.4855 -0.162132,0.8172 -0.40625,1.0918 -0.244117,0.2746 -0.577849,0.489 -0.919922,0.7051 -0.342073,0.2161 -0.691144,0.4347 -0.960937,0.7382 -0.269794,0.3035 -0.455356,0.6943 -0.457031,1.2247 -0.0036,1.1455 0.725666,2.1347 1.435546,3.1074 0.709881,0.9726 1.401785,1.929 1.398438,2.9883 -0.0091,2.8673 -1.316925,5.3756 -1.326172,8.3027 l 0.201172,0 c 0.0091,-2.8673 1.314924,-5.3737 1.324219,-8.3008 0.0036,-1.1455 -0.725667,-2.1347 -1.435547,-3.1074 -0.70988,-0.9727 -1.399848,-1.929 -1.396485,-2.9883 0.0015,-0.4855 0.160177,-0.8191 0.404297,-1.0937 0.24412,-0.2747 0.577849,-0.4871 0.919922,-0.7032 0.342073,-0.2161 0.6931,-0.4348 0.962891,-0.7383 0.269791,-0.3034 0.453407,-0.6962 0.455078,-1.2265 0.0059,-1.8689 -0.248057,-6.9708 -0.242188,-8.8203 0.0063,-2.0062 -0.506245,-3.3449 -0.5,-5.3164 0.0039,-1.2264 0.524104,-3.361 1.046875,-5.4903 0.522772,-2.1293 1.048698,-4.2538 1.052735,-5.5351 0.0046,-1.4646 -0.356874,-2.2261 -0.708985,-2.96096 -0.352111,-0.73483 -0.694001,-1.44313 -0.689453,-2.875 0.0041,-1.2975 -0.416479,-3.4449 -0.833984,-5.59571 -0.417505,-2.1508 -0.832105,-4.30545 -0.828125,-5.55859 0.0039,-1.22963 0.428798,-1.59111 0.886719,-2.00195 0.45792,-0.41085 0.949098,-0.87026 0.953125,-2.14844 0.01022,-3.23437 0.409656,-6.34728 0.419922,-9.59766 0.0086,-2.71918 -1.539628,-5.39925 -1.53125,-8.04101 l -0.201172,-0.002 z"
       id="path4426-1-9"
       inkscape:connector-curvature="0" />
    <path
       style="color:#000000;font-style:normal;font-variant:normal;font-weight:normal;font-stretch:normal;font-size:medium;line-height:normal;font-family:sans-serif;text-indent:0;text-align:start;text-decoration:none;text-decoration-line:none;text-decoration-style:solid;text-decoration-color:#000000;letter-spacing:normal;word-spacing:normal;text-transform:none;direction:ltr;block-progression:tb;writing-mode:lr-tb;baseline-shift:baseline;text-anchor:start;white-space:normal;clip-rule:nonzero;display:inline;overflow:visible;visibility:visible;opacity:1;isolation:auto;mix-blend-mode:normal;color-interpolation:sRGB;color-interpolation-filters:linearRGB;solid-color:#000000;solid-opacity:1;fill:#251510;fill-opacity:1;fill-rule:evenodd;stroke:none;stroke-width:0.2;stroke-linecap:butt;stroke-linejoin:miter;stroke-miterlimit:4;stroke-dasharray:none;stroke-dashoffset:0;stroke-opacity:1;color-rendering:auto;image-rendering:auto;shape-rendering:auto;text-rendering:auto;enable-background:accumulate"
       d="m 49.552734,963.77539 c -0.0044,1.37732 0.750634,2.66602 1.492188,3.94141 0.741553,1.27538 1.468961,2.53669 1.464844,3.83984 -0.01022,3.23436 -0.409653,6.34727 -0.419922,9.59766 -0.0078,2.4802 -1.052537,4.73021 -1.060547,7.26562 -0.0082,2.57441 0.890797,5.51414 0.882812,8.04102 -0.0091,2.85456 -1.832514,5.49146 -1.841797,8.42966 -0.0039,1.2436 -0.203826,3.1446 -0.402343,5.0469 -0.198517,1.9023 -0.396397,3.8043 -0.400391,5.0684 -0.0016,0.5178 0.160444,0.8979 0.402344,1.1914 0.2419,0.2934 0.558763,0.5035 0.865234,0.7089 0.306472,0.2055 0.603291,0.4067 0.820313,0.67 0.217021,0.2632 0.358927,0.5858 0.357422,1.0625 -0.003,0.9552 0.357191,1.9587 0.710937,2.9531 0.353746,0.9944 0.700122,1.9808 0.697266,2.8848 -0.003,0.952 -0.955666,2.1286 -1.931641,3.3066 -0.975975,1.178 -1.975104,2.3559 -1.978515,3.4356 -0.0036,1.1455 0.725666,2.1347 1.435546,3.1074 0.709881,0.9726 1.401785,1.929 1.398438,2.9883 -0.0091,2.8673 -1.316925,5.3756 -1.326172,8.3027 l 0.201172,0 c 0.0091,-2.8673 1.314924,-5.3737 1.324219,-8.3008 0.0036,-1.1455 -0.725667,-2.1347 -1.435547,-3.1074 -0.70988,-0.9727 -1.399848,-1.929 -1.396485,-2.9883 0.003,-0.952 0.955666,-2.1306 1.931641,-3.3086 0.975975,-1.178 1.975115,-2.3559 1.978516,-3.4355 0.003,-0.9552 -0.357192,-1.9587 -0.710938,-2.9532 -0.353746,-0.9944 -0.702087,-1.9807 -0.699219,-2.8847 0.0016,-0.5178 -0.160441,-0.896 -0.402343,-1.1895 -0.241902,-0.2934 -0.55681,-0.5036 -0.863282,-0.709 -0.306471,-0.2054 -0.605246,-0.4066 -0.822265,-0.6699 -0.217019,-0.2633 -0.358932,-0.5859 -0.357422,-1.0625 0.0039,-1.2436 0.201873,-3.1465 0.400391,-5.0488 0.198517,-1.9024 0.398361,-3.8043 0.402343,-5.0684 0.009,-2.8546 1.834417,-5.49148 1.84375,-8.42966 0.0081,-2.57441 -0.89279,-5.51414 -0.884765,-8.04102 0.0078,-2.4802 1.054513,-4.72825 1.0625,-7.26367 0.01022,-3.23437 0.409656,-6.34728 0.419922,-9.59766 0.0044,-1.37732 -0.752588,-2.66602 -1.494141,-3.9414 -0.741554,-1.27539 -1.468976,-2.53865 -1.464844,-3.8418 l -0.199219,0 z"
       id="path4426-28-4"
       inkscape:connector-curvature="0" />
    <path
       style="color:#000000;font-style:normal;font-variant:normal;font-weight:normal;font-stretch:normal;font-size:medium;line-height:normal;font-family:sans-serif;text-indent:0;text-align:start;text-decoration:none;text-decoration-line:none;text-decoration-style:solid;text-decoration-color:#000000;letter-spacing:normal;word-spacing:normal;text-transform:none;direction:ltr;block-progression:tb;writing-mode:lr-tb;baseline-shift:baseline;text-anchor:start;white-space:normal;clip-rule:nonzero;display:inline;overflow:visible;visibility:visible;opacity:1;isolation:auto;mix-blend-mode:normal;color-interpolation:sRGB;color-interpolation-filters:linearRGB;solid-color:#000000;solid-opacity:1;fill:#2f1108;fill-opacity:1;fill-rule:evenodd;stroke:none;stroke-width:0.2;stroke-linecap:butt;stroke-linejoin:miter;stroke-miterlimit:4;stroke-dasharray:none;stroke-dashoffset:0;stroke-opacity:1;color-rendering:auto;image-rendering:auto;shape-rendering:auto;text-rendering:auto;enable-background:accumulate"
       d="m 56.741392,963.77576 c -0.0042,1.31118 -0.583986,2.50821 -1.171875,3.71875 -0.587889,1.21053 -1.185127,2.43344 -1.189453,3.80273 -0.01022,3.23436 -0.409653,6.34727 -0.419922,9.59766 -0.0078,2.4802 -1.052537,4.73021 -1.060547,7.26562 -0.0082,2.57441 0.890797,5.51414 0.882812,8.04102 -0.0091,2.85456 -1.832514,5.49146 -1.841797,8.42966 -0.0039,1.2436 -0.203826,3.1446 -0.402343,5.0469 -0.198517,1.9023 -0.396397,3.8043 -0.400391,5.0684 -0.0016,0.5178 0.160444,0.8979 0.402344,1.1914 0.2419,0.2934 0.558763,0.5035 0.865234,0.7089 0.306472,0.2055 0.603291,0.4067 0.820313,0.67 0.217021,0.2632 0.358927,0.5858 0.357422,1.0625 -0.0059,1.8686 0.248031,4.5056 0.242187,6.3554 -0.0031,0.9712 -0.671322,2.0104 -1.355469,3.0586 -0.684146,1.0483 -1.38532,2.1055 -1.388671,3.1661 -0.0036,1.1455 0.725666,2.1347 1.435546,3.1074 0.709881,0.9726 1.401785,1.929 1.398438,2.9883 -0.0091,2.8673 -1.316925,5.3756 -1.326172,8.3027 l 0.201172,0 c 0.0091,-2.8673 1.314924,-5.3737 1.324219,-8.3008 0.0036,-1.1455 -0.725667,-2.1347 -1.435547,-3.1074 -0.70988,-0.9727 -1.399848,-1.929 -1.396485,-2.9883 0.0031,-0.9712 0.671323,-2.0103 1.355469,-3.0586 0.684146,-1.0483 1.383378,-2.1055 1.386719,-3.166 0.0059,-1.8686 -0.248058,-4.5076 -0.242188,-6.3574 0.0016,-0.5178 -0.160441,-0.896 -0.402343,-1.1895 -0.241902,-0.2934 -0.55681,-0.5036 -0.863282,-0.709 -0.306471,-0.2054 -0.605246,-0.4066 -0.822265,-0.6699 -0.217019,-0.2633 -0.358932,-0.5859 -0.357422,-1.0625 0.0039,-1.2436 0.201873,-3.1465 0.400391,-5.0488 0.198517,-1.9024 0.398361,-3.8043 0.402343,-5.0684 0.009,-2.8546 1.834417,-5.49148 1.84375,-8.42966 0.0081,-2.57441 -0.89279,-5.51414 -0.884765,-8.04102 0.0078,-2.4802 1.054513,-4.72825 1.0625,-7.26367 0.01022,-3.23437 0.409656,-6.34728 0.419922,-9.59766 0.0041,-1.31118 0.582032,-2.50821 1.169921,-3.71875 0.587889,-1.21053 1.185111,-2.4354 1.189453,-3.80468 l -0.199218,0 z"
       id="path4426-97-7"
       inkscape:connector-curvature="0" />
    <path
       style="color:#000000;font-style:normal;font-variant:normal;font-weight:normal;font-stretch:normal;font-size:medium;line-height:normal;font-family:sans-serif;text-indent:0;text-align:start;text-decoration:none;text-decoration-line:none;text-decoration-style:solid;text-decoration-color:#000000;letter-spacing:normal;word-spacing:normal;text-transform:none;direction:ltr;block-progression:tb;writing-mode:lr-tb;baseline-shift:baseline;text-anchor:start;white-space:normal;clip-rule:nonzero;display:inline;overflow:visible;visibility:visible;opacity:1;isolation:auto;mix-blend-mode:normal;color-interpolation:sRGB;color-interpolation-filters:linearRGB;solid-color:#000000;solid-opacity:1;fill:#190600;fill-opacity:1;fill-rule:evenodd;stroke:none;stroke-width:0.2;stroke-linecap:butt;stroke-linejoin:miter;stroke-miterlimit:4;stroke-dasharray:none;stroke-dashoffset:0;stroke-opacity:1;color-rendering:auto;image-rendering:auto;shape-rendering:auto;text-rendering:auto;enable-background:accumulate"
       d="m 60.978516,963.51562 c -0.0086,2.71919 1.539597,5.39926 1.53125,8.04102 -0.01022,3.23436 -0.409653,6.34727 -0.419922,9.59766 -0.0078,2.4802 -1.052537,4.73021 -1.060547,7.26562 -0.0082,2.57441 0.890797,5.51414 0.882812,8.04102 -0.0091,2.85456 -1.832514,5.49146 -1.841797,8.42966 -0.0039,1.2436 -0.203826,3.1446 -0.402343,5.0469 -0.198517,1.9023 -0.396397,3.8043 -0.400391,5.0684 -0.0016,0.5178 0.160444,0.8979 0.402344,1.1914 0.2419,0.2934 0.558763,0.5035 0.865234,0.7089 0.306472,0.2055 0.603291,0.4067 0.820313,0.67 0.217021,0.2632 0.358927,0.5858 0.357422,1.0625 -0.0028,0.8971 -0.453267,2.0505 -0.910157,3.207 -0.456889,1.1566 -0.920788,2.3172 -0.923828,3.2793 -0.0063,2.0104 -0.661481,4.0408 -0.667968,6.0938 -0.0036,1.1455 0.725666,2.1347 1.435546,3.1074 0.709881,0.9726 1.401785,1.929 1.398438,2.9883 -0.0091,2.8673 -1.316925,5.3756 -1.326172,8.3027 l 0.201172,0 c 0.0091,-2.8673 1.314924,-5.3737 1.324219,-8.3008 0.0036,-1.1455 -0.725667,-2.1347 -1.435547,-3.1074 -0.70988,-0.9727 -1.399848,-1.929 -1.396485,-2.9883 0.0064,-2.0104 0.661502,-4.0427 0.667969,-6.0957 0.0028,-0.8971 0.451314,-2.0505 0.908203,-3.207 0.456889,-1.1566 0.920775,-2.3172 0.923828,-3.2793 0.0016,-0.5178 -0.160441,-0.896 -0.402343,-1.1895 -0.241902,-0.2934 -0.55681,-0.5036 -0.863282,-0.709 -0.306471,-0.2054 -0.605246,-0.4066 -0.822265,-0.6699 -0.217019,-0.2633 -0.358932,-0.5859 -0.357422,-1.0625 0.0039,-1.2436 0.201873,-3.1465 0.400391,-5.0488 0.198517,-1.9024 0.398361,-3.8043 0.402343,-5.0684 0.009,-2.8546 1.834417,-5.49148 1.84375,-8.42966 0.0081,-2.57441 -0.89279,-5.51414 -0.884765,-8.04102 0.0078,-2.4802 1.054513,-4.72825 1.0625,-7.26367 0.01022,-3.23437 0.409656,-6.34728 0.419922,-9.59766 0.0086,-2.71918 -1.539628,-5.39925 -1.53125,-8.04101 l -0.201172,-0.002 z"
       id="path4426-3-8"
       inkscape:connector-curvature="0" />
    <path
       style="color:#000000;font-style:normal;font-variant:normal;font-weight:normal;font-stretch:normal;font-size:medium;line-height:normal;font-family:sans-serif;text-indent:0;text-align:start;text-decoration:none;text-decoration-line:none;text-decoration-style:solid;text-decoration-color:#000000;letter-spacing:normal;word-spacing:normal;text-transform:none;direction:ltr;block-progression:tb;writing-mode:lr-tb;baseline-shift:baseline;text-anchor:start;white-space:normal;clip-rule:nonzero;display:inline;overflow:visible;visibility:visible;opacity:1;isolation:auto;mix-blend-mode:normal;color-interpolation:sRGB;color-interpolation-filters:linearRGB;solid-color:#000000;solid-opacity:1;fill:#28140d;fill-opacity:1;fill-rule:evenodd;stroke:none;stroke-width:0.2;stroke-linecap:butt;stroke-linejoin:miter;stroke-miterlimit:4;stroke-dasharray:none;stroke-dashoffset:0;stroke-opacity:1;color-rendering:auto;image-rendering:auto;shape-rendering:auto;text-rendering:auto;enable-background:accumulate"
       d="m 63.421875,963.64648 c -0.0044,1.37894 0.784615,2.69805 1.558594,4.00586 0.773979,1.30782 1.533409,2.60277 1.529297,3.9043 -0.01022,3.23436 -0.409653,6.34727 -0.419922,9.59766 -0.0019,0.61308 -0.127688,0.99846 -0.3125,1.27929 -0.184812,0.28084 -0.433927,0.46314 -0.695313,0.65235 -0.261385,0.18921 -0.535885,0.38667 -0.74414,0.70312 -0.208256,0.31646 -0.343679,0.7459 -0.345703,1.38672 -0.0081,2.55747 0.242413,5.62806 0.234374,8.17188 -0.0092,2.89359 -0.147091,8.64374 -0.15625,11.54294 -0.0039,1.2436 -0.203826,3.1446 -0.402343,5.0469 -0.198517,1.9023 -0.396397,3.8043 -0.400391,5.0684 -0.0016,0.5178 0.160444,0.8979 0.402344,1.1914 0.2419,0.2934 0.558763,0.5035 0.865234,0.7089 0.306472,0.2055 0.603291,0.4067 0.820313,0.67 0.217021,0.2632 0.358927,0.5858 0.357422,1.0625 -0.0028,0.8971 -0.453267,2.0505 -0.910157,3.207 -0.456889,1.1566 -0.920788,2.3172 -0.923828,3.2793 -0.0063,2.0104 -0.661481,4.0408 -0.667968,6.0938 -0.0036,1.1455 0.725666,2.1347 1.435546,3.1074 0.709881,0.9726 1.401785,1.929 1.398438,2.9883 -0.0091,2.8673 -1.316925,5.3756 -1.326172,8.3027 l 0.201172,0 c 0.0091,-2.8673 1.314924,-5.3737 1.324219,-8.3008 0.0036,-1.1455 -0.725667,-2.1347 -1.435547,-3.1074 -0.70988,-0.9727 -1.399848,-1.929 -1.396485,-2.9883 0.0064,-2.0104 0.661502,-4.0427 0.667969,-6.0957 0.0028,-0.8971 0.451314,-2.0505 0.908203,-3.207 0.456889,-1.1566 0.920775,-2.3172 0.923828,-3.2793 0.0016,-0.5178 -0.160441,-0.896 -0.402343,-1.1895 -0.241902,-0.2934 -0.55681,-0.5036 -0.863282,-0.709 -0.306471,-0.2054 -0.605246,-0.4066 -0.822265,-0.6699 -0.217019,-0.2633 -0.358932,-0.5859 -0.357422,-1.0625 0.0039,-1.2436 0.201873,-3.1465 0.400391,-5.0488 0.198517,-1.9024 0.398361,-3.8043 0.402343,-5.0684 0.0091,-2.8936 0.147041,-8.6438 0.15625,-11.54294 0.0081,-2.55747 -0.242453,-5.62611 -0.234375,-8.16993 0.0019,-0.61308 0.129639,-0.99846 0.314453,-1.27929 0.184815,-0.28084 0.431974,-0.46118 0.69336,-0.65039 0.261385,-0.18921 0.535888,-0.38667 0.74414,-0.70313 0.208253,-0.31645 0.345638,-0.74785 0.347657,-1.38867 0.01022,-3.23437 0.409656,-6.34728 0.419922,-9.59766 0.0044,-1.37894 -0.784616,-2.7 -1.558594,-4.00781 -0.773979,-1.30781 -1.533424,-2.60277 -1.529297,-3.9043 l -0.201172,0 z"
       id="path4426-6-4"
       inkscape:connector-curvature="0" />
    <path
       style="color:#000000;font-style:normal;font-variant:normal;font-weight:normal;font-stretch:normal;font-size:medium;line-height:normal;font-family:sans-serif;text-indent:0;text-align:start;text-decoration:none;text-decoration-line:none;text-decoration-style:solid;text-decoration-color:#000000;letter-spacing:normal;word-spacing:normal;text-transform:none;direction:ltr;block-progression:tb;writing-mode:lr-tb;baseline-shift:baseline;text-anchor:start;white-space:normal;clip-rule:nonzero;display:inline;overflow:visible;visibility:visible;opacity:1;isolation:auto;mix-blend-mode:normal;color-interpolation:sRGB;color-interpolation-filters:linearRGB;solid-color:#000000;solid-opacity:1;fill:#36170d;fill-opacity:1;fill-rule:evenodd;stroke:none;stroke-width:0.2;stroke-linecap:butt;stroke-linejoin:miter;stroke-miterlimit:4;stroke-dasharray:none;stroke-dashoffset:0;stroke-opacity:1;color-rendering:auto;image-rendering:auto;shape-rendering:auto;text-rendering:auto;enable-background:accumulate"
       d="m 72.535156,964.03516 c -0.0085,2.68043 -0.01692,4.84097 -0.02539,7.52148 -0.01022,3.23436 -0.409653,6.34727 -0.419922,9.59766 -0.0078,2.4802 -1.052537,4.73021 -1.060547,7.26562 -0.0042,1.31259 0.720353,2.4415 1.429687,3.55469 0.709334,1.11319 1.40235,2.20921 1.398438,3.44727 -0.0045,1.40492 -0.935954,3.04281 -1.88086,4.68552 -0.944905,1.6428 -1.901538,3.2918 -1.90625,4.7832 -0.0039,1.2436 -0.203826,3.1446 -0.402343,5.0469 -0.198517,1.9023 -0.396397,3.8043 -0.400391,5.0684 -0.0016,0.5178 0.160444,0.8979 0.402344,1.1914 0.2419,0.2934 0.558763,0.5035 0.865234,0.7089 0.306472,0.2055 0.603291,0.4067 0.820313,0.67 0.217021,0.2632 0.358927,0.5858 0.357422,1.0625 -0.0028,0.8971 -0.453267,2.0505 -0.910157,3.207 -0.456889,1.1566 -0.920788,2.3172 -0.923828,3.2793 -0.0063,2.0104 -0.661481,4.0408 -0.667968,6.0938 -0.0036,1.1455 0.725666,2.1347 1.435546,3.1074 0.709881,0.9726 1.401785,1.929 1.398438,2.9883 -0.0091,2.8673 -1.316925,5.3756 -1.326172,8.3027 l 0.201172,0 c 0.0091,-2.8673 1.314924,-5.3737 1.324219,-8.3008 0.0036,-1.1455 -0.725667,-2.1347 -1.435547,-3.1074 -0.70988,-0.9727 -1.399848,-1.929 -1.396485,-2.9883 0.0064,-2.0104 0.661502,-4.0427 0.667969,-6.0957 0.0028,-0.8971 0.451314,-2.0505 0.908203,-3.207 0.456889,-1.1566 0.920775,-2.3172 0.923828,-3.2793 0.0016,-0.5178 -0.160441,-0.896 -0.402343,-1.1895 -0.241902,-0.2934 -0.55681,-0.5036 -0.863282,-0.709 -0.306471,-0.2054 -0.605246,-0.4066 -0.822265,-0.6699 -0.217019,-0.2633 -0.358932,-0.5859 -0.357422,-1.0625 0.0039,-1.2436 0.201873,-3.1465 0.400391,-5.0488 0.198517,-1.9024 0.398361,-3.8043 0.402343,-5.0684 0.0044,-1.4049 0.935954,-3.0408 1.88086,-4.6836 0.944905,-1.6427 1.903465,-3.29173 1.908203,-4.78317 0.0041,-1.31259 -0.722307,-2.44345 -1.431641,-3.55664 -0.709334,-1.11319 -1.402369,-2.20921 -1.398437,-3.44727 0.0078,-2.4802 1.054513,-4.72825 1.0625,-7.26367 0.01022,-3.23437 0.409656,-6.34728 0.419922,-9.59766 0.0085,-2.68043 0.01689,-4.84292 0.02539,-7.52343 l -0.201172,0 z"
       id="path4426-1-5"
       inkscape:connector-curvature="0" />
    <path
       style="color:#000000;font-style:normal;font-variant:normal;font-weight:normal;font-stretch:normal;font-size:medium;line-height:normal;font-family:sans-serif;text-indent:0;text-align:start;text-decoration:none;text-decoration-line:none;text-decoration-style:solid;text-decoration-color:#000000;letter-spacing:normal;word-spacing:normal;text-transform:none;direction:ltr;block-progression:tb;writing-mode:lr-tb;baseline-shift:baseline;text-anchor:start;white-space:normal;clip-rule:nonzero;display:inline;overflow:visible;visibility:visible;opacity:1;isolation:auto;mix-blend-mode:normal;color-interpolation:sRGB;color-interpolation-filters:linearRGB;solid-color:#000000;solid-opacity:1;fill:#190600;fill-opacity:1;fill-rule:evenodd;stroke:none;stroke-width:0.2;stroke-linecap:butt;stroke-linejoin:miter;stroke-miterlimit:4;stroke-dasharray:none;stroke-dashoffset:0;stroke-opacity:1;color-rendering:auto;image-rendering:auto;shape-rendering:auto;text-rendering:auto;enable-background:accumulate"
       d="m 31.691406,974.41211 c -0.650321,1.10194 -1.321059,2.2262 -1.378906,3.6543 -0.06177,1.525 0.236736,2.56155 1.056641,3.91015 l 0.169921,-0.10351 c -0.807726,-1.32858 -1.087934,-2.3029 -1.027343,-3.79883 0.05549,-1.36987 0.701043,-2.45827 1.351562,-3.56055 l -0.171875,-0.10156 z"
       id="path4619"
       inkscape:connector-curvature="0" />
    <path
       style="color:#000000;font-style:normal;font-variant:normal;font-weight:normal;font-stretch:normal;font-size:medium;line-height:normal;font-family:sans-serif;text-indent:0;text-align:start;text-decoration:none;text-decoration-line:none;text-decoration-style:solid;text-decoration-color:#000000;letter-spacing:normal;word-spacing:normal;text-transform:none;direction:ltr;block-progression:tb;writing-mode:lr-tb;baseline-shift:baseline;text-anchor:start;white-space:normal;clip-rule:nonzero;display:inline;overflow:visible;visibility:visible;opacity:1;isolation:auto;mix-blend-mode:normal;color-interpolation:sRGB;color-interpolation-filters:linearRGB;solid-color:#000000;solid-opacity:1;fill:#190600;fill-opacity:1;fill-rule:evenodd;stroke:none;stroke-width:0.2;stroke-linecap:butt;stroke-linejoin:miter;stroke-miterlimit:4;stroke-dasharray:none;stroke-dashoffset:0;stroke-opacity:1;color-rendering:auto;image-rendering:auto;shape-rendering:auto;text-rendering:auto;enable-background:accumulate"
       d="m 31.833984,974.46484 -0.18164,0.084 c 0.577546,1.2373 1.310374,2.25274 1.24414,3.61328 -0.07257,1.49055 -0.590548,2.99142 -1.539062,3.61133 l 0.109375,0.16797 c 1.04225,-0.68117 1.554453,-2.24024 1.628906,-3.76953 0.06993,-1.43641 -0.694175,-2.49116 -1.261719,-3.70704 z"
       id="path4619-5"
       inkscape:connector-curvature="0" />
    <path
       style="color:#000000;font-style:normal;font-variant:normal;font-weight:normal;font-stretch:normal;font-size:medium;line-height:normal;font-family:sans-serif;text-indent:0;text-align:start;text-decoration:none;text-decoration-line:none;text-decoration-style:solid;text-decoration-color:#000000;letter-spacing:normal;word-spacing:normal;text-transform:none;direction:ltr;block-progression:tb;writing-mode:lr-tb;baseline-shift:baseline;text-anchor:start;white-space:normal;clip-rule:nonzero;display:inline;overflow:visible;visibility:visible;opacity:1;isolation:auto;mix-blend-mode:normal;color-interpolation:sRGB;color-interpolation-filters:linearRGB;solid-color:#000000;solid-opacity:1;fill:#190600;fill-opacity:1;fill-rule:evenodd;stroke:none;stroke-width:0.2;stroke-linecap:butt;stroke-linejoin:miter;stroke-miterlimit:4;stroke-dasharray:none;stroke-dashoffset:0;stroke-opacity:1;color-rendering:auto;image-rendering:auto;shape-rendering:auto;text-rendering:auto;enable-background:accumulate"
       d="m 41.755859,992.12305 c -0.692553,0.47251 -1.148093,0.88877 -1.43164,1.40234 -0.283548,0.51357 -0.389247,1.11557 -0.404297,1.94336 l 0,0.0156 0.0039,0.0137 c 0.499769,1.72324 1.153589,3.56745 1.572266,5.27925 l 0.195312,-0.049 c -0.420658,-1.71994 -1.073615,-3.556 -1.570312,-5.26561 0.01563,-0.80558 0.118386,-1.36798 0.378906,-1.83984 0.261901,-0.47436 0.688121,-0.86935 1.369141,-1.33399 l -0.113282,-0.16601 z"
       id="path4636"
       inkscape:connector-curvature="0" />
    <path
       style="color:#000000;font-style:normal;font-variant:normal;font-weight:normal;font-stretch:normal;font-size:medium;line-height:normal;font-family:sans-serif;text-indent:0;text-align:start;text-decoration:none;text-decoration-line:none;text-decoration-style:solid;text-decoration-color:#000000;letter-spacing:normal;word-spacing:normal;text-transform:none;direction:ltr;block-progression:tb;writing-mode:lr-tb;baseline-shift:baseline;text-anchor:start;white-space:normal;clip-rule:nonzero;display:inline;overflow:visible;visibility:visible;opacity:1;isolation:auto;mix-blend-mode:normal;color-interpolation:sRGB;color-interpolation-filters:linearRGB;solid-color:#000000;solid-opacity:1;fill:#190600;fill-opacity:1;fill-rule:evenodd;stroke:none;stroke-width:0.2;stroke-linecap:butt;stroke-linejoin:miter;stroke-miterlimit:4;stroke-dasharray:none;stroke-dashoffset:0;stroke-opacity:1;color-rendering:auto;image-rendering:auto;shape-rendering:auto;text-rendering:auto;enable-background:accumulate"
       d="m 41.804688,992.14453 -0.07813,0.18555 c 0.819503,0.34996 2.001804,1.37244 2.285157,3.25 0.186089,1.23308 0.370284,3.40665 0.246093,4.41015 -0.02157,0.17427 -0.173339,0.30707 -0.427734,0.41017 -0.254395,0.1031 -0.59651,0.1639 -0.9375,0.1973 -0.68198,0.067 -1.355469,0.023 -1.355469,0.023 l -0.01172,0.2012 c 0,0 0.683733,0.043 1.386718,-0.025 0.351493,-0.034 0.708381,-0.095 0.994141,-0.211 0.28576,-0.1158 0.514949,-0.2965 0.548828,-0.5703 0.131303,-1.06095 -0.05782,-3.21726 -0.246094,-4.46482 -0.293977,-1.94796 -1.519377,-3.02835 -2.404296,-3.40625 z"
       id="path4638"
       inkscape:connector-curvature="0" />
    <path
       style="color:#000000;font-style:normal;font-variant:normal;font-weight:normal;font-stretch:normal;font-size:medium;line-height:normal;font-family:sans-serif;text-indent:0;text-align:start;text-decoration:none;text-decoration-line:none;text-decoration-style:solid;text-decoration-color:#000000;letter-spacing:normal;word-spacing:normal;text-transform:none;direction:ltr;block-progression:tb;writing-mode:lr-tb;baseline-shift:baseline;text-anchor:start;white-space:normal;clip-rule:nonzero;display:inline;overflow:visible;visibility:visible;opacity:1;isolation:auto;mix-blend-mode:normal;color-interpolation:sRGB;color-interpolation-filters:linearRGB;solid-color:#000000;solid-opacity:1;fill:#190600;fill-opacity:1;fill-rule:evenodd;stroke:none;stroke-width:0.2;stroke-linecap:butt;stroke-linejoin:miter;stroke-miterlimit:4;stroke-dasharray:none;stroke-dashoffset:0;stroke-opacity:1;color-rendering:auto;image-rendering:auto;shape-rendering:auto;text-rendering:auto;enable-background:accumulate"
       d="m 83.253906,1022.8027 -0.04883,0.1934 c 0.808739,0.2035 1.176954,0.523 1.400391,0.9004 0.223436,0.3774 0.29669,0.8274 0.474609,1.2832 0.202291,0.5182 0.427877,1.3242 0.101563,1.9082 -0.299107,0.5353 -1.173383,0.9424 -1.8125,1.1621 l 0.06445,0.1895 c 0.655168,-0.2253 1.566153,-0.6173 1.921875,-1.254 0.381826,-0.6833 0.118905,-1.5433 -0.08984,-2.0781 -0.167861,-0.43 -0.239833,-0.8929 -0.488281,-1.3125 -0.248449,-0.4196 -0.679488,-0.7798 -1.523438,-0.9922 z"
       id="path4640"
       inkscape:connector-curvature="0" />
    <path
       style="color:#000000;font-style:normal;font-variant:normal;font-weight:normal;font-stretch:normal;font-size:medium;line-height:normal;font-family:sans-serif;text-indent:0;text-align:start;text-decoration:none;text-decoration-line:none;text-decoration-style:solid;text-decoration-color:#000000;letter-spacing:normal;word-spacing:normal;text-transform:none;direction:ltr;block-progression:tb;writing-mode:lr-tb;baseline-shift:baseline;text-anchor:start;white-space:normal;clip-rule:nonzero;display:inline;overflow:visible;visibility:visible;opacity:1;isolation:auto;mix-blend-mode:normal;color-interpolation:sRGB;color-interpolation-filters:linearRGB;solid-color:#000000;solid-opacity:1;fill:#190600;fill-opacity:1;fill-rule:evenodd;stroke:none;stroke-width:0.2;stroke-linecap:butt;stroke-linejoin:miter;stroke-miterlimit:4;stroke-dasharray:none;stroke-dashoffset:0;stroke-opacity:1;color-rendering:auto;image-rendering:auto;shape-rendering:auto;text-rendering:auto;enable-background:accumulate"
       d="m 83.25,1022.7832 c -0.341172,0.1896 -0.678627,0.6183 -0.943359,1.1035 -0.264732,0.4852 -0.45301,1.0241 -0.451172,1.4551 0.0022,0.5199 0.190134,1.1792 0.472656,1.7676 0.282522,0.5884 0.655123,1.107 1.072266,1.3301 l 0.09375,-0.1778 c -0.343719,-0.1838 -0.714338,-0.6737 -0.986329,-1.2402 -0.27199,-0.5665 -0.449174,-1.2081 -0.451171,-1.6797 -0.0016,-0.3697 0.17231,-0.8948 0.425781,-1.3594 0.253471,-0.4645 0.590758,-0.8709 0.865234,-1.0234 L 83.25,1022.7832 Z"
       id="path4640-7"
       inkscape:connector-curvature="0" />
  </g>
</svg>
