<?xml version="1.0" encoding="UTF-8" standalone="no"?>
<!-- Created with Inkscape (http://www.inkscape.org/) -->

<svg
   xmlns:dc="http://purl.org/dc/elements/1.1/"
   xmlns:cc="http://creativecommons.org/ns#"
   xmlns:rdf="http://www.w3.org/1999/02/22-rdf-syntax-ns#"
   xmlns:svg="http://www.w3.org/2000/svg"
   xmlns="http://www.w3.org/2000/svg"
   xmlns:xlink="http://www.w3.org/1999/xlink"
   xmlns:sodipodi="http://sodipodi.sourceforge.net/DTD/sodipodi-0.dtd"
   xmlns:inkscape="http://www.inkscape.org/namespaces/inkscape"
   width="100"
   height="100"
   viewBox="0 0 99.999997 99.999997"
   id="svg2"
   version="1.1"
   inkscape:version="0.91 r13725"
   sodipodi:docname="castle.svg"
   inkscape:export-filename="/home/hannes/Desktop/Studium/Internetprog/git/Eigenstudium/RTS/images/castleBlue.png"
   inkscape:export-xdpi="90.099998"
   inkscape:export-ydpi="90.099998">
  <defs
     id="defs4">
    <pattern
       inkscape:collect="always"
       xlink:href="#Polkadots-small"
       id="pattern6576"
       patternTransform="matrix(2.71716,0,0,2.71716,1.6009936,754.17416)" />
    <pattern
       inkscape:isstock="true"
       inkscape:stockid="Polka dots, small"
       id="Polkadots-small"
       patternTransform="translate(0,0) scale(10,10)"
       height="10"
       width="10"
       patternUnits="userSpaceOnUse"
       inkscape:collect="always">
      <circle
         id="circle5163"
         r="0.05"
         cy="0.810"
         cx="2.567"
         style="fill:black;stroke:none" />
      <circle
         id="circle5165"
         r="0.05"
         cy="2.33"
         cx="3.048"
         style="fill:black;stroke:none" />
      <circle
         id="circle5167"
         r="0.05"
         cy="2.415"
         cx="4.418"
         style="fill:black;stroke:none" />
      <circle
         id="circle5169"
         r="0.05"
         cy="3.029"
         cx="1.844"
         style="fill:black;stroke:none" />
      <circle
         id="circle5171"
         r="0.05"
         cy="1.363"
         cx="6.08"
         style="fill:black;stroke:none" />
      <circle
         id="circle5173"
         r="0.05"
         cy="4.413"
         cx="5.819"
         style="fill:black;stroke:none" />
      <circle
         id="circle5175"
         r="0.05"
         cy="4.048"
         cx="4.305"
         style="fill:black;stroke:none" />
      <circle
         id="circle5177"
         r="0.05"
         cy="3.045"
         cx="5.541"
         style="fill:black;stroke:none" />
      <circle
         id="circle5179"
         r="0.05"
         cy="5.527"
         cx="4.785"
         style="fill:black;stroke:none" />
      <circle
         id="circle5181"
         r="0.05"
         cy="5.184"
         cx="2.667"
         style="fill:black;stroke:none" />
      <circle
         id="circle5183"
         r="0.05"
         cy="1.448"
         cx="7.965"
         style="fill:black;stroke:none" />
      <circle
         id="circle5185"
         r="0.05"
         cy="5.049"
         cx="7.047"
         style="fill:black;stroke:none" />
      <circle
         id="circle5187"
         r="0.05"
         cy="0.895"
         cx="4.340"
         style="fill:black;stroke:none" />
      <circle
         id="circle5189"
         r="0.05"
         cy="0.340"
         cx="7.125"
         style="fill:black;stroke:none" />
      <circle
         id="circle5191"
         r="0.05"
         cy="1.049"
         cx="9.553"
         style="fill:black;stroke:none" />
      <circle
         id="circle5193"
         r="0.05"
         cy="2.689"
         cx="7.006"
         style="fill:black;stroke:none" />
      <circle
         id="circle5195"
         r="0.05"
         cy="2.689"
         cx="8.909"
         style="fill:black;stroke:none" />
      <circle
         id="circle5197"
         r="0.05"
         cy="4.407"
         cx="9.315"
         style="fill:black;stroke:none" />
      <circle
         id="circle5199"
         r="0.05"
         cy="3.870"
         cx="7.820"
         style="fill:black;stroke:none" />
      <circle
         id="circle5201"
         r="0.05"
         cy="5.948"
         cx="8.270"
         style="fill:black;stroke:none" />
      <circle
         id="circle5203"
         r="0.05"
         cy="7.428"
         cx="7.973"
         style="fill:black;stroke:none" />
      <circle
         id="circle5205"
         r="0.05"
         cy="8.072"
         cx="9.342"
         style="fill:black;stroke:none" />
      <circle
         id="circle5207"
         r="0.05"
         cy="9.315"
         cx="8.206"
         style="fill:black;stroke:none" />
      <circle
         id="circle5209"
         r="0.05"
         cy="9.475"
         cx="9.682"
         style="fill:black;stroke:none" />
      <circle
         id="circle5211"
         r="0.05"
         cy="6.186"
         cx="9.688"
         style="fill:black;stroke:none" />
      <circle
         id="circle5213"
         r="0.05"
         cy="6.296"
         cx="3.379"
         style="fill:black;stroke:none" />
      <circle
         id="circle5215"
         r="0.05"
         cy="8.204"
         cx="2.871"
         style="fill:black;stroke:none" />
      <circle
         id="circle5217"
         r="0.05"
         cy="8.719"
         cx="4.59"
         style="fill:black;stroke:none" />
      <circle
         id="circle5219"
         r="0.05"
         cy="9.671"
         cx="3.181"
         style="fill:black;stroke:none" />
      <circle
         id="circle5221"
         r="0.05"
         cy="7.315"
         cx="5.734"
         style="fill:black;stroke:none" />
      <circle
         id="circle5223"
         r="0.05"
         cy="6.513"
         cx="6.707"
         style="fill:black;stroke:none" />
      <circle
         id="circle5225"
         r="0.05"
         cy="9.670"
         cx="5.730"
         style="fill:black;stroke:none" />
      <circle
         id="circle5227"
         r="0.05"
         cy="8.373"
         cx="6.535"
         style="fill:black;stroke:none" />
      <circle
         id="circle5229"
         r="0.05"
         cy="7.154"
         cx="4.37"
         style="fill:black;stroke:none" />
      <circle
         id="circle5231"
         r="0.05"
         cy="7.25"
         cx="0.622"
         style="fill:black;stroke:none" />
      <circle
         id="circle5233"
         r="0.05"
         cy="5.679"
         cx="0.831"
         style="fill:black;stroke:none" />
      <circle
         id="circle5235"
         r="0.05"
         cy="8.519"
         cx="1.257"
         style="fill:black;stroke:none" />
      <circle
         id="circle5237"
         r="0.05"
         cy="6.877"
         cx="1.989"
         style="fill:black;stroke:none" />
      <circle
         id="circle5239"
         r="0.05"
         cy="3.181"
         cx="0.374"
         style="fill:black;stroke:none" />
      <circle
         id="circle5241"
         r="0.05"
         cy="1.664"
         cx="1.166"
         style="fill:black;stroke:none" />
      <circle
         id="circle5243"
         r="0.05"
         cy="0.093"
         cx="1.151"
         style="fill:black;stroke:none" />
      <circle
         id="circle5245"
         r="0.05"
         cy="10.093"
         cx="1.151"
         style="fill:black;stroke:none" />
      <circle
         id="circle5247"
         r="0.05"
         cy="4.451"
         cx="1.302"
         style="fill:black;stroke:none" />
      <circle
         id="circle5249"
         r="0.05"
         cy="3.763"
         cx="3.047"
         style="fill:black;stroke:none" />
    </pattern>
    <inkscape:perspective
       sodipodi:type="inkscape:persp3d"
       inkscape:vp_x="0 : 177.16536 : 1"
       inkscape:vp_y="0 : 1000 : 0"
       inkscape:vp_z="354.33071 : 177.16536 : 1"
       inkscape:persp3d-origin="177.16536 : 118.11024 : 1"
       id="perspective4203" />
  </defs>
  <sodipodi:namedview
     id="base"
     pagecolor="#ffffff"
     bordercolor="#666666"
     borderopacity="1.0"
     inkscape:pageopacity="0.0"
     inkscape:pageshadow="2"
     inkscape:zoom="7.71"
     inkscape:cx="50"
     inkscape:cy="50"
     inkscape:document-units="px"
     inkscape:current-layer="layer1"
     showgrid="false"
     inkscape:window-width="1680"
     inkscape:window-height="997"
     inkscape:window-x="0"
     inkscape:window-y="0"
     inkscape:window-maximized="1"
     showguides="false"
     units="px" />
  <metadata
     id="metadata7">
    <rdf:RDF>
      <cc:Work
         rdf:about="">
        <dc:format>image/svg+xml</dc:format>
        <dc:type
           rdf:resource="http://purl.org/dc/dcmitype/StillImage" />
        <dc:title />
      </cc:Work>
    </rdf:RDF>
  </metadata>
  <g
     inkscape:label="Layer 1"
     inkscape:groupmode="layer"
     id="layer1"
     transform="translate(0,-952.36223)">
    <path
       style="fill:#006000;fill-opacity:1"
       d="m 28.285945,1030.27 -17.522497,0.2012 -8.1780146,4.6302 9.3450136,4.4292 15.559987,-0.1789 0.584826,0.2771 17.108556,-0.1963 0.414473,0.1963 13.840004,-0.1586 0.335397,0.1586 12.08977,-0.1385 0.707948,0.3353 17.523027,-0.201 8.177487,-4.6303 -9.345015,-4.4287 -12.08924,0.1385 -0.708478,-0.3353 -13.840003,0.1586 -0.335398,-0.1586 -17.108557,0.1963 -0.414473,-0.1963 -15.559985,0.1787 -0.584828,-0.2775 z"
       id="path4224-3"
       inkscape:connector-curvature="0" />
    <rect
       style="color:#000000;clip-rule:nonzero;display:inline;overflow:visible;visibility:visible;opacity:1;isolation:auto;mix-blend-mode:normal;color-interpolation:sRGB;color-interpolation-filters:linearRGB;solid-color:#000000;solid-opacity:1;fill:#2b1100;fill-opacity:1;fill-rule:nonzero;stroke:#000000;stroke-width:0.1;stroke-linecap:butt;stroke-linejoin:miter;stroke-miterlimit:1;stroke-dasharray:none;stroke-dashoffset:0;stroke-opacity:1;color-rendering:auto;image-rendering:auto;shape-rendering:auto;text-rendering:auto;enable-background:accumulate"
       id="rect5645"
       width="0.27513883"
       height="13.986223"
       x="18.801153"
       y="956.24707"
       rx="2.33811"
       ry="2.76278" />
    <rect
       style="color:#000000;clip-rule:nonzero;display:inline;overflow:visible;visibility:visible;opacity:1;isolation:auto;mix-blend-mode:normal;color-interpolation:sRGB;color-interpolation-filters:linearRGB;solid-color:#000000;solid-opacity:1;fill:#2b1100;fill-opacity:1;fill-rule:nonzero;stroke:#000000;stroke-width:0.1;stroke-linecap:butt;stroke-linejoin:miter;stroke-miterlimit:1;stroke-dasharray:none;stroke-dashoffset:0;stroke-opacity:1;color-rendering:auto;image-rendering:auto;shape-rendering:auto;text-rendering:auto;enable-background:accumulate"
       id="rect5645-2"
       width="0.27513883"
       height="13.986223"
       x="80.202972"
       y="956.17828"
       rx="2.33811"
       ry="2.76278" />
    <path
       style="fill:#4d4d4d;fill-opacity:1;stroke:#000000;stroke-width:0.271716"
       d="m 78.713676,968.00464 0,4.24609 -1.302327,0 0,-4.20205 -3.178864,0 0,4.20205 -1.302327,0 0,-4.158 -3.178866,0 0,4.30872 -0.0032,0 0.0032,0.006 0,0.0128 0.0074,0 1.638255,2.83815 0,18.25698 -43.412999,0 0,-18.52551 1.473211,-2.55212 0.0022,0 0,-0.003 0.0022,-0.004 -0.0022,0 0,-4.31987 -3.178864,0 0,4.14048 -1.302327,0 0,-4.18454 -3.178865,0 0,4.18454 -1.302326,0 0,-4.18454 -3.178865,0 0,4.18454 -1.302326,0 0,-4.14048 -3.178865,0 0,4.14048 -1.302326,0 0,-4.09644 -3.1788654,0 0,4.30872 -0.00319,0 0.00319,0.006 0,0.0128 0.00743,0 1.7040614,2.95173 0,60.60913 3.150208,0 14.766598,0 43.412998,0 17.916807,0 0.09818,0 0,-42.52728 -0.09818,0 0,-18.47298 1.539015,-2.66621 0.0022,0 0,-0.003 0.0022,-0.004 -0.0022,0 0,-4.31986 -3.178866,0 0,4.20204 -1.302326,0 0,-4.24609 -3.178863,0 0,4.24609 -1.302327,0 0,-4.24609 -3.178864,0 z"
       id="rect4184"
       inkscape:connector-curvature="0" />
    <path
       style="color:#000000;clip-rule:nonzero;display:inline;overflow:visible;visibility:visible;opacity:1;isolation:auto;mix-blend-mode:normal;color-interpolation:sRGB;color-interpolation-filters:linearRGB;solid-color:#000000;solid-opacity:1;fill:#2f1100;fill-opacity:1;fill-rule:nonzero;stroke:#000000;stroke-width:0.271716;stroke-linecap:butt;stroke-linejoin:miter;stroke-miterlimit:4;stroke-dasharray:none;stroke-dashoffset:0;stroke-opacity:1;color-rendering:auto;image-rendering:auto;shape-rendering:auto;text-rendering:auto;enable-background:accumulate"
       d="m 50.114005,1011.2347 a 8.1514799,8.1707747 0 0 0 -8.15148,8.1705 8.1514799,8.1707747 0 0 0 0.03396,0.6894 l -0.03396,0 0,15.9474 16.30296,0 0,-15.9474 -0.03396,0 a 8.1514799,8.1707747 0 0 0 0.03396,-0.6894 8.1514799,8.1707747 0 0 0 -8.15148,-8.1705 z"
       id="rect4219"
       inkscape:connector-curvature="0" />
    <path
       style="fill:#000000;fill-opacity:1;stroke:#000000;stroke-width:0.271716"
       d="m 80.348749,976.81807 0,2.69221 -1.444554,0 0,0.76792 1.444554,0 0,2.64339 0.787549,0 0,-2.64339 1.419081,0 0,-0.76792 -1.419081,0 0,-2.69221 -0.787549,0 z"
       id="rect4205"
       inkscape:connector-curvature="0" />
    <path
       style="fill:#000000;fill-opacity:1;stroke:#000000;stroke-width:0.271716"
       d="m 18.397501,987.6867 0,2.69222 -1.444553,0 0,0.76792 1.444553,0 0,2.6434 0.787552,0 0,-2.6434 1.419079,0 0,-0.76792 -1.419079,0 0,-2.69222 -0.787552,0 z"
       id="rect4205-3"
       inkscape:connector-curvature="0" />
    <path
       style="fill:#000000;fill-opacity:1;stroke:#000000;stroke-width:0.271716"
       d="m 80.348749,987.6867 0,2.69222 -1.444554,0 0,0.76792 1.444554,0 0,2.6434 0.787549,0 0,-2.6434 1.419081,0 0,-0.76792 -1.419081,0 0,-2.69222 -0.787549,0 z"
       id="rect4205-3-6"
       inkscape:connector-curvature="0" />
    <path
       style="fill:#000000;fill-opacity:1;stroke:#000000;stroke-width:0.271716"
       d="m 18.397502,976.81807 0,2.69221 -1.444554,0 0,0.76792 1.444554,0 0,2.64339 0.787549,0 0,-2.64339 1.419081,0 0,-0.76792 -1.419081,0 0,-2.69221 -0.787549,0 z"
       id="rect4205-7"
       inkscape:connector-curvature="0" />
    <path
       style="color:#000000;clip-rule:nonzero;display:inline;overflow:visible;visibility:visible;opacity:1;isolation:auto;mix-blend-mode:normal;color-interpolation:sRGB;color-interpolation-filters:linearRGB;solid-color:#000000;solid-opacity:1;fill:url(#pattern6576);fill-opacity:1;fill-rule:nonzero;stroke:#000000;stroke-width:0.271716;stroke-linecap:butt;stroke-linejoin:miter;stroke-miterlimit:4;stroke-dasharray:none;stroke-dashoffset:0;stroke-opacity:1;color-rendering:auto;image-rendering:auto;shape-rendering:auto;text-rendering:auto;enable-background:accumulate"
       d="m 50.162212,1011.179 a 8.1514799,8.1707747 0 0 0 -8.151479,8.1707 8.1514799,8.1707747 0 0 0 0.03396,0.6893 l -0.03396,0 0,15.9474 16.302959,0 0,-15.9474 -0.03396,0 a 8.1514799,8.1707747 0 0 0 0.03396,-0.6893 8.1514799,8.1707747 0 0 0 -8.15148,-8.1707 z"
       id="rect4219-7"
       inkscape:connector-curvature="0" />
    <path
       inkscape:connector-curvature="0"
       style="color:#000000;clip-rule:nonzero;display:inline;overflow:visible;visibility:visible;opacity:1;isolation:auto;mix-blend-mode:normal;color-interpolation:sRGB;color-interpolation-filters:linearRGB;solid-color:#000000;solid-opacity:1;fill:#000000;fill-opacity:1;fill-rule:nonzero;stroke:#000000;stroke-width:0.271716;stroke-linecap:butt;stroke-linejoin:miter;stroke-miterlimit:4;stroke-dasharray:none;stroke-dashoffset:0;stroke-opacity:1;color-rendering:auto;image-rendering:auto;shape-rendering:auto;text-rendering:auto;enable-background:accumulate"
       d="m 16.164159,1018.7487 0,4.7762 0.09394,0 0,-4.7762 -0.09394,0 z m 3.05946,1.7172 0,0.031 16.233438,0 0,-0.031 -16.233438,0 z m 7.441407,0.043 0,2.974 0.133205,0 0,-2.974 -0.133205,0 z m 7.509871,0.08 0,2.9082 0.0674,0 0,-2.9082 -0.0674,0 z m -19.352866,2.9995 0,0.032 3.245732,0 0,2.9045 0.03344,0 0,-2.9045 20.977323,0 0,-0.032 -24.25649,0 z m 12.86193,0.094 0,2.9055 -11.423214,0 0,0.027 11.423214,0 0,0 0.156025,0 0,0 3.558843,0 0,4.4047 0.124713,0 0,-4.4047 4.55549,0 0,-0.027 -4.55549,0 0,0 -0.124713,0 0,0 -3.558843,0 0,-2.9055 -0.156025,0 z"
       id="rect6361-0" />
    <path
       inkscape:connector-curvature="0"
       style="color:#000000;clip-rule:nonzero;display:inline;overflow:visible;visibility:visible;opacity:1;isolation:auto;mix-blend-mode:normal;color-interpolation:sRGB;color-interpolation-filters:linearRGB;solid-color:#000000;solid-opacity:1;fill:#000000;fill-opacity:1;fill-rule:nonzero;stroke:#000000;stroke-width:0.271716;stroke-linecap:butt;stroke-linejoin:miter;stroke-miterlimit:4;stroke-dasharray:none;stroke-dashoffset:0;stroke-opacity:1;color-rendering:auto;image-rendering:auto;shape-rendering:auto;text-rendering:auto;enable-background:accumulate"
       d="m 84.064391,1002.1405 0,4.7762 -0.09393,0 0,-4.7762 0.09393,0 z m -3.059459,1.7174 0,0.031 -16.233439,0 0,-0.031 16.233439,0 z m -7.441407,0.042 0,2.9738 -0.133207,0 0,-2.9738 0.133207,0 z m -7.509872,0.08 0,2.908 -0.0674,0 0,-2.908 0.0674,0 z m 19.352866,2.9993 0,0.032 -3.245732,0 0,2.9045 -0.03344,0 0,-2.9045 -20.977322,0 0,-0.032 24.256489,0 z m -12.861929,0.094 0,2.9056 11.423215,0 0,0.026 -11.423215,0 0,0 -0.156025,0 0,0 -3.558844,0 0,4.4047 -0.124711,0 0,-4.4047 -4.55549,0 0,-0.026 4.55549,0 0,0 0.124711,0 0,0 3.558844,0 0,-2.9056 0.156025,0 z"
       id="rect6361-6" />
    <path
       style="color:#000000;clip-rule:nonzero;display:inline;overflow:visible;visibility:visible;opacity:1;isolation:auto;mix-blend-mode:normal;color-interpolation:sRGB;color-interpolation-filters:linearRGB;solid-color:#000000;solid-opacity:1;fill:#000000;fill-opacity:1;fill-rule:nonzero;stroke:#000000;stroke-width:0.23776023;stroke-linecap:butt;stroke-linejoin:miter;stroke-miterlimit:4;stroke-dasharray:none;stroke-dashoffset:0;stroke-opacity:1;color-rendering:auto;image-rendering:auto;shape-rendering:auto;text-rendering:auto;enable-background:accumulate"
       d="m 13.673297,1001.7117 0,0.1348 10.740212,0 0,-0.1348 -10.740212,0 z m 5.517638,0.1571 0,3.2229 0.110384,0 0,-3.2229 -0.110384,0 z m 8.399846,0.1013 0,3.2229 0.110383,0 0,-3.2229 -0.110383,0 z m -9.07542,3.2845 0,0.1348 10.740211,0 0,-0.1348 -10.740211,0 z m 4.544342,0.3185 0,2.6889 0.110917,0 0,-2.6889 -0.110917,0 z"
       id="rect6401"
       inkscape:connector-curvature="0" />
    <rect
       style="color:#000000;clip-rule:nonzero;display:inline;overflow:visible;visibility:visible;opacity:1;isolation:auto;mix-blend-mode:normal;color-interpolation:sRGB;color-interpolation-filters:linearRGB;solid-color:#000000;solid-opacity:1;fill:#000000;fill-opacity:1;fill-rule:nonzero;stroke:#000000;stroke-width:0.23776023;stroke-linecap:butt;stroke-linejoin:miter;stroke-miterlimit:4;stroke-dasharray:none;stroke-dashoffset:0;stroke-opacity:1;color-rendering:auto;image-rendering:auto;shape-rendering:auto;text-rendering:auto;enable-background:accumulate"
       id="rect6401-1"
       width="10.740183"
       height="0.13478991"
       x="69.467613"
       y="1024.4933" />
    <rect
       style="color:#000000;clip-rule:nonzero;display:inline;overflow:visible;visibility:visible;opacity:1;isolation:auto;mix-blend-mode:normal;color-interpolation:sRGB;color-interpolation-filters:linearRGB;solid-color:#000000;solid-opacity:1;fill:#000000;fill-opacity:1;fill-rule:nonzero;stroke:#000000;stroke-width:0.271716;stroke-linecap:butt;stroke-linejoin:miter;stroke-miterlimit:4;stroke-dasharray:none;stroke-dashoffset:0;stroke-opacity:1;color-rendering:auto;image-rendering:auto;shape-rendering:auto;text-rendering:auto;enable-background:accumulate"
       id="rect6403-8"
       width="0.11037543"
       height="3.2228992"
       x="78.54306"
       y="1021.2092" />
    <rect
       style="color:#000000;clip-rule:nonzero;display:inline;overflow:visible;visibility:visible;opacity:1;isolation:auto;mix-blend-mode:normal;color-interpolation:sRGB;color-interpolation-filters:linearRGB;solid-color:#000000;solid-opacity:1;fill:#000000;fill-opacity:1;fill-rule:nonzero;stroke:#000000;stroke-width:0.23195563;stroke-linecap:butt;stroke-linejoin:miter;stroke-miterlimit:4;stroke-dasharray:none;stroke-dashoffset:0;stroke-opacity:1;color-rendering:auto;image-rendering:auto;shape-rendering:auto;text-rendering:auto;enable-background:accumulate"
       id="rect6405-7"
       width="0.11094348"
       height="2.6887236"
       x="74.0121"
       y="1024.8118" />
    <rect
       style="color:#000000;clip-rule:nonzero;display:inline;overflow:visible;visibility:visible;opacity:1;isolation:auto;mix-blend-mode:normal;color-interpolation:sRGB;color-interpolation-filters:linearRGB;solid-color:#000000;solid-opacity:1;fill:#000000;fill-opacity:1;fill-rule:nonzero;stroke:#000000;stroke-width:0.271716;stroke-linecap:butt;stroke-linejoin:miter;stroke-miterlimit:4;stroke-dasharray:none;stroke-dashoffset:0;stroke-opacity:1;color-rendering:auto;image-rendering:auto;shape-rendering:auto;text-rendering:auto;enable-background:accumulate"
       id="rect6403-2-9"
       width="0.11037543"
       height="3.2228992"
       x="70.143219"
       y="1021.1078" />
    <rect
       style="color:#000000;clip-rule:nonzero;display:inline;overflow:visible;visibility:visible;opacity:1;isolation:auto;mix-blend-mode:normal;color-interpolation:sRGB;color-interpolation-filters:linearRGB;solid-color:#000000;solid-opacity:1;fill:#000000;fill-opacity:1;fill-rule:nonzero;stroke:#000000;stroke-width:0.23776023;stroke-linecap:butt;stroke-linejoin:miter;stroke-miterlimit:4;stroke-dasharray:none;stroke-dashoffset:0;stroke-opacity:1;color-rendering:auto;image-rendering:auto;shape-rendering:auto;text-rendering:auto;enable-background:accumulate"
       id="rect6401-6-2"
       width="10.740183"
       height="0.13478991"
       x="64.625412"
       y="1020.9504" />
    <rect
       style="color:#000000;clip-rule:nonzero;display:inline;overflow:visible;visibility:visible;opacity:1;isolation:auto;mix-blend-mode:normal;color-interpolation:sRGB;color-interpolation-filters:linearRGB;solid-color:#000000;solid-opacity:1;fill:#000000;fill-opacity:1;fill-rule:nonzero;stroke:#000000;stroke-width:0.23776023;stroke-linecap:butt;stroke-linejoin:miter;stroke-miterlimit:4;stroke-dasharray:none;stroke-dashoffset:0;stroke-opacity:1;color-rendering:auto;image-rendering:auto;shape-rendering:auto;text-rendering:auto;enable-background:accumulate"
       id="rect6401-0"
       width="10.740183"
       height="0.13478991"
       x="52.337658"
       y="-997.46521"
       transform="scale(1,-1)" />
    <rect
       style="color:#000000;clip-rule:nonzero;display:inline;overflow:visible;visibility:visible;opacity:1;isolation:auto;mix-blend-mode:normal;color-interpolation:sRGB;color-interpolation-filters:linearRGB;solid-color:#000000;solid-opacity:1;fill:#000000;fill-opacity:1;fill-rule:nonzero;stroke:#000000;stroke-width:0.271716;stroke-linecap:butt;stroke-linejoin:miter;stroke-miterlimit:4;stroke-dasharray:none;stroke-dashoffset:0;stroke-opacity:1;color-rendering:auto;image-rendering:auto;shape-rendering:auto;text-rendering:auto;enable-background:accumulate"
       id="rect6403-23"
       width="0.11037543"
       height="3.2228992"
       x="61.413105"
       y="-1000.7493"
       transform="scale(1,-1)" />
    <rect
       style="color:#000000;clip-rule:nonzero;display:inline;overflow:visible;visibility:visible;opacity:1;isolation:auto;mix-blend-mode:normal;color-interpolation:sRGB;color-interpolation-filters:linearRGB;solid-color:#000000;solid-opacity:1;fill:#000000;fill-opacity:1;fill-rule:nonzero;stroke:#000000;stroke-width:0.23195563;stroke-linecap:butt;stroke-linejoin:miter;stroke-miterlimit:4;stroke-dasharray:none;stroke-dashoffset:0;stroke-opacity:1;color-rendering:auto;image-rendering:auto;shape-rendering:auto;text-rendering:auto;enable-background:accumulate"
       id="rect6405-75"
       width="0.11094348"
       height="2.6887236"
       x="56.882137"
       y="-997.14648"
       transform="scale(1,-1)" />
    <rect
       style="color:#000000;clip-rule:nonzero;display:inline;overflow:visible;visibility:visible;opacity:1;isolation:auto;mix-blend-mode:normal;color-interpolation:sRGB;color-interpolation-filters:linearRGB;solid-color:#000000;solid-opacity:1;fill:#000000;fill-opacity:1;fill-rule:nonzero;stroke:#000000;stroke-width:0.271716;stroke-linecap:butt;stroke-linejoin:miter;stroke-miterlimit:4;stroke-dasharray:none;stroke-dashoffset:0;stroke-opacity:1;color-rendering:auto;image-rendering:auto;shape-rendering:auto;text-rendering:auto;enable-background:accumulate"
       id="rect6403-2-92"
       width="0.11037543"
       height="3.2228992"
       x="53.013264"
       y="-1000.8508"
       transform="scale(1,-1)" />
    <rect
       style="color:#000000;clip-rule:nonzero;display:inline;overflow:visible;visibility:visible;opacity:1;isolation:auto;mix-blend-mode:normal;color-interpolation:sRGB;color-interpolation-filters:linearRGB;solid-color:#000000;solid-opacity:1;fill:#000000;fill-opacity:1;fill-rule:nonzero;stroke:#000000;stroke-width:0.23776023;stroke-linecap:butt;stroke-linejoin:miter;stroke-miterlimit:4;stroke-dasharray:none;stroke-dashoffset:0;stroke-opacity:1;color-rendering:auto;image-rendering:auto;shape-rendering:auto;text-rendering:auto;enable-background:accumulate"
       id="rect6401-6-28"
       width="10.740183"
       height="0.13478991"
       x="47.495445"
       y="-1001.0081"
       transform="scale(1,-1)" />
    <rect
       style="color:#000000;clip-rule:nonzero;display:inline;overflow:visible;visibility:visible;opacity:1;isolation:auto;mix-blend-mode:normal;color-interpolation:sRGB;color-interpolation-filters:linearRGB;solid-color:#000000;solid-opacity:1;fill:#000000;fill-opacity:1;fill-rule:nonzero;stroke:#000000;stroke-width:0.23776023;stroke-linecap:butt;stroke-linejoin:miter;stroke-miterlimit:4;stroke-dasharray:none;stroke-dashoffset:0;stroke-opacity:1;color-rendering:auto;image-rendering:auto;shape-rendering:auto;text-rendering:auto;enable-background:accumulate"
       id="rect6401-9"
       width="10.740183"
       height="0.13478991"
       x="37.831013"
       y="1000.8646" />
    <rect
       style="color:#000000;clip-rule:nonzero;display:inline;overflow:visible;visibility:visible;opacity:1;isolation:auto;mix-blend-mode:normal;color-interpolation:sRGB;color-interpolation-filters:linearRGB;solid-color:#000000;solid-opacity:1;fill:#000000;fill-opacity:1;fill-rule:nonzero;stroke:#000000;stroke-width:0.271716;stroke-linecap:butt;stroke-linejoin:miter;stroke-miterlimit:4;stroke-dasharray:none;stroke-dashoffset:0;stroke-opacity:1;color-rendering:auto;image-rendering:auto;shape-rendering:auto;text-rendering:auto;enable-background:accumulate"
       id="rect6403"
       width="0.11037543"
       height="3.2228992"
       x="46.906456"
       y="997.58057" />
    <rect
       style="color:#000000;clip-rule:nonzero;display:inline;overflow:visible;visibility:visible;opacity:1;isolation:auto;mix-blend-mode:normal;color-interpolation:sRGB;color-interpolation-filters:linearRGB;solid-color:#000000;solid-opacity:1;fill:#000000;fill-opacity:1;fill-rule:nonzero;stroke:#000000;stroke-width:0.23195563;stroke-linecap:butt;stroke-linejoin:miter;stroke-miterlimit:4;stroke-dasharray:none;stroke-dashoffset:0;stroke-opacity:1;color-rendering:auto;image-rendering:auto;shape-rendering:auto;text-rendering:auto;enable-background:accumulate"
       id="rect6405"
       width="0.11094348"
       height="2.6887236"
       x="42.375492"
       y="1001.1833" />
    <rect
       style="color:#000000;clip-rule:nonzero;display:inline;overflow:visible;visibility:visible;opacity:1;isolation:auto;mix-blend-mode:normal;color-interpolation:sRGB;color-interpolation-filters:linearRGB;solid-color:#000000;solid-opacity:1;fill:#000000;fill-opacity:1;fill-rule:nonzero;stroke:#000000;stroke-width:0.271716;stroke-linecap:butt;stroke-linejoin:miter;stroke-miterlimit:4;stroke-dasharray:none;stroke-dashoffset:0;stroke-opacity:1;color-rendering:auto;image-rendering:auto;shape-rendering:auto;text-rendering:auto;enable-background:accumulate"
       id="rect6403-2"
       width="0.11037543"
       height="3.2228992"
       x="38.506615"
       y="997.479" />
    <rect
       style="color:#000000;clip-rule:nonzero;display:inline;overflow:visible;visibility:visible;opacity:1;isolation:auto;mix-blend-mode:normal;color-interpolation:sRGB;color-interpolation-filters:linearRGB;solid-color:#000000;solid-opacity:1;fill:#000000;fill-opacity:1;fill-rule:nonzero;stroke:#000000;stroke-width:0.23776023;stroke-linecap:butt;stroke-linejoin:miter;stroke-miterlimit:4;stroke-dasharray:none;stroke-dashoffset:0;stroke-opacity:1;color-rendering:auto;image-rendering:auto;shape-rendering:auto;text-rendering:auto;enable-background:accumulate"
       id="rect6401-6"
       width="10.740183"
       height="0.13478991"
       x="32.9888"
       y="997.32172" />
    <rect
       style="color:#000000;clip-rule:nonzero;display:inline;overflow:visible;visibility:visible;opacity:1;isolation:auto;mix-blend-mode:normal;color-interpolation:sRGB;color-interpolation-filters:linearRGB;solid-color:#000000;solid-opacity:1;fill:#000000;fill-opacity:1;fill-rule:nonzero;stroke:#000000;stroke-width:0.23195563;stroke-linecap:butt;stroke-linejoin:miter;stroke-miterlimit:4;stroke-dasharray:none;stroke-dashoffset:0;stroke-opacity:1;color-rendering:auto;image-rendering:auto;shape-rendering:auto;text-rendering:auto;enable-background:accumulate"
       id="rect6405-7-7"
       width="0.11094348"
       height="2.6887236"
       x="62.171509"
       y="1030.719" />
    <rect
       style="color:#000000;clip-rule:nonzero;display:inline;overflow:visible;visibility:visible;opacity:1;isolation:auto;mix-blend-mode:normal;color-interpolation:sRGB;color-interpolation-filters:linearRGB;solid-color:#000000;solid-opacity:1;fill:#000000;fill-opacity:1;fill-rule:nonzero;stroke:#000000;stroke-width:0.23195563;stroke-linecap:butt;stroke-linejoin:miter;stroke-miterlimit:4;stroke-dasharray:none;stroke-dashoffset:0;stroke-opacity:1;color-rendering:auto;image-rendering:auto;shape-rendering:auto;text-rendering:auto;enable-background:accumulate"
       id="rect6405-7-3"
       width="0.11094348"
       height="2.6887236"
       x="69.570251"
       y="1027.7533" />
    <rect
       style="color:#000000;clip-rule:nonzero;display:inline;overflow:visible;visibility:visible;opacity:1;isolation:auto;mix-blend-mode:normal;color-interpolation:sRGB;color-interpolation-filters:linearRGB;solid-color:#000000;solid-opacity:1;fill:#000000;fill-opacity:1;fill-rule:nonzero;stroke:#000000;stroke-width:0.23195563;stroke-linecap:butt;stroke-linejoin:miter;stroke-miterlimit:4;stroke-dasharray:none;stroke-dashoffset:0;stroke-opacity:1;color-rendering:auto;image-rendering:auto;shape-rendering:auto;text-rendering:auto;enable-background:accumulate"
       id="rect6405-7-6"
       width="0.11094348"
       height="2.6887236"
       x="75.345642"
       y="1030.8127" />
    <rect
       style="color:#000000;clip-rule:nonzero;display:inline;overflow:visible;visibility:visible;opacity:1;isolation:auto;mix-blend-mode:normal;color-interpolation:sRGB;color-interpolation-filters:linearRGB;solid-color:#000000;solid-opacity:1;fill:#000000;fill-opacity:1;fill-rule:nonzero;stroke:#000000;stroke-width:0.23776023;stroke-linecap:butt;stroke-linejoin:miter;stroke-miterlimit:4;stroke-dasharray:none;stroke-dashoffset:0;stroke-opacity:1;color-rendering:auto;image-rendering:auto;shape-rendering:auto;text-rendering:auto;enable-background:accumulate"
       id="rect6401-1-2"
       width="10.740183"
       height="0.13478991"
       x="62.164013"
       y="1030.4663" />
    <rect
       style="color:#000000;clip-rule:nonzero;display:inline;overflow:visible;visibility:visible;opacity:1;isolation:auto;mix-blend-mode:normal;color-interpolation:sRGB;color-interpolation-filters:linearRGB;solid-color:#000000;solid-opacity:1;fill:#000000;fill-opacity:1;fill-rule:nonzero;stroke:#000000;stroke-width:0.23776023;stroke-linecap:butt;stroke-linejoin:miter;stroke-miterlimit:4;stroke-dasharray:none;stroke-dashoffset:0;stroke-opacity:1;color-rendering:auto;image-rendering:auto;shape-rendering:auto;text-rendering:auto;enable-background:accumulate"
       id="rect6401-1-9"
       width="10.740183"
       height="0.13478991"
       x="72.840675"
       y="1030.4663" />
    <path
       sodipodi:type="star"
       style="color:#000000;clip-rule:nonzero;display:inline;overflow:visible;visibility:visible;opacity:1;isolation:auto;mix-blend-mode:normal;color-interpolation:sRGB;color-interpolation-filters:linearRGB;solid-color:#000000;solid-opacity:1;fill:#006000;fill-opacity:1;fill-rule:nonzero;stroke:none;stroke-width:1;stroke-linecap:butt;stroke-linejoin:miter;stroke-miterlimit:4;stroke-dasharray:none;stroke-dashoffset:0;stroke-opacity:1;color-rendering:auto;image-rendering:auto;shape-rendering:auto;text-rendering:auto;enable-background:accumulate"
       id="path6593-1"
       sodipodi:sides="6"
       sodipodi:cx="85.482468"
       sodipodi:cy="1013.3661"
       sodipodi:r1="28.938187"
       sodipodi:r2="25.061205"
       sodipodi:arg1="0"
       sodipodi:arg2="0.52359878"
       inkscape:flatsided="true"
       inkscape:rounded="0"
       inkscape:randomized="0"
       d="m 114.42065,1013.3661 -14.469089,25.0612 -28.938187,0 -14.469093,-25.0612 14.469093,-25.06122 28.938187,0 z"
       transform="matrix(0.43648558,0,0,0.16601625,-14.249893,873.02469)" />
    <path
       sodipodi:type="star"
       style="color:#000000;clip-rule:nonzero;display:inline;overflow:visible;visibility:visible;opacity:1;isolation:auto;mix-blend-mode:normal;color-interpolation:sRGB;color-interpolation-filters:linearRGB;solid-color:#000000;solid-opacity:1;fill:#006000;fill-opacity:1;fill-rule:nonzero;stroke:none;stroke-width:1;stroke-linecap:butt;stroke-linejoin:miter;stroke-miterlimit:4;stroke-dasharray:none;stroke-dashoffset:0;stroke-opacity:1;color-rendering:auto;image-rendering:auto;shape-rendering:auto;text-rendering:auto;enable-background:accumulate"
       id="path6612"
       sodipodi:sides="6"
       sodipodi:cx="216.42809"
       sodipodi:cy="1019.8655"
       sodipodi:r1="23.397633"
       sodipodi:r2="20.262943"
       sodipodi:arg1="0"
       sodipodi:arg2="0.52359878"
       inkscape:flatsided="true"
       inkscape:rounded="0"
       inkscape:randomized="0"
       d="m 239.82572,1019.8655 -11.69882,20.2629 -23.39763,0 -11.69882,-20.2629 11.69882,-20.26297 23.39763,0 z"
       transform="matrix(0.46040768,0,0,0.271716,-40.64996,765.55895)" />
    <path
       sodipodi:type="star"
       style="color:#000000;clip-rule:nonzero;display:inline;overflow:visible;visibility:visible;opacity:1;isolation:auto;mix-blend-mode:normal;color-interpolation:sRGB;color-interpolation-filters:linearRGB;solid-color:#000000;solid-opacity:1;fill:#006000;fill-opacity:1;fill-rule:nonzero;stroke:none;stroke-width:1;stroke-linecap:butt;stroke-linejoin:miter;stroke-miterlimit:4;stroke-dasharray:none;stroke-dashoffset:0;stroke-opacity:1;color-rendering:auto;image-rendering:auto;shape-rendering:auto;text-rendering:auto;enable-background:accumulate"
       id="path6614"
       sodipodi:sides="6"
       sodipodi:cx="174.18237"
       sodipodi:cy="1013.3662"
       sodipodi:r1="23.397633"
       sodipodi:r2="20.262943"
       sodipodi:arg1="0"
       sodipodi:arg2="0.52359878"
       inkscape:flatsided="true"
       inkscape:rounded="0"
       inkscape:randomized="0"
       d="m 197.58001,1013.3662 -11.69882,20.263 -23.39763,0 -11.69882,-20.263 11.69882,-20.26293 23.39763,0 z"
       transform="matrix(0.38115717,0,0,0.1889207,-24.43733,849.54922)" />
    <path
       sodipodi:type="star"
       style="color:#000000;clip-rule:nonzero;display:inline;overflow:visible;visibility:visible;opacity:1;isolation:auto;mix-blend-mode:normal;color-interpolation:sRGB;color-interpolation-filters:linearRGB;solid-color:#000000;solid-opacity:1;fill:#006000;fill-opacity:1;fill-rule:nonzero;stroke:none;stroke-width:1;stroke-linecap:butt;stroke-linejoin:miter;stroke-miterlimit:4;stroke-dasharray:none;stroke-dashoffset:0;stroke-opacity:1;color-rendering:auto;image-rendering:auto;shape-rendering:auto;text-rendering:auto;enable-background:accumulate"
       id="path6616"
       sodipodi:sides="6"
       sodipodi:cx="253.47433"
       sodipodi:cy="1020.5154"
       sodipodi:r1="18.05835"
       sodipodi:r2="15.63899"
       sodipodi:arg1="2.0988708"
       sodipodi:arg2="2.6224696"
       inkscape:flatsided="true"
       inkscape:rounded="0"
       inkscape:randomized="0"
       d="m 244.37526,1036.1138 -8.95909,-15.6792 9.09908,-15.5985 18.05816,0.081 8.95909,15.6792 -9.09908,15.5984 z"
       transform="matrix(0.8095814,0,0,0.271716,-125.02122,764.49938)" />
    <path
       sodipodi:type="star"
       style="color:#000000;clip-rule:nonzero;display:inline;overflow:visible;visibility:visible;opacity:1;isolation:auto;mix-blend-mode:normal;color-interpolation:sRGB;color-interpolation-filters:linearRGB;solid-color:#000000;solid-opacity:1;fill:#003e00;fill-opacity:1;fill-rule:nonzero;stroke:none;stroke-width:1;stroke-linecap:butt;stroke-linejoin:miter;stroke-miterlimit:4;stroke-dasharray:none;stroke-dashoffset:0;stroke-opacity:1;color-rendering:auto;image-rendering:auto;shape-rendering:auto;text-rendering:auto;enable-background:accumulate"
       id="path6618"
       sodipodi:sides="6"
       sodipodi:cx="66.94323"
       sodipodi:cy="1005.5669"
       sodipodi:r1="31.196842"
       sodipodi:r2="27.585861"
       sodipodi:arg1="3.8947877e-10"
       sodipodi:arg2="0.52359878"
       inkscape:flatsided="true"
       inkscape:rounded="0"
       inkscape:randomized="0"
       d="m 98.140072,1005.5669 -15.598421,27.0173 -31.196842,0 -15.598422,-27.0173 15.598422,-27.01726 31.196842,0 z"
       transform="matrix(0.25473374,0,0,0.12791363,5.9165957,912.28102)" />
    <path
       sodipodi:type="star"
       style="color:#000000;clip-rule:nonzero;display:inline;overflow:visible;visibility:visible;opacity:1;isolation:auto;mix-blend-mode:normal;color-interpolation:sRGB;color-interpolation-filters:linearRGB;solid-color:#000000;solid-opacity:1;fill:#003e00;fill-opacity:1;fill-rule:nonzero;stroke:none;stroke-width:1;stroke-linecap:butt;stroke-linejoin:miter;stroke-miterlimit:4;stroke-dasharray:none;stroke-dashoffset:0;stroke-opacity:1;color-rendering:auto;image-rendering:auto;shape-rendering:auto;text-rendering:auto;enable-background:accumulate"
       id="path6618-9"
       sodipodi:sides="6"
       sodipodi:cx="122.18764"
       sodipodi:cy="998.41766"
       sodipodi:r1="31.196842"
       sodipodi:r2="27.585861"
       sodipodi:arg1="3.8947877e-10"
       sodipodi:arg2="0.52359878"
       inkscape:flatsided="true"
       inkscape:rounded="0"
       inkscape:randomized="0"
       d="m 153.38448,998.41766 -15.59842,27.01724 -31.19684,0 -15.598425,-27.01724 15.598425,-27.01725 31.19684,0 z"
       transform="matrix(0.18397437,0,0,0.10503598,19.474136,936.30187)" />
    <path
       sodipodi:type="star"
       style="color:#000000;clip-rule:nonzero;display:inline;overflow:visible;visibility:visible;opacity:1;isolation:auto;mix-blend-mode:normal;color-interpolation:sRGB;color-interpolation-filters:linearRGB;solid-color:#000000;solid-opacity:1;fill:#003e00;fill-opacity:1;fill-rule:nonzero;stroke:none;stroke-width:1;stroke-linecap:butt;stroke-linejoin:miter;stroke-miterlimit:4;stroke-dasharray:none;stroke-dashoffset:0;stroke-opacity:1;color-rendering:auto;image-rendering:auto;shape-rendering:auto;text-rendering:auto;enable-background:accumulate"
       id="path6618-4"
       sodipodi:sides="6"
       sodipodi:cx="201.47961"
       sodipodi:cy="1012.0663"
       sodipodi:r1="31.196842"
       sodipodi:r2="27.585861"
       sodipodi:arg1="3.8947877e-10"
       sodipodi:arg2="0.52359878"
       inkscape:flatsided="true"
       inkscape:rounded="0"
       inkscape:randomized="0"
       d="m 232.67646,1012.0663 -15.59842,27.0172 -31.19685,0 -15.59842,-27.0172 15.59842,-27.01727 31.19685,0 z"
       transform="matrix(0.15850099,0,0,0.09523127,26.707277,946.46896)" />
    <path
       sodipodi:type="star"
       style="color:#000000;clip-rule:nonzero;display:inline;overflow:visible;visibility:visible;opacity:1;isolation:auto;mix-blend-mode:normal;color-interpolation:sRGB;color-interpolation-filters:linearRGB;solid-color:#000000;solid-opacity:1;fill:#003e00;fill-opacity:1;fill-rule:nonzero;stroke:none;stroke-width:1;stroke-linecap:butt;stroke-linejoin:miter;stroke-miterlimit:4;stroke-dasharray:none;stroke-dashoffset:0;stroke-opacity:1;color-rendering:auto;image-rendering:auto;shape-rendering:auto;text-rendering:auto;enable-background:accumulate"
       id="path6618-7"
       sodipodi:sides="6"
       sodipodi:cx="89.690926"
       sodipodi:cy="972.42029"
       sodipodi:r1="31.196842"
       sodipodi:r2="27.585861"
       sodipodi:arg1="3.8947877e-10"
       sodipodi:arg2="0.52359878"
       inkscape:flatsided="true"
       inkscape:rounded="0"
       inkscape:randomized="0"
       d="m 120.88777,972.42029 -15.59842,27.01726 -31.196846,0 -15.598421,-27.01726 15.598422,-27.01726 31.196845,0 z"
       transform="matrix(0.23209075,0,0,0.12791363,59.370461,916.87413)" />
    <path
       style="color:#000000;clip-rule:nonzero;display:inline;overflow:visible;visibility:visible;opacity:1;isolation:auto;mix-blend-mode:normal;color-interpolation:sRGB;color-interpolation-filters:linearRGB;solid-color:#000000;solid-opacity:1;fill:#000080;fill-opacity:1;fill-rule:nonzero;stroke:#000000;stroke-width:0.1;stroke-linecap:butt;stroke-linejoin:miter;stroke-miterlimit:1;stroke-dasharray:none;stroke-dashoffset:0;stroke-opacity:1;color-rendering:auto;image-rendering:auto;shape-rendering:auto;text-rendering:auto;enable-background:accumulate"
       d="m 19.066147,956.31812 c 0.85387,-0.84306 2.145204,-1.11038 3.080416,-0.71336 1.145698,0.48638 2.680501,1.36187 3.988326,1.36187 1.080848,0 2.096844,-0.48638 3.145266,-0.64851 l 0,4.66927 c -1.448335,0.45396 -1.826632,0.64851 -2.788586,0.64851 -1.567229,0 -2.874776,-0.98149 -4.377432,-1.42672 -0.875486,-0.2594 -2.33463,-0.1297 -3.04799,0.77821 z"
       id="rect5662"
       inkscape:connector-curvature="0"
       sodipodi:nodetypes="cssccsscc" />
    <path
       style="color:#000000;clip-rule:nonzero;display:inline;overflow:visible;visibility:visible;opacity:1;isolation:auto;mix-blend-mode:normal;color-interpolation:sRGB;color-interpolation-filters:linearRGB;solid-color:#000000;solid-opacity:1;fill:#000080;fill-opacity:1;fill-rule:nonzero;stroke:#000000;stroke-width:0.1;stroke-linecap:butt;stroke-linejoin:miter;stroke-miterlimit:1;stroke-dasharray:none;stroke-dashoffset:0;stroke-opacity:1;color-rendering:auto;image-rendering:auto;shape-rendering:auto;text-rendering:auto;enable-background:accumulate"
       d="m 80.463684,956.34145 c 0.85387,-0.84306 2.145204,-1.11038 3.080416,-0.71336 1.145698,0.48638 2.680501,1.36187 3.988326,1.36187 1.080848,0 2.096844,-0.48638 3.145266,-0.64851 l 0,4.66927 c -1.448335,0.45396 -1.826632,0.64851 -2.788586,0.64851 -1.567229,0 -2.874776,-0.98149 -4.377432,-1.42672 -0.875486,-0.2594 -2.33463,-0.1297 -3.04799,0.77821 z"
       id="rect5662-7"
       inkscape:connector-curvature="0"
       sodipodi:nodetypes="cssccsscc" />
  </g>
</svg>
