<?xml version="1.0" encoding="UTF-8" standalone="no"?>
<!-- Created with Inkscape (http://www.inkscape.org/) -->

<svg
   xmlns:dc="http://purl.org/dc/elements/1.1/"
   xmlns:cc="http://creativecommons.org/ns#"
   xmlns:rdf="http://www.w3.org/1999/02/22-rdf-syntax-ns#"
   xmlns:svg="http://www.w3.org/2000/svg"
   xmlns="http://www.w3.org/2000/svg"
   xmlns:sodipodi="http://sodipodi.sourceforge.net/DTD/sodipodi-0.dtd"
   xmlns:inkscape="http://www.inkscape.org/namespaces/inkscape"
   width="100"
   height="100"
   viewBox="0 0 100 100"
   id="svg2"
   version="1.1"
   inkscape:version="0.91 r13725"
   sodipodi:docname="horse.svg"
   inkscape:export-filename="/home/hannes/Desktop/Studium/Internetprog/git/Eigenstudium/RTS/images/horse.png"
   inkscape:export-xdpi="90"
   inkscape:export-ydpi="90">
  <defs
     id="defs4" />
  <sodipodi:namedview
     id="base"
     pagecolor="#ffffff"
     bordercolor="#666666"
     borderopacity="1.0"
     inkscape:pageopacity="0.0"
     inkscape:pageshadow="2"
     inkscape:zoom="7.71"
     inkscape:cx="50"
     inkscape:cy="50"
     inkscape:document-units="px"
     inkscape:current-layer="layer1"
     showgrid="false"
     units="px"
     inkscape:window-width="1680"
     inkscape:window-height="997"
     inkscape:window-x="0"
     inkscape:window-y="0"
     inkscape:window-maximized="1">
    <inkscape:grid
       type="xygrid"
       id="grid4395" />
  </sodipodi:namedview>
  <metadata
     id="metadata7">
    <rdf:RDF>
      <cc:Work
         rdf:about="">
        <dc:format>image/svg+xml</dc:format>
        <dc:type
           rdf:resource="http://purl.org/dc/dcmitype/StillImage" />
        <dc:title />
      </cc:Work>
    </rdf:RDF>
  </metadata>
  <g
     inkscape:label="Layer 1"
     inkscape:groupmode="layer"
     id="layer1"
     transform="translate(0,-952.36216)">
    <path
       style="color:#000000;clip-rule:nonzero;display:inline;overflow:visible;visibility:visible;opacity:1;isolation:auto;mix-blend-mode:normal;color-interpolation:sRGB;color-interpolation-filters:linearRGB;solid-color:#000000;solid-opacity:1;fill:#666666;fill-opacity:1;fill-rule:nonzero;stroke:#000000;stroke-width:0.9;stroke-linecap:butt;stroke-linejoin:miter;stroke-miterlimit:4;stroke-dasharray:none;stroke-dashoffset:0;stroke-opacity:1;color-rendering:auto;image-rendering:auto;shape-rendering:auto;text-rendering:auto;enable-background:accumulate"
       d="m 49.136485,958.8095 c -0.567148,0.0102 -1.114793,0.0335 -1.640625,0.0703 -17.889465,1.2525 -30.886555,9.41272 -35.025391,21.99023 -1.864355,5.6656 -1.991902,10.46121 -0.578125,21.67377 2.41269,19.135 7.896947,32.9833 16.654297,42.0528 0.987932,1.0235 1.182275,1.1717 1.287109,0.9844 0.261983,-0.4681 5.794922,-13.2049 5.794922,-13.3399 0,-0.078 -0.355274,-0.4902 -0.789062,-0.916 -4.584074,-4.4995 -8.08009,-11.7156 -10.103516,-20.8555 -1.01751,-4.5961 -1.946066,-12.00255 -1.947266,-15.52535 -0.0012,-3.4728 0.777829,-6.84679 2.214844,-9.58789 3.132445,-5.9753 9.357417,-10.12495 17.712891,-11.80469 10.509431,-2.11276 22.05539,0.89999 28.208984,7.35938 4.127507,4.3327 5.848817,9.72826 5.306641,16.63086 -1.217616,15.50169 -5.030298,26.58229 -11.517578,33.47069 l -1.154297,1.2246 3.310547,6.8418 c 1.820481,3.763 3.349404,6.8418 3.396484,6.8418 0.112781,0 1.925995,-1.8988 2.914062,-3.0508 8.874851,-10.3478 14.155606,-26.7452 15.765626,-48.957 0.456986,-6.3046 -0.530824,-11.81467 -2.998047,-16.73437 -4.095723,-8.16693 -12.319574,-14.01276 -23.634766,-16.80078 -4.328589,-1.06656 -9.207701,-1.63952 -13.177734,-1.56836 z m -23.638672,12.94531 a 2.4112673,2.4112673 0 0 1 2.412109,2.41211 2.4112673,2.4112673 0 0 1 -2.412109,2.41211 2.4112673,2.4112673 0 0 1 -2.410157,-2.41211 2.4112673,2.4112673 0 0 1 2.410157,-2.41211 z m 49.675781,0 a 2.4112673,2.4112673 0 0 1 2.412109,2.41211 2.4112673,2.4112673 0 0 1 -2.412109,2.41211 2.4112673,2.4112673 0 0 1 -2.410156,-2.41211 2.4112673,2.4112673 0 0 1 2.410156,-2.41211 z M 16.80836,991.46965 a 2.4112673,2.4112673 0 0 1 2.412109,2.41211 2.4112673,2.4112673 0 0 1 -2.412109,2.41016 2.4112673,2.4112673 0 0 1 -2.41211,-2.41016 2.4112673,2.4112673 0 0 1 2.41211,-2.41211 z m 65.888672,0 a 2.4112673,2.4112673 0 0 1 2.410156,2.41211 2.4112673,2.4112673 0 0 1 -2.410156,2.41016 2.4112673,2.4112673 0 0 1 -2.41211,-2.41016 2.4112673,2.4112673 0 0 1 2.41211,-2.41211 z m -62.386719,22.05075 a 2.4112673,2.4112673 0 0 1 2.412109,2.4102 2.4112673,2.4112673 0 0 1 -2.412109,2.4121 2.4112673,2.4112673 0 0 1 -2.41211,-2.4121 2.4112673,2.4112673 0 0 1 2.41211,-2.4102 z m 59.013672,0 a 2.4112673,2.4112673 0 0 1 2.412109,2.4102 2.4112673,2.4112673 0 0 1 -2.412109,2.4121 2.4112673,2.4112673 0 0 1 -2.410157,-2.4121 2.4112673,2.4112673 0 0 1 2.410157,-2.4102 z"
       id="path5309"
       inkscape:connector-curvature="0" />
    <path
       style="color:#000000;clip-rule:nonzero;display:inline;overflow:visible;visibility:visible;opacity:1;isolation:auto;mix-blend-mode:normal;color-interpolation:sRGB;color-interpolation-filters:linearRGB;solid-color:#000000;solid-opacity:1;fill:#2b1100;fill-opacity:1;fill-rule:nonzero;stroke:#000000;stroke-width:0.13064894;stroke-linecap:butt;stroke-linejoin:miter;stroke-miterlimit:4;stroke-dasharray:none;stroke-dashoffset:0;stroke-opacity:1;color-rendering:auto;image-rendering:auto;shape-rendering:auto;text-rendering:auto;enable-background:accumulate"
       d="m 22.625509,980.02509 c -0.1138,0.0681 -0.218116,0.15129 -0.311601,0.24963 l -0.408716,0.42884 c -0.747739,0.78701 -0.485368,2.24417 0.590736,3.26656 l 2.746929,2.61027 c -0.144252,-0.49186 -0.30797,-0.97737 -0.635501,-1.44944 l 0.08749,-0.0611 c 0.379138,0.54587 0.551291,1.10513 0.708146,1.66239 l 7.318978,6.95338 c -0.357885,-0.80705 -0.638946,-1.63602 -1.149411,-2.37061 -1.003907,-1.4453 -1.793904,-2.9512 -2.793067,-4.38926 -0.594849,-0.85641 -1.191321,-1.39881 -1.794017,-2.08823 -0.04451,-0.0509 -0.163323,-0.11891 -0.313299,-0.18447 -0.150075,-0.0657 -0.333012,-0.1338 -0.517444,-0.20375 -0.184329,-0.0699 -0.36869,-0.14145 -0.524264,-0.21806 -0.15549,-0.0766 -0.283451,-0.1547 -0.351662,-0.25294 l 0.08963,-0.0627 c 0.04623,0.0665 0.159942,0.14566 0.309011,0.21923 0.14907,0.0734 0.331756,0.14495 0.515527,0.21463 0.183651,0.0696 0.368489,0.13521 0.523204,0.20289 0.154761,0.0677 0.278446,0.13285 0.34933,0.21327 0.597798,0.68391 1.202442,1.23315 1.8051,2.09956 1.003817,1.4452 1.7925,2.94919 2.791579,4.38713 0.573095,0.82508 0.852831,1.75469 1.261303,2.62603 l 4.588239,4.3572 c -0.109427,-0.24247 -0.230791,-0.47879 -0.383253,-0.69797 -0.780433,-1.12343 -2.092418,-2.14902 -2.887849,-3.29343 -0.783042,-1.12739 -1.015619,-2.44948 -1.781828,-3.55209 -1.003901,-1.44531 -1.792405,-2.94906 -2.791569,-4.38713 -0.421924,-0.60727 -0.575267,-1.32815 -0.728877,-2.0419 -0.03778,-0.17597 -0.08915,-0.34539 -0.130741,-0.51866 l -3.203057,-3.04439 c -0.941583,-0.8946 -2.182386,-1.15181 -2.979053,-0.67483 z m 6.329673,3.85753 c 0.0272,0.1201 0.06228,0.23758 0.08815,0.3578 0.153612,0.71373 0.306781,1.41781 0.71353,2.00178 1.00382,1.44519 1.792489,2.94918 2.791569,4.38712 0.783044,1.12738 1.015626,2.44949 1.781828,3.55209 0.78041,1.12363 2.092439,2.14903 2.88786,3.29343 0.207917,0.29931 0.363339,0.62397 0.498115,0.95764 l 11.495439,10.92182 c -0.165594,-0.3296 -0.337863,-0.6528 -0.544161,-0.9509 -0.297242,-0.4279 -0.45193,-1.087 -0.608114,-1.742 -0.156116,-0.6549 -0.310022,-1.3066 -0.58838,-1.7046 -0.147293,-0.2121 -0.311886,-0.3102 -0.489896,-0.3598 -0.177801,-0.049 -0.372103,-0.049 -0.571676,-0.045 -0.199303,0 -0.405128,0.01 -0.603493,-0.045 -0.198472,-0.055 -0.388693,-0.1741 -0.549369,-0.4039 -0.771124,-1.1101 -3.489121,-4.63463 -4.266121,-5.755 -0.898319,-1.29316 -1.522544,-2.68584 -2.413103,-3.9686 -0.400132,-0.57612 -0.402589,-0.96773 -0.402588,-1.33906 6.1e-5,-0.14043 -0.01414,-0.28363 -0.03415,-0.43051 l -3.920378,-3.7248 c 0.1,0.39648 0.114045,0.78446 -0.01715,1.11144 l -0.01176,-0.007 -0.02196,0.0505 c -0.7822,-0.34392 -1.236935,-0.71095 -1.682751,-1.4066 -0.380954,-0.5946 -0.448675,-1.23619 -0.499628,-1.86859 l -3.031815,-2.88132 z m 3.152084,2.99422 c 0.05123,0.58626 0.126924,1.16364 0.46834,1.69662 0.417359,0.65143 0.834923,0.99334 1.541358,1.31802 0.113114,-0.33524 0.06674,-0.74801 -0.06646,-1.16738 l -1.943239,-1.84726 z m 6.14702,5.841 c 0.0084,0.10769 0.02895,0.22177 0.02887,0.323 -9.3e-5,0.37118 -0.004,0.72136 0.385331,1.278 0.898239,1.29305 1.521059,2.68372 2.411613,3.96647 0.77119,1.11021 3.490613,4.63679 4.267647,5.75719 0.147106,0.2117 0.309763,0.3117 0.487701,0.3611 0.1778,0.049 0.372695,0.045 0.572356,0.042 0.199302,-0 0.402977,-0.01 0.601342,0.046 0.198402,0.055 0.38877,0.1743 0.549373,0.4039 0.297137,0.4277 0.450343,1.0849 0.606513,1.7398 0.156158,0.6548 0.313854,1.3076 0.592115,1.7054 0.268677,0.3868 0.481487,0.8094 0.688509,1.2345 l 2.884877,2.7393 c 0.460817,0.1742 0.899754,0.3778 1.169948,0.7642 0.168255,0.2424 0.294364,0.4958 0.422714,0.7499 l 3.805218,3.6147 c -0.11962,-0.5173 -0.263593,-1.02 -0.542463,-1.4572 l -0.01157,0 c -0.903966,-1.3015 -1.103713,-2.8186 -1.988969,-4.0938 -0.327124,-0.4707 -0.928938,-0.6811 -1.545515,-0.8922 -0.616748,-0.2113 -1.246796,-0.4243 -1.602164,-0.9324 -0.633999,-0.9129 -0.974755,-2.0161 -1.594184,-2.9112 -0.297137,-0.4277 -0.451918,-1.0871 -0.608041,-1.7419 -0.156106,-0.6549 -0.313687,-1.3073 -0.592041,-1.7054 -0.147267,-0.212 -0.309769,-0.3117 -0.487761,-0.3612 -0.177801,-0.049 -0.372914,-0.046 -0.572385,-0.042 -0.199302,0 -0.402909,0.01 -0.601331,-0.047 -0.198413,-0.055 -0.388617,-0.174 -0.549295,-0.4037 -0.390459,-0.5621 -0.893671,-1.4675 -1.395859,-2.3732 -0.334827,-0.60397 -0.654914,-1.16549 -0.954522,-1.66479 l -6.42892,-6.10779 z m 6.74109,6.40422 c 0.236934,0.40989 0.488361,0.86357 0.739449,1.31634 0.502195,0.9056 1.000312,1.8121 1.386253,2.364 0.147123,0.2118 0.311898,0.3102 0.489817,0.3595 0.177813,0.049 0.374217,0.048 0.573812,0.044 0.200045,-0 0.402977,-0.01 0.601357,0.047 0.198471,0.055 0.387314,0.1722 0.54792,0.4018 0.297136,0.4277 0.451883,1.0871 0.60804,1.742 0.156093,0.6547 0.313763,1.3074 0.592043,1.7053 0.633982,0.9128 0.974813,2.0162 1.594183,2.9112 0.327169,0.4711 0.928902,0.6811 1.545592,0.8924 0.616688,0.2113 1.246791,0.4242 1.602086,0.9322 0.883381,1.2719 1.100928,2.7475 1.935684,4.0039 l 0.0092,-0 c 0.362078,0.5213 0.515563,1.1314 0.650746,1.7439 l 2.942468,2.7945 c -0.008,-0.089 -0.02585,-0.1737 -0.03253,-0.2601 l 0.0094,0.014 0.06861,-0.011 0.0037,-0.022 c 0.0113,0.011 0.01344,0.011 0.02224,0.014 l 0.0024,-4e-4 c 0.605271,0.3453 1.240975,0.575 1.63936,1.2083 0.22469,0.3571 0.395886,0.7527 0.477527,1.1371 l 3.805229,3.6147 c -0.02285,-0.2572 -0.08236,-0.5312 -0.346075,-0.9083 -0.763735,-1.0997 -0.99336,-2.3882 -1.739377,-3.4642 -0.97904,-1.4095 -1.748399,-2.877 -2.722738,-4.2796 -0.802474,-1.1554 -1.615206,-1.7279 -2.426799,-2.8977 l 0.08535,-0.06 c 0.802514,1.1554 1.617318,1.7262 2.428926,2.8962 0.979142,1.4094 1.746325,2.8786 2.720594,4.2811 0.763699,1.0994 0.993284,2.388 1.739376,3.4641 0.312395,0.4498 0.361244,0.7747 0.374352,1.076 l 6.380977,6.0619 c -0.19183,-0.3274 -0.381689,-0.6412 -0.541692,-0.87 -0.431261,-0.6208 -1.118587,-1.2786 -1.807341,-1.9392 -0.688642,-0.6604 -1.377556,-1.3246 -1.8207,-1.9582 -0.393374,-0.5663 -0.435643,-1.1812 -0.478962,-1.7846 -0.04328,-0.6032 -0.08319,-1.1957 -0.459811,-1.7343 -0.763716,-1.0995 -0.994796,-2.3901 -1.740904,-3.4663 -0.565681,-0.8144 -1.06888,-1.6446 -1.57435,-2.4739 l -5.716692,-5.4302 c 0.209218,0.5122 0.436085,1.0156 0.761979,1.485 l -0.08967,0.062 c -0.381976,-0.5499 -0.630644,-1.1405 -0.865762,-1.7333 L 44.994943,999.1194 Z m 7.544778,13.39234 1.115832,1.0594 c -0.08227,-0.1448 -0.147521,-0.2964 -0.244471,-0.436 -0.201791,-0.2904 -0.520977,-0.4701 -0.871361,-0.6234 z m 8.357528,7.7204 c 0.0068,0.085 0.02426,0.1666 0.03222,0.2507 l 1.925608,1.8312 c -0.08731,-0.3196 -0.231644,-0.6465 -0.41991,-0.9459 -0.3634,-0.5774 -0.946225,-0.8064 -1.537974,-1.136 z m 4.30115,-1.9147 c 0.431034,0.7096 0.864078,1.4172 1.345147,2.1097 0.763701,1.0995 0.991213,2.3896 1.737303,3.4657 0.393328,0.5664 0.435577,1.1811 0.478959,1.7845 0.04329,0.6033 0.08534,1.1945 0.461943,1.7329 0.431334,0.621 1.11795,1.2824 1.806661,1.9428 0.688649,0.6603 1.378253,1.3211 1.821397,1.9547 0.214333,0.3085 0.465632,0.7317 0.729501,1.1932 l 12.215714,11.6062 c 0.348391,0.3311 0.739185,0.5633 1.132057,0.7146 -0.247355,-0.633 -0.502311,-1.2592 -0.901953,-1.8349 -0.3256,-0.469 -0.604943,-0.5635 -0.904852,-0.667 -0.300037,-0.1035 -0.619783,-0.2183 -0.959862,-0.7045 -0.608241,-0.8756 -1.154676,-1.3011 -1.768815,-2.1886 -0.558512,-0.8042 -1.295219,-1.7382 -1.854831,-2.5478 -0.589842,-0.8494 -1.857728,-1.8291 -2.464498,-2.7062 -0.380742,-0.5482 -0.869936,-1.4291 -1.359713,-2.3123 -0.489674,-0.8833 -0.976952,-1.7696 -1.35319,-2.3077 -0.222901,-0.3208 -0.299707,-0.5933 -0.296805,-0.8379 0.0028,-0.2447 0.08213,-0.4573 0.158636,-0.6637 0.01996,-0.054 0.03651,-0.1083 0.05502,-0.1622 l -10.077682,-9.5714 z m 5.294265,6.4117 0.01455,0.017 0.0318,0.014 -0.0042,-0.02 c 0.497226,-0.1037 1.352315,-0.01 2.068941,0.7458 0.458785,0.4828 1.193186,1.358 1.457268,1.8565 0.06826,0.1289 0.02556,0.2775 -0.06372,0.4133 -0.0893,0.1351 -0.225508,0.2715 -0.366888,0.3931 -0.283549,0.2423 -0.592008,0.4303 -0.592008,0.4303 l -0.01536,-0.027 -0.01625,0.017 c -0.699118,-0.614 -1.539986,-1.213 -2.27759,-1.8074 l -0.0091,-0.013 -0.0079,-0.013 c -0.24392,-0.3628 -0.380405,-0.6553 -0.413043,-0.9633 -0.03277,-0.3076 0.03874,-0.6256 0.195022,-1.0387 z m 0.0802,0.096 c -0.136803,0.3749 -0.199224,0.6635 -0.17067,0.9328 0.03011,0.2831 0.155145,0.5578 0.392308,0.9108 0.717781,0.5778 1.53661,1.1631 2.230414,1.7672 0.0673,-0.048 0.289868,-0.1847 0.524319,-0.3862 0.137614,-0.1171 0.267164,-0.2469 0.345863,-0.3687 0.0788,-0.121 0.106631,-0.2242 0.0618,-0.307 -0.249847,-0.4719 -0.987221,-1.3559 -1.440873,-1.8333 -0.677959,-0.713 -1.478527,-0.8039 -1.943336,-0.716 z m 4.788019,3.1435 c -0.01404,0.039 -0.02744,0.079 -0.04141,0.117 -0.07642,0.2066 -0.148169,0.4074 -0.150642,0.6298 -0.0027,0.2223 0.06159,0.4698 0.275898,0.7762 0.380776,0.5483 0.87148,1.4313 1.36127,2.3145 0.48984,0.8833 0.976792,1.7694 1.353191,2.3078 0.589826,0.8492 1.859925,1.8277 2.466606,2.7047 0.558513,0.8042 1.293646,1.736 1.853315,2.5456 0.608136,0.8753 1.152527,1.3025 1.766664,2.1899 0.325601,0.469 0.606974,0.5617 0.906987,0.6655 0.299965,0.1034 0.61984,0.2183 0.959861,0.7045 0.429119,0.6178 0.69252,1.2865 0.952293,1.9524 0.775335,0.2558 1.545512,0.1553 2.022685,-0.3484 l 0.407123,-0.4311 c 0.128246,-0.1349 0.216339,-0.2946 0.285875,-0.4636 -0.342019,-0.8432 -0.627311,-1.7001 -1.160322,-2.4681 -0.319107,-0.4593 -0.909038,-0.6633 -1.510413,-0.8693 -0.601479,-0.206 -1.214515,-0.4144 -1.561118,-0.9101 -0.302466,-0.4352 -0.250102,-1.1724 -0.189468,-1.9203 l -9.998714,-9.4993 z m 10.101346,9.596 c -0.0533,0.7118 -0.08078,1.3976 0.175803,1.7645 0.319123,0.4594 0.906804,0.6649 1.508266,0.8709 0.601496,0.2061 1.214605,0.4145 1.561192,0.9101 0.521681,0.7512 0.808216,1.5728 1.129321,2.3783 0.241327,-0.8014 -0.09649,-1.8579 -0.934674,-2.6542 l -1.432513,-1.3623 c -0.467209,-0.1732 -0.914496,-0.3718 -1.187239,-0.7616 -0.118284,-0.1704 -0.188493,-0.3757 -0.239312,-0.5922 l -0.580842,-0.5535 z m 0.723255,0.689 c 0.04551,0.1456 0.101632,0.2816 0.182241,0.3969 0.205179,0.2953 0.535541,0.473 0.895234,0.6257 l -1.077476,-1.0226 z"
       id="rect5420"
       inkscape:connector-curvature="0" />
    <path
       style="color:#000000;clip-rule:nonzero;display:inline;overflow:visible;visibility:visible;opacity:1;isolation:auto;mix-blend-mode:normal;color-interpolation:sRGB;color-interpolation-filters:linearRGB;solid-color:#000000;solid-opacity:1;fill:#4d4d4d;fill-opacity:1;fill-rule:nonzero;stroke:#000000;stroke-width:0.20803805;stroke-linecap:butt;stroke-linejoin:miter;stroke-miterlimit:4;stroke-dasharray:none;stroke-dashoffset:0;stroke-opacity:1;color-rendering:auto;image-rendering:auto;shape-rendering:auto;text-rendering:auto;enable-background:accumulate"
       d="M 3.8267467,963.1932 5.0286012,967.13331 17.0346,978.54009 18.431932,977.06947 3.8267867,963.19326 Z"
       id="rect4765"
       inkscape:connector-curvature="0" />
    <path
       style="color:#000000;clip-rule:nonzero;display:inline;overflow:visible;visibility:visible;opacity:1;isolation:auto;mix-blend-mode:normal;color-interpolation:sRGB;color-interpolation-filters:linearRGB;solid-color:#000000;solid-opacity:1;fill:#808080;fill-opacity:1;fill-rule:nonzero;stroke:#000000;stroke-width:0.20803805;stroke-linecap:butt;stroke-linejoin:miter;stroke-miterlimit:4;stroke-dasharray:none;stroke-dashoffset:0;stroke-opacity:1;color-rendering:auto;image-rendering:auto;shape-rendering:auto;text-rendering:auto;enable-background:accumulate"
       d="M 3.9414436,963.091 18.53736,976.95843 19.943439,975.4785 7.9374046,964.07167 3.9414436,963.091 Z"
       id="rect4765-6"
       inkscape:connector-curvature="0" />
    <rect
       style="color:#000000;clip-rule:nonzero;display:inline;overflow:visible;visibility:visible;opacity:1;isolation:auto;mix-blend-mode:normal;color-interpolation:sRGB;color-interpolation-filters:linearRGB;solid-color:#000000;solid-opacity:1;fill:#4d4d4d;fill-opacity:1;fill-rule:nonzero;stroke:#000000;stroke-width:0.13064894;stroke-linecap:butt;stroke-linejoin:miter;stroke-miterlimit:4;stroke-dasharray:none;stroke-dashoffset:0;stroke-opacity:1;color-rendering:auto;image-rendering:auto;shape-rendering:auto;text-rendering:auto;enable-background:accumulate"
       id="rect5422"
       width="6.7252007"
       height="10.908593"
       x="-698.93604"
       y="685.9718"
       rx="1.9595381"
       ry="2.6793225"
       transform="matrix(0.6887839,-0.72496671,0.72496671,0.6887839,0,0)" />
    <path
       style="color:#000000;clip-rule:nonzero;display:inline;overflow:visible;visibility:visible;opacity:1;isolation:auto;mix-blend-mode:normal;color-interpolation:sRGB;color-interpolation-filters:linearRGB;solid-color:#000000;solid-opacity:1;fill:#808080;fill-opacity:1;fill-rule:nonzero;stroke:#000000;stroke-width:0.13064894;stroke-linecap:butt;stroke-linejoin:miter;stroke-miterlimit:4;stroke-dasharray:none;stroke-dashoffset:0;stroke-opacity:1;color-rendering:auto;image-rendering:auto;shape-rendering:auto;text-rendering:auto;enable-background:accumulate"
       d="m 17.562535,980.13662 c -0.249448,0.26213 -0.280226,0.63121 -0.07829,0.82317 0.201945,0.19199 0.559933,0.13377 0.809161,-0.12802 l 3.954581,-4.16236 c 0.249448,-0.26213 0.28948,-0.62253 0.08744,-0.81443 -0.202046,-0.19191 -0.568691,-0.14195 -0.818143,0.12018 l -3.954579,4.16236 z m 1.471649,1.43334 c -0.249444,0.26215 -0.279857,0.63174 -0.07829,0.82319 0.202045,0.19191 0.559921,0.13374 0.809161,-0.12802 l 3.954621,-4.1623 c 0.249063,-0.26269 0.289475,-0.62255 0.08744,-0.81445 -0.202044,-0.1919 -0.568704,-0.14196 -0.818133,0.12028 l -3.954587,4.16235 z m 1.498418,1.42364 c -0.249446,0.26214 -0.289481,0.62252 -0.08745,0.81444 0.202046,0.1919 0.559557,0.1332 0.809175,-0.12802 l 3.954579,-4.16236 c 0.249446,-0.26213 0.289481,-0.62253 0.08743,-0.81444 -0.202045,-0.19189 -0.559554,-0.13321 -0.809162,0.12803 l -3.954578,4.16237 z m 1.559544,1.34085 c -0.249445,0.26214 -0.289479,0.62254 -0.08744,0.81446 0.202045,0.19191 0.568702,0.14195 0.818165,-0.12009 l 3.954625,-4.16231 c 0.249447,-0.26213 0.280225,-0.6312 0.07829,-0.82319 -0.20242,-0.19245 -0.559931,-0.13373 -0.809168,0.12802 l -3.954586,4.16235 z"
       id="rect5424"
       inkscape:connector-curvature="0" />
    <path
       style="fill:none;fill-rule:evenodd;stroke:#000000;stroke-width:0.25643858;stroke-linecap:butt;stroke-linejoin:miter;stroke-miterlimit:4;stroke-dasharray:none;stroke-opacity:1"
       d="m 59.583577,1014.5527 0.332529,-0.54"
       id="path6773"
       inkscape:connector-curvature="0" />
  </g>
</svg>
